G04 EAGLE Gerber RS-274X export*
G75*
%MOMM*%
%FSLAX34Y34*%
%LPD*%
%INBottom Copper*%
%IPPOS*%
%AMOC8*
5,1,8,0,0,1.08239X$1,22.5*%
G01*
%ADD10C,3.327400*%
%ADD11C,1.880000*%
%ADD12C,0.609600*%
%ADD13C,0.254000*%

G36*
X964385Y3052D02*
X964385Y3052D01*
X964404Y3050D01*
X964506Y3072D01*
X964608Y3088D01*
X964625Y3098D01*
X964645Y3102D01*
X964734Y3155D01*
X964825Y3204D01*
X964839Y3218D01*
X964856Y3228D01*
X964923Y3307D01*
X964995Y3382D01*
X965003Y3400D01*
X965016Y3415D01*
X965055Y3511D01*
X965098Y3605D01*
X965100Y3625D01*
X965108Y3643D01*
X965126Y3810D01*
X965126Y361190D01*
X965123Y361210D01*
X965125Y361229D01*
X965103Y361331D01*
X965087Y361433D01*
X965077Y361450D01*
X965073Y361470D01*
X965020Y361559D01*
X964971Y361650D01*
X964957Y361664D01*
X964947Y361681D01*
X964868Y361748D01*
X964793Y361820D01*
X964775Y361828D01*
X964760Y361841D01*
X964664Y361880D01*
X964570Y361923D01*
X964550Y361925D01*
X964532Y361933D01*
X964365Y361951D01*
X635Y361951D01*
X615Y361948D01*
X596Y361950D01*
X494Y361928D01*
X392Y361912D01*
X375Y361902D01*
X355Y361898D01*
X266Y361845D01*
X175Y361796D01*
X161Y361782D01*
X144Y361772D01*
X77Y361693D01*
X5Y361618D01*
X-3Y361600D01*
X-16Y361585D01*
X-55Y361489D01*
X-98Y361395D01*
X-100Y361375D01*
X-108Y361357D01*
X-126Y361190D01*
X-126Y77546D01*
X-122Y77522D01*
X-125Y77498D01*
X-103Y77401D01*
X-87Y77303D01*
X-75Y77282D01*
X-70Y77258D01*
X-18Y77173D01*
X29Y77086D01*
X46Y77069D01*
X59Y77048D01*
X135Y76985D01*
X207Y76916D01*
X229Y76906D01*
X247Y76891D01*
X340Y76854D01*
X430Y76813D01*
X454Y76810D01*
X476Y76801D01*
X576Y76796D01*
X674Y76785D01*
X698Y76791D01*
X722Y76789D01*
X818Y76817D01*
X915Y76838D01*
X935Y76850D01*
X959Y76857D01*
X1041Y76913D01*
X1126Y76964D01*
X1142Y76982D01*
X1161Y76996D01*
X1221Y77075D01*
X1286Y77151D01*
X1295Y77173D01*
X1309Y77192D01*
X1370Y77349D01*
X1867Y79203D01*
X2829Y81525D01*
X4086Y83702D01*
X5617Y85697D01*
X7394Y87474D01*
X9389Y89005D01*
X11566Y90262D01*
X13888Y91224D01*
X16316Y91875D01*
X18543Y92168D01*
X18543Y73787D01*
X18546Y73767D01*
X18544Y73748D01*
X18566Y73646D01*
X18583Y73544D01*
X18592Y73527D01*
X18596Y73507D01*
X18649Y73418D01*
X18698Y73327D01*
X18712Y73313D01*
X18722Y73296D01*
X18801Y73229D01*
X18876Y73158D01*
X18894Y73149D01*
X18909Y73136D01*
X19005Y73098D01*
X19099Y73054D01*
X19119Y73052D01*
X19137Y73044D01*
X19304Y73026D01*
X20067Y73026D01*
X20067Y73024D01*
X19304Y73024D01*
X19284Y73021D01*
X19265Y73023D01*
X19163Y73001D01*
X19061Y72984D01*
X19044Y72975D01*
X19024Y72971D01*
X18935Y72918D01*
X18844Y72869D01*
X18830Y72855D01*
X18813Y72845D01*
X18746Y72766D01*
X18675Y72691D01*
X18666Y72673D01*
X18653Y72658D01*
X18614Y72562D01*
X18571Y72468D01*
X18569Y72448D01*
X18561Y72430D01*
X18543Y72263D01*
X18543Y53882D01*
X16316Y54175D01*
X13888Y54826D01*
X11566Y55788D01*
X9389Y57045D01*
X7394Y58576D01*
X5617Y60353D01*
X4086Y62348D01*
X2829Y64525D01*
X1867Y66847D01*
X1370Y68701D01*
X1360Y68723D01*
X1356Y68747D01*
X1310Y68835D01*
X1269Y68925D01*
X1253Y68943D01*
X1241Y68964D01*
X1169Y69033D01*
X1102Y69106D01*
X1081Y69117D01*
X1063Y69134D01*
X973Y69176D01*
X886Y69223D01*
X862Y69227D01*
X840Y69237D01*
X741Y69248D01*
X643Y69266D01*
X619Y69262D01*
X596Y69265D01*
X499Y69243D01*
X400Y69228D01*
X379Y69217D01*
X355Y69212D01*
X270Y69161D01*
X181Y69116D01*
X165Y69098D01*
X144Y69086D01*
X79Y69010D01*
X10Y68939D01*
X0Y68918D01*
X-16Y68899D01*
X-53Y68807D01*
X-96Y68717D01*
X-99Y68693D01*
X-108Y68671D01*
X-126Y68504D01*
X-126Y3810D01*
X-123Y3790D01*
X-125Y3771D01*
X-103Y3669D01*
X-87Y3567D01*
X-77Y3550D01*
X-73Y3530D01*
X-20Y3441D01*
X29Y3350D01*
X43Y3336D01*
X53Y3319D01*
X132Y3252D01*
X207Y3180D01*
X225Y3172D01*
X240Y3159D01*
X336Y3120D01*
X430Y3077D01*
X450Y3075D01*
X468Y3067D01*
X635Y3049D01*
X964365Y3049D01*
X964385Y3052D01*
G37*
%LPC*%
G36*
X229299Y19301D02*
X229299Y19301D01*
X224723Y21196D01*
X221221Y24698D01*
X219326Y29274D01*
X219326Y34226D01*
X221221Y38802D01*
X224723Y42304D01*
X228208Y43747D01*
X228269Y43785D01*
X228334Y43814D01*
X228372Y43849D01*
X228417Y43876D01*
X228462Y43932D01*
X228515Y43980D01*
X228540Y44026D01*
X228573Y44066D01*
X228599Y44133D01*
X228634Y44196D01*
X228643Y44247D01*
X228662Y44295D01*
X228665Y44367D01*
X228677Y44438D01*
X228670Y44489D01*
X228672Y44541D01*
X228652Y44610D01*
X228642Y44681D01*
X228618Y44727D01*
X228603Y44777D01*
X228563Y44836D01*
X228530Y44900D01*
X228493Y44937D01*
X228463Y44979D01*
X228406Y45022D01*
X228354Y45072D01*
X228292Y45107D01*
X228266Y45126D01*
X228244Y45133D01*
X228208Y45153D01*
X224723Y46596D01*
X221221Y50098D01*
X219326Y54674D01*
X219326Y59626D01*
X221221Y64202D01*
X224723Y67704D01*
X228208Y69147D01*
X228269Y69185D01*
X228334Y69214D01*
X228372Y69249D01*
X228417Y69276D01*
X228462Y69332D01*
X228515Y69380D01*
X228540Y69426D01*
X228573Y69466D01*
X228599Y69533D01*
X228634Y69596D01*
X228643Y69647D01*
X228662Y69695D01*
X228665Y69767D01*
X228677Y69838D01*
X228670Y69889D01*
X228672Y69941D01*
X228652Y70010D01*
X228642Y70081D01*
X228618Y70127D01*
X228603Y70177D01*
X228563Y70236D01*
X228530Y70300D01*
X228493Y70337D01*
X228463Y70379D01*
X228406Y70422D01*
X228354Y70472D01*
X228292Y70507D01*
X228266Y70526D01*
X228244Y70533D01*
X228208Y70553D01*
X224723Y71996D01*
X221221Y75498D01*
X219326Y80074D01*
X219326Y85026D01*
X220264Y87289D01*
X220272Y87327D01*
X220280Y87342D01*
X220283Y87372D01*
X220290Y87403D01*
X220319Y87516D01*
X220318Y87523D01*
X220320Y87529D01*
X220309Y87645D01*
X220300Y87762D01*
X220297Y87767D01*
X220297Y87774D01*
X220249Y87881D01*
X220203Y87988D01*
X220199Y87994D01*
X220197Y87998D01*
X220184Y88012D01*
X220099Y88119D01*
X201126Y107091D01*
X198373Y109844D01*
X198373Y114616D01*
X198359Y114706D01*
X198351Y114797D01*
X198339Y114826D01*
X198334Y114858D01*
X198291Y114939D01*
X198255Y115023D01*
X198229Y115055D01*
X198218Y115076D01*
X198195Y115098D01*
X198150Y115154D01*
X138556Y174748D01*
X138556Y236681D01*
X138542Y236771D01*
X138534Y236862D01*
X138522Y236892D01*
X138517Y236924D01*
X138474Y237005D01*
X138438Y237089D01*
X138412Y237121D01*
X138401Y237141D01*
X138378Y237164D01*
X138333Y237220D01*
X137706Y237846D01*
X136778Y240087D01*
X136778Y242513D01*
X137706Y244754D01*
X139421Y246469D01*
X141662Y247397D01*
X144088Y247397D01*
X146329Y246469D01*
X148044Y244754D01*
X148972Y242513D01*
X148972Y240087D01*
X148044Y237846D01*
X147417Y237220D01*
X147364Y237146D01*
X147304Y237076D01*
X147292Y237046D01*
X147273Y237020D01*
X147246Y236933D01*
X147212Y236848D01*
X147208Y236807D01*
X147201Y236785D01*
X147202Y236753D01*
X147194Y236681D01*
X147194Y178641D01*
X147208Y178551D01*
X147216Y178460D01*
X147228Y178430D01*
X147233Y178398D01*
X147276Y178318D01*
X147312Y178234D01*
X147338Y178202D01*
X147349Y178181D01*
X147372Y178159D01*
X147417Y178103D01*
X207011Y118509D01*
X207011Y113737D01*
X207025Y113647D01*
X207033Y113556D01*
X207045Y113526D01*
X207050Y113494D01*
X207093Y113414D01*
X207129Y113330D01*
X207155Y113298D01*
X207166Y113277D01*
X207189Y113255D01*
X207234Y113199D01*
X219708Y100724D01*
X219787Y100667D01*
X219863Y100605D01*
X219887Y100596D01*
X219908Y100581D01*
X220001Y100552D01*
X220092Y100517D01*
X220118Y100516D01*
X220143Y100508D01*
X220241Y100511D01*
X220338Y100507D01*
X220363Y100514D01*
X220389Y100515D01*
X220481Y100548D01*
X220574Y100575D01*
X220596Y100590D01*
X220620Y100599D01*
X220696Y100660D01*
X220776Y100715D01*
X220792Y100736D01*
X220812Y100753D01*
X220865Y100835D01*
X220923Y100913D01*
X220931Y100938D01*
X220945Y100960D01*
X220969Y101054D01*
X220999Y101147D01*
X220999Y101173D01*
X221005Y101198D01*
X220998Y101295D01*
X220997Y101393D01*
X220988Y101424D01*
X220986Y101443D01*
X220973Y101474D01*
X220950Y101554D01*
X219326Y105474D01*
X219326Y110426D01*
X221221Y115002D01*
X224723Y118504D01*
X228208Y119947D01*
X228269Y119985D01*
X228334Y120014D01*
X228372Y120049D01*
X228417Y120076D01*
X228462Y120132D01*
X228515Y120180D01*
X228540Y120226D01*
X228573Y120266D01*
X228599Y120333D01*
X228634Y120396D01*
X228643Y120447D01*
X228662Y120495D01*
X228665Y120567D01*
X228677Y120638D01*
X228670Y120689D01*
X228672Y120741D01*
X228652Y120810D01*
X228642Y120881D01*
X228618Y120927D01*
X228603Y120977D01*
X228563Y121036D01*
X228530Y121100D01*
X228493Y121137D01*
X228463Y121179D01*
X228406Y121222D01*
X228354Y121272D01*
X228292Y121307D01*
X228266Y121326D01*
X228244Y121333D01*
X228208Y121353D01*
X224723Y122796D01*
X221221Y126298D01*
X219326Y130874D01*
X219326Y135826D01*
X221127Y140173D01*
X221137Y140217D01*
X221156Y140259D01*
X221165Y140336D01*
X221183Y140412D01*
X221179Y140458D01*
X221184Y140503D01*
X221167Y140580D01*
X221160Y140657D01*
X221141Y140699D01*
X221131Y140744D01*
X221091Y140811D01*
X221060Y140882D01*
X221029Y140916D01*
X221005Y140955D01*
X220946Y141006D01*
X220893Y141063D01*
X220853Y141085D01*
X220818Y141115D01*
X220746Y141144D01*
X220678Y141181D01*
X220633Y141190D01*
X220590Y141207D01*
X220454Y141222D01*
X220436Y141225D01*
X220431Y141224D01*
X220423Y141225D01*
X205092Y141225D01*
X197062Y149255D01*
X196988Y149308D01*
X196919Y149368D01*
X196889Y149380D01*
X196862Y149399D01*
X196775Y149426D01*
X196691Y149460D01*
X196650Y149464D01*
X196627Y149471D01*
X196595Y149470D01*
X196524Y149478D01*
X195637Y149478D01*
X193396Y150406D01*
X191681Y152121D01*
X190753Y154362D01*
X190753Y156788D01*
X191681Y159029D01*
X193396Y160744D01*
X195637Y161672D01*
X198063Y161672D01*
X200304Y160744D01*
X202019Y159029D01*
X202947Y156788D01*
X202947Y155901D01*
X202961Y155811D01*
X202969Y155720D01*
X202981Y155690D01*
X202986Y155658D01*
X203029Y155578D01*
X203065Y155494D01*
X203091Y155462D01*
X203102Y155441D01*
X203125Y155419D01*
X203170Y155363D01*
X208447Y150086D01*
X208521Y150033D01*
X208590Y149973D01*
X208620Y149961D01*
X208647Y149942D01*
X208734Y149915D01*
X208818Y149881D01*
X208859Y149877D01*
X208882Y149870D01*
X208914Y149871D01*
X208985Y149863D01*
X221219Y149863D01*
X221290Y149874D01*
X221362Y149876D01*
X221411Y149894D01*
X221462Y149902D01*
X221525Y149936D01*
X221593Y149961D01*
X221633Y149993D01*
X221679Y150018D01*
X221729Y150069D01*
X221785Y150114D01*
X221813Y150158D01*
X221849Y150196D01*
X221879Y150261D01*
X221918Y150321D01*
X221930Y150372D01*
X221952Y150419D01*
X221960Y150490D01*
X221978Y150560D01*
X221974Y150612D01*
X221980Y150663D01*
X221964Y150734D01*
X221959Y150805D01*
X221938Y150853D01*
X221927Y150904D01*
X221890Y150965D01*
X221862Y151031D01*
X221818Y151087D01*
X221801Y151115D01*
X221783Y151130D01*
X221758Y151162D01*
X221221Y151698D01*
X219326Y156274D01*
X219326Y161226D01*
X221221Y165802D01*
X221252Y165832D01*
X221293Y165890D01*
X221343Y165942D01*
X221365Y165989D01*
X221395Y166031D01*
X221416Y166100D01*
X221446Y166165D01*
X221452Y166217D01*
X221467Y166266D01*
X221466Y166338D01*
X221474Y166409D01*
X221462Y166460D01*
X221461Y166512D01*
X221437Y166580D01*
X221421Y166650D01*
X221395Y166695D01*
X221377Y166743D01*
X221332Y166799D01*
X221295Y166861D01*
X221256Y166895D01*
X221223Y166935D01*
X221163Y166974D01*
X221108Y167021D01*
X221060Y167040D01*
X221016Y167068D01*
X220947Y167086D01*
X220880Y167113D01*
X220809Y167121D01*
X220778Y167129D01*
X220754Y167127D01*
X220713Y167131D01*
X217286Y167131D01*
X211581Y172836D01*
X211581Y195348D01*
X211567Y195439D01*
X211559Y195529D01*
X211547Y195559D01*
X211542Y195591D01*
X211499Y195672D01*
X211463Y195756D01*
X211437Y195788D01*
X211426Y195809D01*
X211403Y195831D01*
X211358Y195887D01*
X201167Y206078D01*
X201167Y218684D01*
X201153Y218774D01*
X201145Y218865D01*
X201133Y218894D01*
X201128Y218926D01*
X201085Y219007D01*
X201049Y219091D01*
X201023Y219123D01*
X201012Y219144D01*
X200989Y219166D01*
X200944Y219222D01*
X197303Y222863D01*
X197229Y222917D01*
X197159Y222976D01*
X197129Y222988D01*
X197103Y223007D01*
X197016Y223034D01*
X196931Y223068D01*
X196890Y223072D01*
X196868Y223079D01*
X196836Y223078D01*
X196765Y223086D01*
X194246Y223086D01*
X188161Y229171D01*
X188161Y237775D01*
X189133Y238747D01*
X189186Y238821D01*
X189246Y238891D01*
X189258Y238921D01*
X189277Y238947D01*
X189304Y239034D01*
X189338Y239119D01*
X189342Y239160D01*
X189349Y239182D01*
X189348Y239214D01*
X189356Y239286D01*
X189356Y241989D01*
X189342Y242079D01*
X189334Y242170D01*
X189322Y242200D01*
X189317Y242232D01*
X189274Y242313D01*
X189238Y242397D01*
X189212Y242429D01*
X189201Y242449D01*
X189178Y242472D01*
X189133Y242528D01*
X188506Y243154D01*
X187578Y245395D01*
X187578Y247821D01*
X188506Y250062D01*
X190221Y251777D01*
X192462Y252705D01*
X194888Y252705D01*
X197129Y251777D01*
X198844Y250062D01*
X199772Y247821D01*
X199772Y245395D01*
X198844Y243154D01*
X198217Y242528D01*
X198164Y242454D01*
X198104Y242384D01*
X198092Y242354D01*
X198073Y242328D01*
X198046Y242241D01*
X198012Y242156D01*
X198008Y242115D01*
X198001Y242093D01*
X198002Y242061D01*
X197994Y241989D01*
X197994Y240331D01*
X197997Y240311D01*
X197995Y240292D01*
X198017Y240190D01*
X198033Y240088D01*
X198043Y240071D01*
X198047Y240051D01*
X198100Y239962D01*
X198149Y239871D01*
X198163Y239857D01*
X198173Y239840D01*
X198252Y239773D01*
X198327Y239702D01*
X198345Y239693D01*
X198360Y239680D01*
X198456Y239641D01*
X198550Y239598D01*
X198570Y239596D01*
X198588Y239588D01*
X198755Y239570D01*
X199761Y239570D01*
X202002Y238642D01*
X203717Y236927D01*
X204645Y234686D01*
X204645Y233799D01*
X204660Y233709D01*
X204667Y233618D01*
X204679Y233588D01*
X204685Y233557D01*
X204727Y233476D01*
X204763Y233392D01*
X204789Y233360D01*
X204800Y233339D01*
X204823Y233317D01*
X204868Y233261D01*
X209425Y228704D01*
X209499Y228650D01*
X209569Y228591D01*
X209599Y228579D01*
X209625Y228560D01*
X209712Y228533D01*
X209797Y228499D01*
X209838Y228495D01*
X209860Y228488D01*
X209892Y228489D01*
X209963Y228481D01*
X211339Y228481D01*
X213869Y225951D01*
X213869Y211654D01*
X213883Y211564D01*
X213891Y211473D01*
X213903Y211443D01*
X213908Y211411D01*
X213951Y211331D01*
X213987Y211247D01*
X214013Y211215D01*
X214024Y211194D01*
X214047Y211172D01*
X214068Y211145D01*
X214071Y211140D01*
X214074Y211138D01*
X214092Y211116D01*
X218027Y207181D01*
X218085Y207139D01*
X218137Y207090D01*
X218184Y207068D01*
X218226Y207037D01*
X218295Y207016D01*
X218360Y206986D01*
X218412Y206980D01*
X218462Y206965D01*
X218533Y206967D01*
X218604Y206959D01*
X218655Y206970D01*
X218707Y206971D01*
X218775Y206996D01*
X218845Y207011D01*
X218890Y207038D01*
X218938Y207056D01*
X218994Y207101D01*
X219056Y207137D01*
X219090Y207177D01*
X219130Y207209D01*
X219169Y207270D01*
X219216Y207324D01*
X219235Y207373D01*
X219263Y207416D01*
X219281Y207486D01*
X219308Y207552D01*
X219316Y207624D01*
X219324Y207655D01*
X219322Y207678D01*
X219326Y207719D01*
X219326Y212026D01*
X221221Y216602D01*
X224723Y220104D01*
X229017Y221882D01*
X229103Y221935D01*
X229192Y221984D01*
X229207Y222000D01*
X229226Y222012D01*
X229290Y222089D01*
X229359Y222164D01*
X229369Y222184D01*
X229383Y222201D01*
X229419Y222295D01*
X229461Y222388D01*
X229463Y222410D01*
X229471Y222431D01*
X229475Y222532D01*
X229485Y222633D01*
X229480Y222654D01*
X229481Y222676D01*
X229453Y222773D01*
X229430Y222872D01*
X229419Y222891D01*
X229413Y222913D01*
X229355Y222996D01*
X229302Y223082D01*
X229285Y223096D01*
X229272Y223115D01*
X229191Y223175D01*
X229114Y223240D01*
X229089Y223251D01*
X229075Y223261D01*
X229044Y223272D01*
X228961Y223309D01*
X227191Y223884D01*
X225517Y224737D01*
X223996Y225842D01*
X222667Y227171D01*
X221562Y228692D01*
X220709Y230366D01*
X220128Y232154D01*
X219927Y233427D01*
X231013Y233427D01*
X231033Y233430D01*
X231052Y233428D01*
X231154Y233450D01*
X231256Y233467D01*
X231273Y233476D01*
X231293Y233480D01*
X231382Y233533D01*
X231473Y233582D01*
X231487Y233596D01*
X231504Y233606D01*
X231571Y233685D01*
X231642Y233760D01*
X231651Y233778D01*
X231664Y233793D01*
X231702Y233889D01*
X231746Y233983D01*
X231748Y234003D01*
X231756Y234021D01*
X231774Y234188D01*
X231774Y234951D01*
X231776Y234951D01*
X231776Y234188D01*
X231779Y234168D01*
X231777Y234149D01*
X231799Y234047D01*
X231816Y233945D01*
X231825Y233928D01*
X231829Y233908D01*
X231882Y233819D01*
X231931Y233728D01*
X231945Y233714D01*
X231955Y233697D01*
X232034Y233630D01*
X232109Y233559D01*
X232127Y233550D01*
X232142Y233537D01*
X232238Y233498D01*
X232332Y233455D01*
X232352Y233453D01*
X232370Y233445D01*
X232537Y233427D01*
X243623Y233427D01*
X243422Y232154D01*
X242841Y230366D01*
X241988Y228692D01*
X240883Y227171D01*
X239554Y225842D01*
X238033Y224737D01*
X236359Y223884D01*
X234589Y223309D01*
X234499Y223263D01*
X234407Y223222D01*
X234390Y223207D01*
X234371Y223196D01*
X234300Y223124D01*
X234226Y223055D01*
X234215Y223036D01*
X234200Y223020D01*
X234156Y222928D01*
X234107Y222840D01*
X234103Y222818D01*
X234094Y222798D01*
X234081Y222697D01*
X234063Y222598D01*
X234067Y222576D01*
X234064Y222554D01*
X234084Y222455D01*
X234099Y222354D01*
X234109Y222334D01*
X234114Y222313D01*
X234165Y222226D01*
X234211Y222135D01*
X234227Y222119D01*
X234238Y222100D01*
X234314Y222034D01*
X234386Y221963D01*
X234410Y221949D01*
X234423Y221939D01*
X234453Y221926D01*
X234533Y221882D01*
X238827Y220104D01*
X242329Y216602D01*
X243266Y214339D01*
X243328Y214239D01*
X243387Y214139D01*
X243392Y214135D01*
X243395Y214130D01*
X243486Y214055D01*
X243574Y213979D01*
X243580Y213977D01*
X243585Y213973D01*
X243693Y213931D01*
X243802Y213887D01*
X243810Y213886D01*
X243815Y213885D01*
X243833Y213884D01*
X243969Y213869D01*
X303356Y213869D01*
X303446Y213883D01*
X303537Y213891D01*
X303567Y213903D01*
X303599Y213908D01*
X303680Y213951D01*
X303764Y213987D01*
X303796Y214013D01*
X303816Y214024D01*
X303839Y214047D01*
X303895Y214092D01*
X304521Y214719D01*
X306762Y215647D01*
X309188Y215647D01*
X311429Y214719D01*
X312055Y214092D01*
X312129Y214039D01*
X312199Y213979D01*
X312229Y213967D01*
X312255Y213948D01*
X312342Y213921D01*
X312427Y213887D01*
X312468Y213883D01*
X312490Y213876D01*
X312522Y213877D01*
X312594Y213869D01*
X353496Y213869D01*
X353586Y213883D01*
X353677Y213891D01*
X353707Y213903D01*
X353739Y213908D01*
X353819Y213951D01*
X353903Y213987D01*
X353935Y214013D01*
X353956Y214024D01*
X353978Y214047D01*
X354034Y214092D01*
X366511Y226569D01*
X373113Y226569D01*
X373184Y226580D01*
X373256Y226582D01*
X373305Y226600D01*
X373356Y226608D01*
X373419Y226642D01*
X373487Y226667D01*
X373527Y226699D01*
X373573Y226724D01*
X373623Y226776D01*
X373679Y226820D01*
X373707Y226864D01*
X373743Y226902D01*
X373773Y226967D01*
X373812Y227027D01*
X373824Y227078D01*
X373846Y227125D01*
X373854Y227196D01*
X373872Y227266D01*
X373868Y227318D01*
X373874Y227369D01*
X373858Y227440D01*
X373853Y227511D01*
X373832Y227559D01*
X373821Y227610D01*
X373784Y227671D01*
X373756Y227737D01*
X373712Y227793D01*
X373695Y227821D01*
X373677Y227836D01*
X373652Y227868D01*
X373621Y227898D01*
X371726Y232474D01*
X371726Y237426D01*
X373621Y242002D01*
X377123Y245504D01*
X380607Y246947D01*
X380668Y246985D01*
X380734Y247014D01*
X380772Y247049D01*
X380817Y247076D01*
X380862Y247132D01*
X380915Y247180D01*
X380940Y247226D01*
X380973Y247266D01*
X380999Y247333D01*
X381034Y247396D01*
X381043Y247447D01*
X381062Y247495D01*
X381065Y247567D01*
X381077Y247638D01*
X381070Y247689D01*
X381072Y247741D01*
X381052Y247810D01*
X381042Y247881D01*
X381018Y247927D01*
X381003Y247977D01*
X380963Y248036D01*
X380930Y248100D01*
X380893Y248137D01*
X380863Y248179D01*
X380806Y248222D01*
X380754Y248272D01*
X380692Y248307D01*
X380666Y248326D01*
X380644Y248333D01*
X380607Y248353D01*
X377123Y249796D01*
X373621Y253298D01*
X372684Y255561D01*
X372622Y255661D01*
X372563Y255761D01*
X372558Y255765D01*
X372555Y255770D01*
X372464Y255845D01*
X372376Y255921D01*
X372370Y255923D01*
X372365Y255927D01*
X372257Y255969D01*
X372148Y256013D01*
X372140Y256014D01*
X372135Y256015D01*
X372117Y256016D01*
X371981Y256031D01*
X360161Y256031D01*
X322284Y293908D01*
X322210Y293961D01*
X322141Y294021D01*
X322111Y294033D01*
X322084Y294052D01*
X321997Y294079D01*
X321913Y294113D01*
X321872Y294117D01*
X321849Y294124D01*
X321817Y294123D01*
X321746Y294131D01*
X242837Y294131D01*
X242766Y294120D01*
X242694Y294118D01*
X242645Y294100D01*
X242594Y294092D01*
X242531Y294058D01*
X242463Y294033D01*
X242423Y294001D01*
X242377Y293976D01*
X242327Y293924D01*
X242271Y293880D01*
X242243Y293836D01*
X242207Y293798D01*
X242177Y293733D01*
X242138Y293673D01*
X242126Y293622D01*
X242104Y293575D01*
X242096Y293504D01*
X242078Y293434D01*
X242082Y293382D01*
X242076Y293331D01*
X242092Y293260D01*
X242097Y293189D01*
X242118Y293141D01*
X242129Y293090D01*
X242166Y293029D01*
X242194Y292963D01*
X242238Y292907D01*
X242255Y292879D01*
X242273Y292864D01*
X242298Y292832D01*
X242329Y292802D01*
X244224Y288226D01*
X244224Y283274D01*
X242329Y278698D01*
X238827Y275196D01*
X234533Y273418D01*
X234447Y273365D01*
X234358Y273316D01*
X234343Y273300D01*
X234324Y273288D01*
X234260Y273211D01*
X234191Y273136D01*
X234181Y273116D01*
X234167Y273099D01*
X234131Y273005D01*
X234089Y272912D01*
X234087Y272890D01*
X234079Y272869D01*
X234075Y272768D01*
X234065Y272667D01*
X234070Y272646D01*
X234069Y272624D01*
X234097Y272527D01*
X234120Y272428D01*
X234131Y272409D01*
X234137Y272387D01*
X234195Y272304D01*
X234248Y272218D01*
X234265Y272204D01*
X234278Y272185D01*
X234359Y272125D01*
X234436Y272060D01*
X234461Y272049D01*
X234475Y272039D01*
X234506Y272028D01*
X234589Y271991D01*
X236359Y271416D01*
X238033Y270563D01*
X239554Y269458D01*
X240883Y268129D01*
X241988Y266608D01*
X242841Y264934D01*
X243422Y263146D01*
X243623Y261873D01*
X232537Y261873D01*
X232517Y261870D01*
X232498Y261872D01*
X232396Y261850D01*
X232294Y261833D01*
X232277Y261824D01*
X232257Y261820D01*
X232168Y261767D01*
X232077Y261718D01*
X232063Y261704D01*
X232046Y261694D01*
X231979Y261615D01*
X231908Y261540D01*
X231899Y261522D01*
X231886Y261507D01*
X231848Y261411D01*
X231804Y261317D01*
X231802Y261297D01*
X231794Y261279D01*
X231776Y261112D01*
X231776Y260349D01*
X231774Y260349D01*
X231774Y261112D01*
X231771Y261132D01*
X231773Y261151D01*
X231751Y261253D01*
X231734Y261355D01*
X231725Y261372D01*
X231721Y261392D01*
X231668Y261481D01*
X231619Y261572D01*
X231605Y261586D01*
X231595Y261603D01*
X231516Y261670D01*
X231441Y261741D01*
X231423Y261750D01*
X231408Y261763D01*
X231312Y261802D01*
X231218Y261845D01*
X231198Y261847D01*
X231180Y261855D01*
X231013Y261873D01*
X219927Y261873D01*
X220128Y263146D01*
X220709Y264934D01*
X221562Y266608D01*
X222667Y268129D01*
X223996Y269458D01*
X225517Y270563D01*
X227191Y271416D01*
X228961Y271991D01*
X229051Y272037D01*
X229143Y272078D01*
X229160Y272093D01*
X229179Y272104D01*
X229250Y272176D01*
X229324Y272245D01*
X229335Y272264D01*
X229350Y272280D01*
X229394Y272372D01*
X229443Y272460D01*
X229447Y272482D01*
X229456Y272502D01*
X229469Y272603D01*
X229487Y272702D01*
X229483Y272724D01*
X229486Y272746D01*
X229466Y272845D01*
X229451Y272946D01*
X229441Y272966D01*
X229436Y272987D01*
X229385Y273074D01*
X229339Y273165D01*
X229323Y273181D01*
X229312Y273200D01*
X229236Y273266D01*
X229164Y273337D01*
X229140Y273351D01*
X229127Y273361D01*
X229097Y273374D01*
X229017Y273418D01*
X224723Y275196D01*
X221221Y278698D01*
X219326Y283274D01*
X219326Y288226D01*
X221221Y292802D01*
X221252Y292832D01*
X221293Y292890D01*
X221343Y292942D01*
X221365Y292989D01*
X221395Y293031D01*
X221416Y293100D01*
X221446Y293165D01*
X221452Y293217D01*
X221467Y293266D01*
X221466Y293338D01*
X221474Y293409D01*
X221462Y293460D01*
X221461Y293512D01*
X221437Y293580D01*
X221421Y293650D01*
X221395Y293695D01*
X221377Y293743D01*
X221332Y293799D01*
X221295Y293861D01*
X221256Y293895D01*
X221223Y293935D01*
X221163Y293974D01*
X221108Y294021D01*
X221060Y294040D01*
X221016Y294068D01*
X220947Y294086D01*
X220880Y294113D01*
X220809Y294121D01*
X220778Y294129D01*
X220754Y294127D01*
X220713Y294131D01*
X204644Y294131D01*
X204554Y294117D01*
X204463Y294109D01*
X204433Y294097D01*
X204401Y294092D01*
X204320Y294049D01*
X204236Y294013D01*
X204204Y293987D01*
X204184Y293976D01*
X204161Y293953D01*
X204105Y293908D01*
X203479Y293281D01*
X201238Y292353D01*
X198812Y292353D01*
X196571Y293281D01*
X194856Y294996D01*
X193928Y297237D01*
X193928Y299663D01*
X194856Y301904D01*
X196571Y303619D01*
X198812Y304547D01*
X201238Y304547D01*
X203479Y303619D01*
X204105Y302992D01*
X204179Y302939D01*
X204249Y302879D01*
X204279Y302867D01*
X204305Y302848D01*
X204392Y302821D01*
X204477Y302787D01*
X204518Y302783D01*
X204540Y302776D01*
X204572Y302777D01*
X204644Y302769D01*
X220713Y302769D01*
X220784Y302780D01*
X220856Y302782D01*
X220905Y302800D01*
X220956Y302808D01*
X221019Y302842D01*
X221087Y302867D01*
X221127Y302899D01*
X221173Y302924D01*
X221223Y302976D01*
X221279Y303020D01*
X221307Y303064D01*
X221343Y303102D01*
X221373Y303167D01*
X221412Y303227D01*
X221424Y303278D01*
X221446Y303325D01*
X221454Y303396D01*
X221472Y303466D01*
X221468Y303518D01*
X221474Y303569D01*
X221458Y303640D01*
X221453Y303711D01*
X221432Y303759D01*
X221421Y303810D01*
X221384Y303871D01*
X221356Y303937D01*
X221312Y303993D01*
X221295Y304021D01*
X221277Y304036D01*
X221252Y304068D01*
X221221Y304098D01*
X219326Y308674D01*
X219326Y313626D01*
X221221Y318202D01*
X224723Y321704D01*
X229299Y323599D01*
X234251Y323599D01*
X238827Y321704D01*
X242329Y318202D01*
X244224Y313626D01*
X244224Y308674D01*
X242329Y304098D01*
X242298Y304068D01*
X242257Y304010D01*
X242207Y303958D01*
X242185Y303911D01*
X242155Y303869D01*
X242134Y303800D01*
X242104Y303735D01*
X242098Y303683D01*
X242083Y303634D01*
X242084Y303562D01*
X242076Y303491D01*
X242088Y303440D01*
X242089Y303388D01*
X242113Y303320D01*
X242129Y303250D01*
X242155Y303205D01*
X242173Y303157D01*
X242218Y303101D01*
X242255Y303039D01*
X242294Y303005D01*
X242327Y302965D01*
X242387Y302926D01*
X242442Y302879D01*
X242490Y302860D01*
X242534Y302832D01*
X242603Y302814D01*
X242670Y302787D01*
X242741Y302779D01*
X242772Y302771D01*
X242796Y302773D01*
X242837Y302769D01*
X325639Y302769D01*
X363516Y264892D01*
X363590Y264839D01*
X363659Y264779D01*
X363689Y264767D01*
X363716Y264748D01*
X363803Y264721D01*
X363887Y264687D01*
X363928Y264683D01*
X363951Y264676D01*
X363983Y264677D01*
X364054Y264669D01*
X371981Y264669D01*
X372096Y264688D01*
X372212Y264705D01*
X372217Y264707D01*
X372224Y264708D01*
X372326Y264763D01*
X372431Y264816D01*
X372435Y264821D01*
X372441Y264824D01*
X372521Y264908D01*
X372603Y264992D01*
X372607Y264998D01*
X372610Y265002D01*
X372618Y265019D01*
X372684Y265139D01*
X373621Y267402D01*
X377123Y270904D01*
X381417Y272682D01*
X381503Y272735D01*
X381592Y272784D01*
X381607Y272800D01*
X381626Y272812D01*
X381690Y272889D01*
X381759Y272964D01*
X381769Y272984D01*
X381783Y273001D01*
X381819Y273095D01*
X381861Y273188D01*
X381863Y273210D01*
X381871Y273231D01*
X381875Y273332D01*
X381885Y273433D01*
X381880Y273454D01*
X381881Y273476D01*
X381853Y273573D01*
X381830Y273672D01*
X381819Y273691D01*
X381813Y273713D01*
X381755Y273796D01*
X381702Y273882D01*
X381685Y273896D01*
X381672Y273915D01*
X381591Y273975D01*
X381514Y274040D01*
X381489Y274051D01*
X381475Y274061D01*
X381444Y274072D01*
X381361Y274109D01*
X379591Y274684D01*
X377917Y275537D01*
X376396Y276642D01*
X375067Y277971D01*
X373962Y279492D01*
X373109Y281166D01*
X372528Y282954D01*
X372327Y284227D01*
X383413Y284227D01*
X383433Y284230D01*
X383452Y284228D01*
X383554Y284250D01*
X383656Y284267D01*
X383673Y284276D01*
X383693Y284280D01*
X383782Y284333D01*
X383873Y284382D01*
X383887Y284396D01*
X383904Y284406D01*
X383971Y284485D01*
X384042Y284560D01*
X384051Y284578D01*
X384064Y284593D01*
X384102Y284689D01*
X384146Y284783D01*
X384148Y284803D01*
X384156Y284821D01*
X384174Y284988D01*
X384174Y286512D01*
X384171Y286532D01*
X384173Y286551D01*
X384151Y286653D01*
X384134Y286755D01*
X384125Y286772D01*
X384121Y286792D01*
X384068Y286881D01*
X384019Y286972D01*
X384005Y286986D01*
X383995Y287003D01*
X383916Y287070D01*
X383841Y287141D01*
X383823Y287150D01*
X383808Y287163D01*
X383712Y287202D01*
X383618Y287245D01*
X383598Y287247D01*
X383580Y287255D01*
X383413Y287273D01*
X372327Y287273D01*
X372528Y288546D01*
X373109Y290334D01*
X373962Y292008D01*
X375067Y293529D01*
X376396Y294858D01*
X377917Y295963D01*
X379591Y296816D01*
X381361Y297391D01*
X381451Y297437D01*
X381543Y297478D01*
X381560Y297493D01*
X381579Y297504D01*
X381650Y297576D01*
X381724Y297645D01*
X381735Y297664D01*
X381750Y297680D01*
X381794Y297772D01*
X381843Y297860D01*
X381847Y297882D01*
X381856Y297902D01*
X381869Y298003D01*
X381887Y298102D01*
X381883Y298124D01*
X381886Y298146D01*
X381866Y298245D01*
X381851Y298346D01*
X381841Y298366D01*
X381836Y298387D01*
X381785Y298474D01*
X381739Y298565D01*
X381723Y298581D01*
X381712Y298600D01*
X381636Y298666D01*
X381564Y298737D01*
X381540Y298751D01*
X381527Y298761D01*
X381497Y298774D01*
X381417Y298818D01*
X377123Y300596D01*
X373621Y304098D01*
X371726Y308674D01*
X371726Y313626D01*
X373621Y318202D01*
X377123Y321704D01*
X381699Y323599D01*
X386651Y323599D01*
X391227Y321704D01*
X394729Y318202D01*
X396624Y313626D01*
X396624Y308674D01*
X394729Y304098D01*
X391227Y300596D01*
X386933Y298818D01*
X386847Y298765D01*
X386758Y298716D01*
X386743Y298700D01*
X386724Y298688D01*
X386660Y298611D01*
X386591Y298536D01*
X386581Y298516D01*
X386567Y298499D01*
X386531Y298405D01*
X386489Y298312D01*
X386487Y298290D01*
X386479Y298269D01*
X386475Y298168D01*
X386465Y298067D01*
X386470Y298046D01*
X386469Y298024D01*
X386497Y297927D01*
X386520Y297828D01*
X386531Y297809D01*
X386537Y297787D01*
X386595Y297704D01*
X386648Y297618D01*
X386665Y297604D01*
X386678Y297585D01*
X386759Y297525D01*
X386836Y297460D01*
X386861Y297449D01*
X386875Y297439D01*
X386906Y297428D01*
X386989Y297391D01*
X388759Y296816D01*
X390433Y295963D01*
X391954Y294858D01*
X393283Y293529D01*
X394388Y292008D01*
X395241Y290334D01*
X395822Y288546D01*
X396023Y287273D01*
X384937Y287273D01*
X384917Y287270D01*
X384898Y287272D01*
X384796Y287250D01*
X384694Y287233D01*
X384677Y287224D01*
X384657Y287220D01*
X384568Y287167D01*
X384477Y287118D01*
X384463Y287104D01*
X384446Y287094D01*
X384379Y287015D01*
X384308Y286940D01*
X384299Y286922D01*
X384286Y286907D01*
X384248Y286811D01*
X384204Y286717D01*
X384202Y286697D01*
X384194Y286679D01*
X384176Y286512D01*
X384176Y284988D01*
X384179Y284968D01*
X384177Y284949D01*
X384199Y284847D01*
X384216Y284745D01*
X384225Y284728D01*
X384229Y284708D01*
X384282Y284619D01*
X384331Y284528D01*
X384345Y284514D01*
X384355Y284497D01*
X384434Y284430D01*
X384509Y284359D01*
X384527Y284350D01*
X384542Y284337D01*
X384638Y284298D01*
X384732Y284255D01*
X384752Y284253D01*
X384770Y284245D01*
X384937Y284227D01*
X396023Y284227D01*
X395822Y282954D01*
X395241Y281166D01*
X394388Y279492D01*
X393283Y277971D01*
X391954Y276642D01*
X390433Y275537D01*
X388759Y274684D01*
X386989Y274109D01*
X386899Y274063D01*
X386807Y274022D01*
X386790Y274007D01*
X386771Y273996D01*
X386700Y273924D01*
X386626Y273855D01*
X386615Y273836D01*
X386600Y273820D01*
X386556Y273728D01*
X386507Y273640D01*
X386503Y273618D01*
X386494Y273598D01*
X386481Y273497D01*
X386463Y273398D01*
X386467Y273376D01*
X386464Y273354D01*
X386484Y273255D01*
X386499Y273154D01*
X386509Y273134D01*
X386514Y273113D01*
X386565Y273026D01*
X386611Y272935D01*
X386627Y272919D01*
X386638Y272900D01*
X386714Y272834D01*
X386786Y272763D01*
X386810Y272749D01*
X386823Y272739D01*
X386853Y272726D01*
X386933Y272682D01*
X391227Y270904D01*
X394729Y267402D01*
X396624Y262826D01*
X396624Y257874D01*
X394729Y253298D01*
X391227Y249796D01*
X387743Y248353D01*
X387682Y248316D01*
X387616Y248286D01*
X387578Y248251D01*
X387533Y248224D01*
X387488Y248169D01*
X387435Y248120D01*
X387410Y248074D01*
X387377Y248034D01*
X387351Y247967D01*
X387316Y247904D01*
X387307Y247853D01*
X387288Y247805D01*
X387285Y247733D01*
X387273Y247662D01*
X387280Y247611D01*
X387278Y247559D01*
X387298Y247490D01*
X387308Y247419D01*
X387332Y247373D01*
X387347Y247323D01*
X387387Y247264D01*
X387420Y247200D01*
X387457Y247163D01*
X387487Y247121D01*
X387544Y247078D01*
X387596Y247028D01*
X387658Y246993D01*
X387684Y246974D01*
X387706Y246967D01*
X387743Y246947D01*
X391227Y245504D01*
X394729Y242002D01*
X396624Y237426D01*
X396624Y232474D01*
X394729Y227898D01*
X394698Y227868D01*
X394657Y227810D01*
X394607Y227758D01*
X394585Y227711D01*
X394555Y227669D01*
X394534Y227600D01*
X394504Y227535D01*
X394498Y227483D01*
X394483Y227434D01*
X394484Y227362D01*
X394476Y227291D01*
X394488Y227240D01*
X394489Y227188D01*
X394513Y227120D01*
X394529Y227050D01*
X394555Y227005D01*
X394573Y226957D01*
X394618Y226901D01*
X394655Y226839D01*
X394694Y226805D01*
X394727Y226765D01*
X394787Y226726D01*
X394842Y226679D01*
X394890Y226660D01*
X394934Y226632D01*
X395003Y226614D01*
X395070Y226587D01*
X395141Y226579D01*
X395172Y226571D01*
X395196Y226573D01*
X395237Y226569D01*
X408936Y226569D01*
X408948Y226571D01*
X408959Y226569D01*
X409068Y226590D01*
X409179Y226608D01*
X409189Y226614D01*
X409201Y226616D01*
X409298Y226672D01*
X409396Y226724D01*
X409404Y226732D01*
X409415Y226738D01*
X409489Y226821D01*
X409565Y226902D01*
X409570Y226913D01*
X409578Y226922D01*
X409622Y227024D01*
X409669Y227125D01*
X409670Y227137D01*
X409675Y227148D01*
X409684Y227259D01*
X409696Y227369D01*
X409693Y227381D01*
X409694Y227393D01*
X409667Y227501D01*
X409644Y227610D01*
X409638Y227620D01*
X409635Y227632D01*
X409552Y227777D01*
X408887Y228692D01*
X408034Y230366D01*
X407453Y232154D01*
X407252Y233427D01*
X418338Y233427D01*
X418358Y233430D01*
X418377Y233428D01*
X418479Y233450D01*
X418581Y233467D01*
X418598Y233476D01*
X418618Y233480D01*
X418707Y233533D01*
X418798Y233582D01*
X418812Y233596D01*
X418829Y233606D01*
X418896Y233685D01*
X418967Y233760D01*
X418976Y233778D01*
X418989Y233793D01*
X419027Y233889D01*
X419071Y233983D01*
X419073Y234003D01*
X419081Y234021D01*
X419099Y234188D01*
X419099Y234951D01*
X419101Y234951D01*
X419101Y234188D01*
X419104Y234168D01*
X419102Y234149D01*
X419124Y234047D01*
X419141Y233945D01*
X419150Y233928D01*
X419154Y233908D01*
X419207Y233819D01*
X419256Y233728D01*
X419270Y233714D01*
X419280Y233697D01*
X419359Y233630D01*
X419434Y233559D01*
X419452Y233550D01*
X419467Y233537D01*
X419563Y233498D01*
X419657Y233455D01*
X419677Y233453D01*
X419695Y233445D01*
X419862Y233427D01*
X430948Y233427D01*
X430747Y232154D01*
X430166Y230366D01*
X429313Y228692D01*
X428648Y227777D01*
X428643Y227767D01*
X428635Y227758D01*
X428588Y227657D01*
X428538Y227558D01*
X428536Y227546D01*
X428531Y227535D01*
X428519Y227425D01*
X428503Y227314D01*
X428505Y227302D01*
X428504Y227291D01*
X428528Y227182D01*
X428548Y227072D01*
X428554Y227062D01*
X428556Y227050D01*
X428613Y226954D01*
X428667Y226857D01*
X428676Y226849D01*
X428682Y226839D01*
X428767Y226767D01*
X428849Y226692D01*
X428860Y226687D01*
X428869Y226679D01*
X428973Y226637D01*
X429074Y226593D01*
X429086Y226592D01*
X429098Y226587D01*
X429264Y226569D01*
X560438Y226569D01*
X560509Y226580D01*
X560581Y226582D01*
X560630Y226600D01*
X560681Y226608D01*
X560744Y226642D01*
X560812Y226667D01*
X560852Y226699D01*
X560898Y226724D01*
X560948Y226776D01*
X561004Y226820D01*
X561032Y226864D01*
X561068Y226902D01*
X561098Y226967D01*
X561137Y227027D01*
X561149Y227078D01*
X561171Y227125D01*
X561179Y227196D01*
X561197Y227266D01*
X561193Y227318D01*
X561199Y227369D01*
X561183Y227440D01*
X561178Y227511D01*
X561157Y227559D01*
X561146Y227610D01*
X561109Y227671D01*
X561081Y227737D01*
X561037Y227793D01*
X561020Y227821D01*
X561002Y227836D01*
X560977Y227868D01*
X560946Y227898D01*
X559051Y232474D01*
X559051Y237426D01*
X560946Y242002D01*
X564448Y245504D01*
X567932Y246947D01*
X567993Y246985D01*
X568059Y247014D01*
X568097Y247049D01*
X568142Y247076D01*
X568187Y247132D01*
X568240Y247180D01*
X568265Y247226D01*
X568298Y247266D01*
X568324Y247333D01*
X568359Y247396D01*
X568368Y247447D01*
X568387Y247495D01*
X568390Y247567D01*
X568402Y247638D01*
X568395Y247689D01*
X568397Y247741D01*
X568377Y247810D01*
X568367Y247881D01*
X568343Y247927D01*
X568328Y247977D01*
X568288Y248036D01*
X568255Y248100D01*
X568218Y248137D01*
X568188Y248179D01*
X568131Y248222D01*
X568079Y248272D01*
X568017Y248307D01*
X567991Y248326D01*
X567969Y248333D01*
X567932Y248353D01*
X564448Y249796D01*
X560946Y253298D01*
X559051Y257874D01*
X559051Y262826D01*
X560946Y267402D01*
X564448Y270904D01*
X568742Y272682D01*
X568828Y272735D01*
X568917Y272784D01*
X568932Y272800D01*
X568951Y272812D01*
X569015Y272889D01*
X569084Y272964D01*
X569093Y272984D01*
X569108Y273001D01*
X569144Y273095D01*
X569186Y273188D01*
X569188Y273210D01*
X569196Y273231D01*
X569200Y273332D01*
X569210Y273433D01*
X569205Y273454D01*
X569206Y273476D01*
X569178Y273573D01*
X569155Y273672D01*
X569144Y273691D01*
X569138Y273713D01*
X569080Y273796D01*
X569027Y273882D01*
X569010Y273896D01*
X568997Y273915D01*
X568916Y273975D01*
X568839Y274040D01*
X568813Y274051D01*
X568800Y274061D01*
X568769Y274072D01*
X568686Y274109D01*
X566916Y274684D01*
X565242Y275537D01*
X563721Y276642D01*
X562392Y277971D01*
X561287Y279492D01*
X560434Y281166D01*
X559853Y282954D01*
X559652Y284227D01*
X570738Y284227D01*
X570758Y284230D01*
X570777Y284228D01*
X570879Y284250D01*
X570981Y284267D01*
X570998Y284276D01*
X571018Y284280D01*
X571107Y284333D01*
X571198Y284382D01*
X571212Y284396D01*
X571229Y284406D01*
X571296Y284485D01*
X571367Y284560D01*
X571376Y284578D01*
X571389Y284593D01*
X571427Y284689D01*
X571471Y284783D01*
X571473Y284803D01*
X571481Y284821D01*
X571499Y284988D01*
X571499Y286512D01*
X571496Y286532D01*
X571498Y286551D01*
X571476Y286653D01*
X571459Y286755D01*
X571450Y286772D01*
X571446Y286792D01*
X571393Y286881D01*
X571344Y286972D01*
X571330Y286986D01*
X571320Y287003D01*
X571241Y287070D01*
X571166Y287141D01*
X571148Y287150D01*
X571133Y287163D01*
X571037Y287202D01*
X570943Y287245D01*
X570923Y287247D01*
X570905Y287255D01*
X570738Y287273D01*
X559652Y287273D01*
X559853Y288546D01*
X560434Y290334D01*
X561287Y292008D01*
X562392Y293529D01*
X563721Y294858D01*
X565242Y295963D01*
X566916Y296816D01*
X568686Y297391D01*
X568776Y297437D01*
X568868Y297478D01*
X568885Y297493D01*
X568904Y297504D01*
X568975Y297576D01*
X569049Y297645D01*
X569060Y297664D01*
X569075Y297680D01*
X569119Y297771D01*
X569168Y297860D01*
X569172Y297882D01*
X569181Y297902D01*
X569194Y298003D01*
X569212Y298102D01*
X569208Y298124D01*
X569211Y298146D01*
X569191Y298245D01*
X569176Y298346D01*
X569166Y298366D01*
X569161Y298387D01*
X569110Y298475D01*
X569064Y298565D01*
X569048Y298581D01*
X569037Y298600D01*
X568961Y298666D01*
X568889Y298737D01*
X568865Y298751D01*
X568852Y298761D01*
X568822Y298774D01*
X568742Y298818D01*
X564448Y300596D01*
X560946Y304098D01*
X559051Y308674D01*
X559051Y313626D01*
X560946Y318202D01*
X564448Y321704D01*
X569024Y323599D01*
X573976Y323599D01*
X578552Y321704D01*
X582054Y318202D01*
X583949Y313626D01*
X583949Y308674D01*
X582054Y304098D01*
X578552Y300596D01*
X574258Y298818D01*
X574172Y298765D01*
X574083Y298716D01*
X574068Y298700D01*
X574049Y298688D01*
X573985Y298611D01*
X573916Y298536D01*
X573907Y298516D01*
X573892Y298499D01*
X573856Y298405D01*
X573814Y298312D01*
X573812Y298290D01*
X573804Y298269D01*
X573800Y298168D01*
X573790Y298067D01*
X573795Y298046D01*
X573794Y298024D01*
X573822Y297927D01*
X573845Y297828D01*
X573856Y297809D01*
X573862Y297787D01*
X573920Y297704D01*
X573973Y297618D01*
X573990Y297604D01*
X574003Y297585D01*
X574084Y297525D01*
X574161Y297460D01*
X574187Y297449D01*
X574200Y297439D01*
X574231Y297428D01*
X574314Y297391D01*
X576084Y296816D01*
X577758Y295963D01*
X579279Y294858D01*
X580608Y293529D01*
X581713Y292008D01*
X582566Y290334D01*
X583147Y288546D01*
X583348Y287273D01*
X572262Y287273D01*
X572242Y287270D01*
X572223Y287272D01*
X572121Y287250D01*
X572019Y287233D01*
X572002Y287224D01*
X571982Y287220D01*
X571893Y287167D01*
X571802Y287118D01*
X571788Y287104D01*
X571771Y287094D01*
X571704Y287015D01*
X571633Y286940D01*
X571624Y286922D01*
X571611Y286907D01*
X571573Y286811D01*
X571529Y286717D01*
X571527Y286697D01*
X571519Y286679D01*
X571501Y286512D01*
X571501Y284988D01*
X571504Y284968D01*
X571502Y284949D01*
X571524Y284847D01*
X571541Y284745D01*
X571550Y284728D01*
X571554Y284708D01*
X571607Y284619D01*
X571656Y284528D01*
X571670Y284514D01*
X571680Y284497D01*
X571759Y284430D01*
X571834Y284359D01*
X571852Y284350D01*
X571867Y284337D01*
X571963Y284298D01*
X572057Y284255D01*
X572077Y284253D01*
X572095Y284245D01*
X572262Y284227D01*
X583348Y284227D01*
X583147Y282954D01*
X582566Y281166D01*
X581713Y279492D01*
X580608Y277971D01*
X579279Y276642D01*
X577758Y275537D01*
X576084Y274684D01*
X574314Y274109D01*
X574224Y274063D01*
X574132Y274022D01*
X574115Y274007D01*
X574096Y273996D01*
X574025Y273924D01*
X573951Y273855D01*
X573940Y273836D01*
X573925Y273820D01*
X573881Y273729D01*
X573832Y273640D01*
X573828Y273618D01*
X573819Y273598D01*
X573806Y273497D01*
X573788Y273398D01*
X573792Y273376D01*
X573789Y273354D01*
X573809Y273255D01*
X573824Y273154D01*
X573834Y273134D01*
X573839Y273113D01*
X573890Y273025D01*
X573936Y272935D01*
X573952Y272919D01*
X573963Y272900D01*
X574039Y272834D01*
X574111Y272763D01*
X574135Y272749D01*
X574148Y272739D01*
X574178Y272726D01*
X574258Y272682D01*
X578552Y270904D01*
X582054Y267402D01*
X583949Y262826D01*
X583949Y257874D01*
X582054Y253298D01*
X578552Y249796D01*
X575068Y248353D01*
X575007Y248316D01*
X574941Y248286D01*
X574903Y248251D01*
X574858Y248224D01*
X574813Y248169D01*
X574760Y248120D01*
X574735Y248074D01*
X574702Y248034D01*
X574676Y247967D01*
X574641Y247904D01*
X574632Y247853D01*
X574613Y247805D01*
X574610Y247733D01*
X574598Y247662D01*
X574605Y247611D01*
X574603Y247559D01*
X574623Y247490D01*
X574633Y247419D01*
X574657Y247373D01*
X574672Y247323D01*
X574712Y247264D01*
X574745Y247200D01*
X574782Y247163D01*
X574812Y247121D01*
X574869Y247078D01*
X574921Y247028D01*
X574983Y246993D01*
X575009Y246974D01*
X575031Y246967D01*
X575068Y246947D01*
X578552Y245504D01*
X582054Y242002D01*
X583949Y237426D01*
X583949Y232474D01*
X582054Y227898D01*
X582023Y227868D01*
X581982Y227810D01*
X581932Y227758D01*
X581910Y227711D01*
X581880Y227669D01*
X581859Y227600D01*
X581829Y227535D01*
X581823Y227483D01*
X581808Y227434D01*
X581809Y227362D01*
X581801Y227291D01*
X581813Y227240D01*
X581814Y227188D01*
X581838Y227120D01*
X581854Y227050D01*
X581880Y227005D01*
X581898Y226957D01*
X581943Y226901D01*
X581980Y226839D01*
X582019Y226805D01*
X582052Y226765D01*
X582112Y226726D01*
X582167Y226679D01*
X582215Y226660D01*
X582259Y226632D01*
X582328Y226614D01*
X582395Y226587D01*
X582466Y226579D01*
X582497Y226571D01*
X582521Y226573D01*
X582562Y226569D01*
X596261Y226569D01*
X596273Y226571D01*
X596284Y226569D01*
X596393Y226590D01*
X596504Y226608D01*
X596514Y226614D01*
X596526Y226616D01*
X596623Y226672D01*
X596721Y226724D01*
X596729Y226732D01*
X596740Y226738D01*
X596814Y226821D01*
X596890Y226902D01*
X596895Y226913D01*
X596903Y226922D01*
X596947Y227024D01*
X596994Y227125D01*
X596995Y227137D01*
X597000Y227148D01*
X597009Y227259D01*
X597021Y227369D01*
X597018Y227381D01*
X597019Y227393D01*
X596992Y227501D01*
X596969Y227610D01*
X596963Y227620D01*
X596960Y227632D01*
X596877Y227777D01*
X596212Y228692D01*
X595359Y230366D01*
X594778Y232154D01*
X594577Y233427D01*
X605663Y233427D01*
X605683Y233430D01*
X605702Y233428D01*
X605804Y233450D01*
X605906Y233467D01*
X605923Y233476D01*
X605943Y233480D01*
X606032Y233533D01*
X606123Y233582D01*
X606137Y233596D01*
X606154Y233606D01*
X606221Y233685D01*
X606292Y233760D01*
X606301Y233778D01*
X606314Y233793D01*
X606352Y233889D01*
X606396Y233983D01*
X606398Y234003D01*
X606406Y234021D01*
X606424Y234188D01*
X606424Y234951D01*
X606426Y234951D01*
X606426Y234188D01*
X606429Y234168D01*
X606427Y234149D01*
X606449Y234047D01*
X606466Y233945D01*
X606475Y233928D01*
X606479Y233908D01*
X606532Y233819D01*
X606581Y233728D01*
X606595Y233714D01*
X606605Y233697D01*
X606684Y233630D01*
X606759Y233559D01*
X606777Y233550D01*
X606792Y233537D01*
X606888Y233498D01*
X606982Y233455D01*
X607002Y233453D01*
X607020Y233445D01*
X607187Y233427D01*
X618273Y233427D01*
X618072Y232154D01*
X617491Y230366D01*
X616638Y228692D01*
X615973Y227777D01*
X615968Y227767D01*
X615960Y227758D01*
X615913Y227657D01*
X615863Y227558D01*
X615861Y227546D01*
X615856Y227535D01*
X615844Y227425D01*
X615828Y227314D01*
X615830Y227302D01*
X615829Y227291D01*
X615853Y227182D01*
X615873Y227072D01*
X615879Y227062D01*
X615881Y227050D01*
X615938Y226954D01*
X615992Y226857D01*
X616001Y226849D01*
X616007Y226839D01*
X616092Y226767D01*
X616174Y226692D01*
X616185Y226687D01*
X616194Y226679D01*
X616298Y226637D01*
X616399Y226593D01*
X616411Y226592D01*
X616423Y226587D01*
X616589Y226569D01*
X747763Y226569D01*
X747834Y226580D01*
X747906Y226582D01*
X747955Y226600D01*
X748006Y226608D01*
X748069Y226642D01*
X748137Y226667D01*
X748177Y226699D01*
X748223Y226724D01*
X748273Y226776D01*
X748329Y226820D01*
X748357Y226864D01*
X748393Y226902D01*
X748423Y226967D01*
X748462Y227027D01*
X748474Y227078D01*
X748496Y227125D01*
X748504Y227196D01*
X748522Y227266D01*
X748518Y227318D01*
X748524Y227369D01*
X748508Y227440D01*
X748503Y227511D01*
X748482Y227559D01*
X748471Y227610D01*
X748434Y227671D01*
X748406Y227737D01*
X748362Y227793D01*
X748345Y227821D01*
X748327Y227836D01*
X748302Y227868D01*
X748271Y227898D01*
X746376Y232474D01*
X746376Y237426D01*
X748271Y242002D01*
X751773Y245504D01*
X755257Y246947D01*
X755318Y246985D01*
X755384Y247014D01*
X755422Y247049D01*
X755467Y247076D01*
X755512Y247132D01*
X755565Y247180D01*
X755590Y247226D01*
X755623Y247266D01*
X755649Y247333D01*
X755684Y247396D01*
X755693Y247447D01*
X755712Y247495D01*
X755715Y247567D01*
X755727Y247638D01*
X755720Y247689D01*
X755722Y247741D01*
X755702Y247810D01*
X755692Y247881D01*
X755668Y247927D01*
X755653Y247977D01*
X755613Y248036D01*
X755580Y248100D01*
X755543Y248137D01*
X755513Y248179D01*
X755456Y248222D01*
X755404Y248272D01*
X755342Y248307D01*
X755316Y248326D01*
X755294Y248333D01*
X755257Y248353D01*
X751773Y249796D01*
X748271Y253298D01*
X746376Y257874D01*
X746376Y262826D01*
X748271Y267402D01*
X751773Y270904D01*
X756067Y272682D01*
X756153Y272735D01*
X756242Y272784D01*
X756257Y272800D01*
X756276Y272812D01*
X756340Y272889D01*
X756409Y272964D01*
X756418Y272984D01*
X756433Y273001D01*
X756469Y273095D01*
X756511Y273188D01*
X756513Y273210D01*
X756521Y273231D01*
X756525Y273332D01*
X756535Y273433D01*
X756530Y273454D01*
X756531Y273476D01*
X756503Y273573D01*
X756480Y273672D01*
X756469Y273691D01*
X756463Y273713D01*
X756405Y273796D01*
X756352Y273882D01*
X756335Y273896D01*
X756322Y273915D01*
X756241Y273975D01*
X756164Y274040D01*
X756138Y274051D01*
X756125Y274061D01*
X756094Y274072D01*
X756011Y274109D01*
X754241Y274684D01*
X752567Y275537D01*
X751046Y276642D01*
X749717Y277971D01*
X748612Y279492D01*
X747759Y281166D01*
X747178Y282954D01*
X746977Y284227D01*
X758063Y284227D01*
X758083Y284230D01*
X758102Y284228D01*
X758204Y284250D01*
X758306Y284267D01*
X758323Y284276D01*
X758343Y284280D01*
X758432Y284333D01*
X758523Y284382D01*
X758537Y284396D01*
X758554Y284406D01*
X758621Y284485D01*
X758692Y284560D01*
X758701Y284578D01*
X758714Y284593D01*
X758752Y284689D01*
X758796Y284783D01*
X758798Y284803D01*
X758806Y284821D01*
X758824Y284988D01*
X758824Y286512D01*
X758821Y286532D01*
X758823Y286551D01*
X758801Y286653D01*
X758784Y286755D01*
X758775Y286772D01*
X758771Y286792D01*
X758718Y286881D01*
X758669Y286972D01*
X758655Y286986D01*
X758645Y287003D01*
X758566Y287070D01*
X758491Y287141D01*
X758473Y287150D01*
X758458Y287163D01*
X758362Y287202D01*
X758268Y287245D01*
X758248Y287247D01*
X758230Y287255D01*
X758063Y287273D01*
X746977Y287273D01*
X747178Y288546D01*
X747759Y290334D01*
X748612Y292008D01*
X749717Y293529D01*
X751046Y294858D01*
X752567Y295963D01*
X754241Y296816D01*
X756011Y297391D01*
X756101Y297437D01*
X756193Y297478D01*
X756210Y297493D01*
X756229Y297504D01*
X756300Y297576D01*
X756374Y297645D01*
X756385Y297664D01*
X756400Y297680D01*
X756444Y297771D01*
X756493Y297860D01*
X756497Y297882D01*
X756506Y297902D01*
X756519Y298003D01*
X756537Y298102D01*
X756533Y298124D01*
X756536Y298146D01*
X756516Y298245D01*
X756501Y298346D01*
X756491Y298366D01*
X756486Y298387D01*
X756435Y298475D01*
X756389Y298565D01*
X756373Y298581D01*
X756362Y298600D01*
X756286Y298666D01*
X756214Y298737D01*
X756190Y298751D01*
X756177Y298761D01*
X756147Y298774D01*
X756067Y298818D01*
X751773Y300596D01*
X748271Y304098D01*
X746376Y308674D01*
X746376Y313626D01*
X748271Y318202D01*
X751773Y321704D01*
X756349Y323599D01*
X761301Y323599D01*
X765877Y321704D01*
X769379Y318202D01*
X771274Y313626D01*
X771274Y308674D01*
X769379Y304098D01*
X765877Y300596D01*
X761583Y298818D01*
X761497Y298765D01*
X761408Y298716D01*
X761393Y298700D01*
X761374Y298688D01*
X761310Y298611D01*
X761241Y298536D01*
X761232Y298516D01*
X761217Y298499D01*
X761181Y298405D01*
X761139Y298312D01*
X761137Y298290D01*
X761129Y298269D01*
X761125Y298168D01*
X761115Y298067D01*
X761120Y298046D01*
X761119Y298024D01*
X761147Y297927D01*
X761170Y297828D01*
X761181Y297809D01*
X761187Y297787D01*
X761245Y297704D01*
X761298Y297618D01*
X761315Y297604D01*
X761328Y297585D01*
X761409Y297525D01*
X761486Y297460D01*
X761512Y297449D01*
X761525Y297439D01*
X761556Y297428D01*
X761639Y297391D01*
X763409Y296816D01*
X765083Y295963D01*
X766604Y294858D01*
X767933Y293529D01*
X769038Y292008D01*
X769891Y290334D01*
X770472Y288546D01*
X770673Y287273D01*
X759587Y287273D01*
X759567Y287270D01*
X759548Y287272D01*
X759446Y287250D01*
X759344Y287233D01*
X759327Y287224D01*
X759307Y287220D01*
X759218Y287167D01*
X759127Y287118D01*
X759113Y287104D01*
X759096Y287094D01*
X759029Y287015D01*
X758958Y286940D01*
X758949Y286922D01*
X758936Y286907D01*
X758898Y286811D01*
X758854Y286717D01*
X758852Y286697D01*
X758844Y286679D01*
X758826Y286512D01*
X758826Y284988D01*
X758829Y284968D01*
X758827Y284949D01*
X758849Y284847D01*
X758866Y284745D01*
X758875Y284728D01*
X758879Y284708D01*
X758932Y284619D01*
X758981Y284528D01*
X758995Y284514D01*
X759005Y284497D01*
X759084Y284430D01*
X759159Y284359D01*
X759177Y284350D01*
X759192Y284337D01*
X759288Y284298D01*
X759382Y284255D01*
X759402Y284253D01*
X759420Y284245D01*
X759587Y284227D01*
X770673Y284227D01*
X770472Y282954D01*
X769891Y281166D01*
X769038Y279492D01*
X767933Y277971D01*
X766604Y276642D01*
X765083Y275537D01*
X763409Y274684D01*
X761639Y274109D01*
X761549Y274063D01*
X761457Y274022D01*
X761440Y274007D01*
X761421Y273996D01*
X761350Y273924D01*
X761276Y273855D01*
X761265Y273836D01*
X761250Y273820D01*
X761206Y273729D01*
X761157Y273640D01*
X761153Y273618D01*
X761144Y273598D01*
X761131Y273497D01*
X761113Y273398D01*
X761117Y273376D01*
X761114Y273354D01*
X761134Y273255D01*
X761149Y273154D01*
X761159Y273134D01*
X761164Y273113D01*
X761215Y273025D01*
X761261Y272935D01*
X761277Y272919D01*
X761288Y272900D01*
X761364Y272834D01*
X761436Y272763D01*
X761460Y272749D01*
X761473Y272739D01*
X761503Y272726D01*
X761583Y272682D01*
X765877Y270904D01*
X769379Y267402D01*
X771274Y262826D01*
X771274Y257874D01*
X769379Y253298D01*
X765877Y249796D01*
X762393Y248353D01*
X762332Y248316D01*
X762266Y248286D01*
X762228Y248251D01*
X762183Y248224D01*
X762138Y248169D01*
X762085Y248120D01*
X762060Y248074D01*
X762027Y248034D01*
X762001Y247967D01*
X761966Y247904D01*
X761957Y247853D01*
X761938Y247805D01*
X761935Y247733D01*
X761923Y247662D01*
X761930Y247611D01*
X761928Y247559D01*
X761948Y247490D01*
X761958Y247419D01*
X761982Y247373D01*
X761997Y247323D01*
X762037Y247264D01*
X762070Y247200D01*
X762107Y247163D01*
X762137Y247121D01*
X762194Y247078D01*
X762246Y247028D01*
X762308Y246993D01*
X762334Y246974D01*
X762356Y246967D01*
X762393Y246947D01*
X765877Y245504D01*
X769379Y242002D01*
X771274Y237426D01*
X771274Y232474D01*
X769379Y227898D01*
X769348Y227868D01*
X769307Y227810D01*
X769257Y227758D01*
X769235Y227711D01*
X769205Y227669D01*
X769184Y227600D01*
X769154Y227535D01*
X769148Y227483D01*
X769133Y227434D01*
X769134Y227362D01*
X769126Y227291D01*
X769138Y227240D01*
X769139Y227188D01*
X769163Y227120D01*
X769179Y227050D01*
X769205Y227005D01*
X769223Y226957D01*
X769268Y226901D01*
X769305Y226839D01*
X769344Y226805D01*
X769377Y226765D01*
X769437Y226726D01*
X769492Y226679D01*
X769540Y226660D01*
X769584Y226632D01*
X769653Y226614D01*
X769720Y226587D01*
X769791Y226579D01*
X769822Y226571D01*
X769846Y226573D01*
X769887Y226569D01*
X782839Y226569D01*
X788181Y221226D01*
X788276Y221159D01*
X788370Y221088D01*
X788376Y221086D01*
X788381Y221083D01*
X788492Y221049D01*
X788604Y221012D01*
X788610Y221012D01*
X788616Y221010D01*
X788733Y221014D01*
X788850Y221015D01*
X788857Y221017D01*
X788862Y221017D01*
X788879Y221023D01*
X789011Y221061D01*
X790992Y221882D01*
X791078Y221935D01*
X791167Y221984D01*
X791182Y222000D01*
X791201Y222012D01*
X791265Y222089D01*
X791334Y222164D01*
X791344Y222184D01*
X791358Y222201D01*
X791394Y222295D01*
X791436Y222388D01*
X791438Y222410D01*
X791446Y222431D01*
X791450Y222532D01*
X791460Y222633D01*
X791455Y222654D01*
X791456Y222676D01*
X791428Y222773D01*
X791405Y222872D01*
X791394Y222891D01*
X791388Y222913D01*
X791330Y222996D01*
X791277Y223082D01*
X791260Y223096D01*
X791247Y223115D01*
X791166Y223175D01*
X791089Y223240D01*
X791064Y223251D01*
X791050Y223261D01*
X791019Y223272D01*
X790936Y223309D01*
X789166Y223884D01*
X787492Y224737D01*
X785971Y225842D01*
X784642Y227171D01*
X783537Y228692D01*
X782684Y230366D01*
X782103Y232154D01*
X781902Y233427D01*
X792988Y233427D01*
X793008Y233430D01*
X793027Y233428D01*
X793129Y233450D01*
X793231Y233467D01*
X793248Y233476D01*
X793268Y233480D01*
X793357Y233533D01*
X793448Y233582D01*
X793462Y233596D01*
X793479Y233606D01*
X793546Y233685D01*
X793617Y233760D01*
X793626Y233778D01*
X793639Y233793D01*
X793677Y233889D01*
X793721Y233983D01*
X793723Y234003D01*
X793731Y234021D01*
X793749Y234188D01*
X793749Y234951D01*
X793751Y234951D01*
X793751Y234188D01*
X793754Y234168D01*
X793752Y234149D01*
X793774Y234047D01*
X793791Y233945D01*
X793800Y233928D01*
X793804Y233908D01*
X793857Y233819D01*
X793906Y233728D01*
X793920Y233714D01*
X793930Y233697D01*
X794009Y233630D01*
X794084Y233559D01*
X794102Y233550D01*
X794117Y233537D01*
X794213Y233498D01*
X794307Y233455D01*
X794327Y233453D01*
X794345Y233445D01*
X794512Y233427D01*
X805598Y233427D01*
X805397Y232154D01*
X804816Y230366D01*
X803963Y228692D01*
X802858Y227171D01*
X801529Y225842D01*
X800008Y224737D01*
X798334Y223884D01*
X796564Y223309D01*
X796474Y223263D01*
X796382Y223222D01*
X796365Y223207D01*
X796346Y223196D01*
X796275Y223124D01*
X796201Y223055D01*
X796190Y223036D01*
X796175Y223020D01*
X796131Y222928D01*
X796082Y222840D01*
X796078Y222818D01*
X796069Y222798D01*
X796056Y222697D01*
X796038Y222598D01*
X796042Y222576D01*
X796039Y222554D01*
X796059Y222455D01*
X796074Y222354D01*
X796084Y222334D01*
X796089Y222313D01*
X796140Y222226D01*
X796186Y222135D01*
X796202Y222119D01*
X796213Y222100D01*
X796289Y222034D01*
X796361Y221963D01*
X796385Y221949D01*
X796398Y221939D01*
X796428Y221926D01*
X796508Y221882D01*
X800802Y220104D01*
X804304Y216602D01*
X806199Y212026D01*
X806199Y207074D01*
X804304Y202498D01*
X800802Y198996D01*
X797318Y197553D01*
X797257Y197515D01*
X797191Y197486D01*
X797153Y197451D01*
X797108Y197424D01*
X797063Y197368D01*
X797010Y197320D01*
X796985Y197274D01*
X796952Y197234D01*
X796926Y197167D01*
X796891Y197104D01*
X796882Y197053D01*
X796863Y197005D01*
X796860Y196933D01*
X796848Y196862D01*
X796855Y196811D01*
X796853Y196759D01*
X796873Y196690D01*
X796883Y196619D01*
X796907Y196573D01*
X796922Y196523D01*
X796962Y196464D01*
X796995Y196400D01*
X797032Y196363D01*
X797062Y196321D01*
X797119Y196278D01*
X797171Y196228D01*
X797233Y196193D01*
X797259Y196174D01*
X797281Y196167D01*
X797318Y196147D01*
X800802Y194704D01*
X804304Y191202D01*
X806199Y186626D01*
X806199Y181674D01*
X804304Y177098D01*
X800802Y173596D01*
X797318Y172153D01*
X797257Y172115D01*
X797191Y172086D01*
X797153Y172051D01*
X797108Y172024D01*
X797063Y171968D01*
X797010Y171920D01*
X796985Y171874D01*
X796952Y171834D01*
X796926Y171767D01*
X796891Y171704D01*
X796882Y171653D01*
X796863Y171605D01*
X796860Y171533D01*
X796848Y171462D01*
X796855Y171411D01*
X796853Y171359D01*
X796873Y171290D01*
X796883Y171219D01*
X796907Y171173D01*
X796922Y171123D01*
X796962Y171064D01*
X796995Y171000D01*
X797032Y170963D01*
X797062Y170921D01*
X797119Y170878D01*
X797171Y170828D01*
X797233Y170793D01*
X797259Y170774D01*
X797281Y170767D01*
X797318Y170747D01*
X800802Y169304D01*
X804304Y165802D01*
X806199Y161226D01*
X806199Y156274D01*
X804304Y151698D01*
X800802Y148196D01*
X797318Y146753D01*
X797257Y146715D01*
X797191Y146686D01*
X797153Y146651D01*
X797108Y146624D01*
X797063Y146568D01*
X797010Y146520D01*
X796985Y146474D01*
X796952Y146434D01*
X796926Y146367D01*
X796891Y146304D01*
X796882Y146253D01*
X796863Y146205D01*
X796860Y146133D01*
X796848Y146062D01*
X796855Y146011D01*
X796853Y145959D01*
X796873Y145890D01*
X796883Y145819D01*
X796907Y145773D01*
X796922Y145723D01*
X796962Y145664D01*
X796995Y145600D01*
X797032Y145563D01*
X797062Y145521D01*
X797119Y145478D01*
X797171Y145428D01*
X797233Y145393D01*
X797259Y145374D01*
X797281Y145367D01*
X797318Y145347D01*
X800802Y143904D01*
X804304Y140402D01*
X806199Y135826D01*
X806199Y130874D01*
X804304Y126298D01*
X800802Y122796D01*
X797318Y121353D01*
X797257Y121315D01*
X797191Y121286D01*
X797153Y121251D01*
X797108Y121224D01*
X797063Y121168D01*
X797010Y121120D01*
X796985Y121074D01*
X796952Y121034D01*
X796926Y120967D01*
X796891Y120904D01*
X796882Y120853D01*
X796863Y120805D01*
X796860Y120733D01*
X796848Y120662D01*
X796855Y120611D01*
X796853Y120559D01*
X796873Y120490D01*
X796883Y120419D01*
X796907Y120373D01*
X796922Y120323D01*
X796962Y120264D01*
X796995Y120200D01*
X797032Y120163D01*
X797062Y120121D01*
X797119Y120078D01*
X797171Y120028D01*
X797233Y119993D01*
X797259Y119974D01*
X797281Y119967D01*
X797318Y119947D01*
X800802Y118504D01*
X804304Y115002D01*
X806199Y110426D01*
X806199Y105474D01*
X804304Y100898D01*
X800802Y97396D01*
X797317Y95953D01*
X797257Y95915D01*
X797191Y95886D01*
X797153Y95851D01*
X797108Y95824D01*
X797063Y95768D01*
X797010Y95720D01*
X796985Y95674D01*
X796952Y95634D01*
X796926Y95567D01*
X796891Y95504D01*
X796882Y95453D01*
X796863Y95405D01*
X796860Y95333D01*
X796848Y95262D01*
X796855Y95211D01*
X796853Y95159D01*
X796873Y95090D01*
X796883Y95019D01*
X796907Y94973D01*
X796922Y94923D01*
X796962Y94864D01*
X796995Y94800D01*
X797032Y94763D01*
X797062Y94721D01*
X797119Y94678D01*
X797171Y94628D01*
X797233Y94593D01*
X797259Y94574D01*
X797281Y94567D01*
X797317Y94547D01*
X800802Y93104D01*
X804304Y89602D01*
X806199Y85026D01*
X806199Y80074D01*
X804304Y75498D01*
X800802Y71996D01*
X797317Y70553D01*
X797257Y70515D01*
X797191Y70486D01*
X797153Y70451D01*
X797108Y70424D01*
X797063Y70368D01*
X797010Y70320D01*
X796985Y70274D01*
X796952Y70234D01*
X796926Y70167D01*
X796891Y70104D01*
X796882Y70053D01*
X796863Y70005D01*
X796860Y69933D01*
X796848Y69862D01*
X796855Y69811D01*
X796853Y69759D01*
X796873Y69690D01*
X796883Y69619D01*
X796907Y69573D01*
X796922Y69523D01*
X796962Y69464D01*
X796995Y69400D01*
X797032Y69363D01*
X797062Y69321D01*
X797119Y69278D01*
X797171Y69228D01*
X797233Y69193D01*
X797259Y69174D01*
X797281Y69167D01*
X797317Y69147D01*
X800802Y67704D01*
X804304Y64202D01*
X806199Y59626D01*
X806199Y54674D01*
X804304Y50098D01*
X800802Y46596D01*
X797317Y45153D01*
X797257Y45115D01*
X797191Y45086D01*
X797153Y45051D01*
X797108Y45024D01*
X797063Y44968D01*
X797010Y44920D01*
X796985Y44874D01*
X796952Y44834D01*
X796926Y44767D01*
X796891Y44704D01*
X796882Y44653D01*
X796863Y44605D01*
X796860Y44533D01*
X796848Y44462D01*
X796855Y44411D01*
X796853Y44359D01*
X796873Y44290D01*
X796883Y44219D01*
X796907Y44173D01*
X796922Y44123D01*
X796962Y44064D01*
X796995Y44000D01*
X797032Y43963D01*
X797062Y43921D01*
X797119Y43878D01*
X797171Y43828D01*
X797233Y43793D01*
X797259Y43774D01*
X797281Y43767D01*
X797317Y43747D01*
X800802Y42304D01*
X804304Y38802D01*
X806199Y34226D01*
X806199Y29274D01*
X804304Y24698D01*
X800802Y21196D01*
X796226Y19301D01*
X791274Y19301D01*
X786698Y21196D01*
X783196Y24698D01*
X781301Y29274D01*
X781301Y34226D01*
X783196Y38802D01*
X786698Y42304D01*
X790183Y43747D01*
X790244Y43785D01*
X790309Y43814D01*
X790347Y43849D01*
X790392Y43876D01*
X790437Y43932D01*
X790490Y43980D01*
X790515Y44026D01*
X790548Y44066D01*
X790574Y44133D01*
X790609Y44196D01*
X790618Y44247D01*
X790637Y44295D01*
X790640Y44367D01*
X790652Y44438D01*
X790645Y44489D01*
X790647Y44541D01*
X790627Y44610D01*
X790617Y44681D01*
X790593Y44727D01*
X790578Y44777D01*
X790538Y44836D01*
X790505Y44900D01*
X790468Y44937D01*
X790438Y44979D01*
X790381Y45022D01*
X790329Y45072D01*
X790267Y45107D01*
X790241Y45126D01*
X790219Y45133D01*
X790183Y45153D01*
X786698Y46596D01*
X783196Y50098D01*
X781301Y54674D01*
X781301Y59626D01*
X783196Y64202D01*
X786698Y67704D01*
X790183Y69147D01*
X790244Y69185D01*
X790309Y69214D01*
X790347Y69249D01*
X790392Y69276D01*
X790437Y69332D01*
X790490Y69380D01*
X790515Y69426D01*
X790548Y69466D01*
X790574Y69533D01*
X790609Y69596D01*
X790618Y69647D01*
X790637Y69695D01*
X790640Y69767D01*
X790652Y69838D01*
X790645Y69889D01*
X790647Y69941D01*
X790627Y70010D01*
X790617Y70081D01*
X790593Y70127D01*
X790578Y70177D01*
X790538Y70236D01*
X790505Y70300D01*
X790468Y70337D01*
X790438Y70379D01*
X790381Y70422D01*
X790329Y70472D01*
X790267Y70507D01*
X790241Y70526D01*
X790219Y70533D01*
X790183Y70553D01*
X786698Y71996D01*
X783196Y75498D01*
X781301Y80074D01*
X781301Y85026D01*
X783196Y89602D01*
X786698Y93104D01*
X790183Y94547D01*
X790244Y94585D01*
X790309Y94614D01*
X790347Y94649D01*
X790392Y94676D01*
X790437Y94732D01*
X790490Y94780D01*
X790515Y94826D01*
X790548Y94866D01*
X790574Y94933D01*
X790609Y94996D01*
X790618Y95047D01*
X790637Y95095D01*
X790640Y95167D01*
X790652Y95238D01*
X790645Y95289D01*
X790647Y95341D01*
X790627Y95410D01*
X790617Y95481D01*
X790593Y95527D01*
X790578Y95577D01*
X790538Y95636D01*
X790505Y95700D01*
X790468Y95737D01*
X790438Y95779D01*
X790381Y95822D01*
X790329Y95872D01*
X790267Y95907D01*
X790241Y95926D01*
X790219Y95933D01*
X790183Y95953D01*
X786698Y97396D01*
X783196Y100898D01*
X781301Y105474D01*
X781301Y110426D01*
X783196Y115002D01*
X786698Y118504D01*
X790182Y119947D01*
X790243Y119984D01*
X790309Y120014D01*
X790347Y120049D01*
X790392Y120076D01*
X790437Y120131D01*
X790490Y120180D01*
X790515Y120226D01*
X790548Y120266D01*
X790574Y120333D01*
X790609Y120396D01*
X790618Y120447D01*
X790637Y120495D01*
X790640Y120567D01*
X790652Y120638D01*
X790645Y120689D01*
X790647Y120741D01*
X790627Y120810D01*
X790617Y120881D01*
X790593Y120927D01*
X790578Y120977D01*
X790538Y121036D01*
X790505Y121100D01*
X790468Y121137D01*
X790438Y121179D01*
X790381Y121222D01*
X790329Y121272D01*
X790267Y121307D01*
X790241Y121326D01*
X790219Y121333D01*
X790182Y121353D01*
X786698Y122796D01*
X783196Y126298D01*
X781301Y130874D01*
X781301Y135826D01*
X783196Y140402D01*
X786698Y143904D01*
X790182Y145347D01*
X790243Y145384D01*
X790309Y145414D01*
X790347Y145449D01*
X790392Y145476D01*
X790437Y145531D01*
X790490Y145580D01*
X790515Y145626D01*
X790548Y145666D01*
X790574Y145733D01*
X790609Y145796D01*
X790618Y145847D01*
X790637Y145895D01*
X790640Y145967D01*
X790652Y146038D01*
X790645Y146089D01*
X790647Y146141D01*
X790627Y146210D01*
X790617Y146281D01*
X790593Y146327D01*
X790578Y146377D01*
X790538Y146436D01*
X790505Y146500D01*
X790468Y146537D01*
X790438Y146579D01*
X790381Y146622D01*
X790329Y146672D01*
X790267Y146707D01*
X790241Y146726D01*
X790219Y146733D01*
X790182Y146753D01*
X786698Y148196D01*
X783196Y151698D01*
X781301Y156274D01*
X781301Y161226D01*
X783196Y165802D01*
X786698Y169304D01*
X790182Y170747D01*
X790243Y170784D01*
X790309Y170814D01*
X790347Y170849D01*
X790392Y170876D01*
X790437Y170931D01*
X790490Y170980D01*
X790515Y171026D01*
X790548Y171066D01*
X790574Y171133D01*
X790609Y171196D01*
X790618Y171247D01*
X790637Y171295D01*
X790640Y171367D01*
X790652Y171438D01*
X790645Y171489D01*
X790647Y171541D01*
X790627Y171610D01*
X790617Y171681D01*
X790593Y171727D01*
X790578Y171777D01*
X790538Y171836D01*
X790505Y171900D01*
X790468Y171937D01*
X790438Y171979D01*
X790381Y172022D01*
X790329Y172072D01*
X790267Y172107D01*
X790241Y172126D01*
X790219Y172133D01*
X790182Y172153D01*
X786698Y173596D01*
X783196Y177098D01*
X781301Y181674D01*
X781301Y186626D01*
X782239Y188889D01*
X782265Y189003D01*
X782294Y189116D01*
X782293Y189123D01*
X782295Y189129D01*
X782284Y189245D01*
X782275Y189362D01*
X782272Y189367D01*
X782272Y189374D01*
X782224Y189480D01*
X782178Y189588D01*
X782174Y189594D01*
X782172Y189598D01*
X782159Y189612D01*
X782074Y189719D01*
X779484Y192308D01*
X779410Y192361D01*
X779341Y192421D01*
X779311Y192433D01*
X779284Y192452D01*
X779197Y192479D01*
X779113Y192513D01*
X779072Y192517D01*
X779049Y192524D01*
X779017Y192523D01*
X778946Y192531D01*
X768989Y192531D01*
X768977Y192529D01*
X768966Y192531D01*
X768857Y192510D01*
X768746Y192492D01*
X768736Y192486D01*
X768724Y192484D01*
X768627Y192428D01*
X768529Y192376D01*
X768521Y192368D01*
X768510Y192362D01*
X768436Y192279D01*
X768360Y192198D01*
X768355Y192187D01*
X768347Y192178D01*
X768303Y192076D01*
X768256Y191975D01*
X768255Y191963D01*
X768250Y191952D01*
X768241Y191841D01*
X768229Y191731D01*
X768232Y191719D01*
X768231Y191707D01*
X768258Y191599D01*
X768281Y191490D01*
X768287Y191480D01*
X768290Y191468D01*
X768373Y191323D01*
X769038Y190408D01*
X769891Y188734D01*
X770472Y186946D01*
X770673Y185673D01*
X759587Y185673D01*
X759567Y185670D01*
X759548Y185672D01*
X759446Y185650D01*
X759344Y185633D01*
X759327Y185624D01*
X759307Y185620D01*
X759218Y185567D01*
X759127Y185518D01*
X759113Y185504D01*
X759096Y185494D01*
X759029Y185415D01*
X758958Y185340D01*
X758949Y185322D01*
X758936Y185307D01*
X758898Y185211D01*
X758854Y185117D01*
X758852Y185097D01*
X758844Y185079D01*
X758826Y184912D01*
X758826Y183388D01*
X758829Y183368D01*
X758827Y183349D01*
X758849Y183247D01*
X758866Y183145D01*
X758875Y183128D01*
X758879Y183108D01*
X758932Y183019D01*
X758981Y182928D01*
X758995Y182914D01*
X759005Y182897D01*
X759084Y182830D01*
X759159Y182759D01*
X759177Y182750D01*
X759192Y182737D01*
X759288Y182698D01*
X759382Y182655D01*
X759402Y182653D01*
X759420Y182645D01*
X759587Y182627D01*
X770673Y182627D01*
X770472Y181354D01*
X769891Y179566D01*
X769038Y177892D01*
X767933Y176371D01*
X766604Y175042D01*
X765083Y173937D01*
X763409Y173084D01*
X761639Y172509D01*
X761549Y172463D01*
X761457Y172422D01*
X761440Y172407D01*
X761421Y172396D01*
X761350Y172324D01*
X761276Y172255D01*
X761265Y172236D01*
X761250Y172220D01*
X761206Y172128D01*
X761157Y172040D01*
X761153Y172018D01*
X761144Y171998D01*
X761131Y171897D01*
X761113Y171798D01*
X761117Y171776D01*
X761114Y171754D01*
X761134Y171655D01*
X761149Y171554D01*
X761159Y171534D01*
X761164Y171513D01*
X761215Y171426D01*
X761261Y171335D01*
X761277Y171319D01*
X761288Y171300D01*
X761364Y171234D01*
X761436Y171163D01*
X761460Y171149D01*
X761473Y171139D01*
X761503Y171126D01*
X761583Y171082D01*
X765877Y169304D01*
X769379Y165802D01*
X771274Y161226D01*
X771274Y156274D01*
X769379Y151698D01*
X765877Y148196D01*
X762392Y146753D01*
X762331Y146715D01*
X762266Y146686D01*
X762228Y146651D01*
X762183Y146624D01*
X762138Y146568D01*
X762085Y146520D01*
X762060Y146474D01*
X762027Y146434D01*
X762001Y146367D01*
X761966Y146304D01*
X761957Y146253D01*
X761938Y146205D01*
X761935Y146133D01*
X761923Y146062D01*
X761930Y146011D01*
X761928Y145959D01*
X761948Y145890D01*
X761958Y145819D01*
X761982Y145773D01*
X761997Y145723D01*
X762037Y145664D01*
X762070Y145600D01*
X762107Y145563D01*
X762137Y145521D01*
X762194Y145478D01*
X762246Y145428D01*
X762308Y145393D01*
X762334Y145374D01*
X762356Y145367D01*
X762392Y145347D01*
X765877Y143904D01*
X769379Y140402D01*
X771274Y135826D01*
X771274Y130874D01*
X769379Y126298D01*
X765877Y122796D01*
X762392Y121353D01*
X762331Y121315D01*
X762266Y121286D01*
X762228Y121251D01*
X762183Y121224D01*
X762138Y121168D01*
X762085Y121120D01*
X762060Y121074D01*
X762027Y121034D01*
X762001Y120967D01*
X761966Y120904D01*
X761957Y120853D01*
X761938Y120805D01*
X761935Y120733D01*
X761923Y120662D01*
X761930Y120611D01*
X761928Y120559D01*
X761948Y120490D01*
X761958Y120419D01*
X761982Y120373D01*
X761997Y120323D01*
X762037Y120264D01*
X762070Y120200D01*
X762107Y120163D01*
X762137Y120121D01*
X762194Y120078D01*
X762246Y120028D01*
X762308Y119993D01*
X762334Y119974D01*
X762356Y119967D01*
X762392Y119947D01*
X765877Y118504D01*
X769379Y115002D01*
X771274Y110426D01*
X771274Y105474D01*
X769379Y100898D01*
X765877Y97396D01*
X762392Y95953D01*
X762331Y95915D01*
X762266Y95886D01*
X762228Y95851D01*
X762183Y95824D01*
X762138Y95768D01*
X762085Y95720D01*
X762060Y95674D01*
X762027Y95634D01*
X762001Y95567D01*
X761966Y95504D01*
X761957Y95453D01*
X761938Y95405D01*
X761935Y95333D01*
X761923Y95262D01*
X761930Y95211D01*
X761928Y95159D01*
X761948Y95090D01*
X761958Y95019D01*
X761982Y94973D01*
X761997Y94923D01*
X762037Y94864D01*
X762070Y94800D01*
X762107Y94763D01*
X762137Y94721D01*
X762194Y94678D01*
X762246Y94628D01*
X762308Y94593D01*
X762334Y94574D01*
X762356Y94567D01*
X762392Y94547D01*
X765877Y93104D01*
X769379Y89602D01*
X771274Y85026D01*
X771274Y80074D01*
X769379Y75498D01*
X765877Y71996D01*
X762392Y70553D01*
X762331Y70515D01*
X762266Y70486D01*
X762228Y70451D01*
X762183Y70424D01*
X762138Y70368D01*
X762085Y70320D01*
X762060Y70274D01*
X762027Y70234D01*
X762001Y70167D01*
X761966Y70104D01*
X761957Y70053D01*
X761938Y70005D01*
X761935Y69933D01*
X761923Y69862D01*
X761930Y69811D01*
X761928Y69759D01*
X761948Y69690D01*
X761958Y69619D01*
X761982Y69573D01*
X761997Y69523D01*
X762037Y69464D01*
X762070Y69400D01*
X762107Y69363D01*
X762137Y69321D01*
X762194Y69278D01*
X762246Y69228D01*
X762308Y69193D01*
X762334Y69174D01*
X762356Y69167D01*
X762392Y69147D01*
X765877Y67704D01*
X769379Y64202D01*
X771274Y59626D01*
X771274Y54674D01*
X769379Y50098D01*
X765877Y46596D01*
X762392Y45153D01*
X762331Y45115D01*
X762266Y45086D01*
X762228Y45051D01*
X762183Y45024D01*
X762138Y44968D01*
X762085Y44920D01*
X762060Y44874D01*
X762027Y44834D01*
X762001Y44767D01*
X761966Y44704D01*
X761957Y44653D01*
X761938Y44605D01*
X761935Y44533D01*
X761923Y44462D01*
X761930Y44411D01*
X761928Y44359D01*
X761948Y44290D01*
X761958Y44219D01*
X761982Y44173D01*
X761997Y44123D01*
X762037Y44064D01*
X762070Y44000D01*
X762107Y43963D01*
X762137Y43921D01*
X762194Y43878D01*
X762246Y43828D01*
X762308Y43793D01*
X762334Y43774D01*
X762356Y43767D01*
X762392Y43747D01*
X765877Y42304D01*
X769379Y38802D01*
X771274Y34226D01*
X771274Y29274D01*
X769379Y24698D01*
X765877Y21196D01*
X761301Y19301D01*
X756349Y19301D01*
X751773Y21196D01*
X748271Y24698D01*
X746376Y29274D01*
X746376Y34226D01*
X748271Y38802D01*
X751773Y42304D01*
X755258Y43747D01*
X755318Y43785D01*
X755384Y43814D01*
X755422Y43849D01*
X755467Y43876D01*
X755512Y43932D01*
X755565Y43980D01*
X755590Y44026D01*
X755623Y44066D01*
X755649Y44133D01*
X755684Y44196D01*
X755693Y44247D01*
X755712Y44295D01*
X755715Y44367D01*
X755727Y44438D01*
X755720Y44489D01*
X755722Y44541D01*
X755702Y44610D01*
X755692Y44681D01*
X755668Y44727D01*
X755653Y44777D01*
X755613Y44836D01*
X755580Y44900D01*
X755543Y44937D01*
X755513Y44979D01*
X755456Y45022D01*
X755404Y45072D01*
X755342Y45107D01*
X755316Y45126D01*
X755294Y45133D01*
X755258Y45153D01*
X751773Y46596D01*
X748271Y50098D01*
X746376Y54674D01*
X746376Y59626D01*
X748271Y64202D01*
X751773Y67704D01*
X755258Y69147D01*
X755318Y69185D01*
X755384Y69214D01*
X755422Y69249D01*
X755467Y69276D01*
X755512Y69332D01*
X755565Y69380D01*
X755590Y69426D01*
X755623Y69466D01*
X755649Y69533D01*
X755684Y69596D01*
X755693Y69647D01*
X755712Y69695D01*
X755715Y69767D01*
X755727Y69838D01*
X755720Y69889D01*
X755722Y69941D01*
X755702Y70010D01*
X755692Y70081D01*
X755668Y70127D01*
X755653Y70177D01*
X755613Y70236D01*
X755580Y70300D01*
X755543Y70337D01*
X755513Y70379D01*
X755456Y70422D01*
X755404Y70472D01*
X755342Y70507D01*
X755316Y70526D01*
X755294Y70533D01*
X755258Y70553D01*
X751773Y71996D01*
X748271Y75498D01*
X746376Y80074D01*
X746376Y85026D01*
X748271Y89602D01*
X751773Y93104D01*
X755258Y94547D01*
X755318Y94585D01*
X755384Y94614D01*
X755422Y94649D01*
X755467Y94676D01*
X755512Y94732D01*
X755565Y94780D01*
X755590Y94826D01*
X755623Y94866D01*
X755649Y94933D01*
X755684Y94996D01*
X755693Y95047D01*
X755712Y95095D01*
X755715Y95167D01*
X755727Y95238D01*
X755720Y95289D01*
X755722Y95341D01*
X755702Y95410D01*
X755692Y95481D01*
X755668Y95527D01*
X755653Y95577D01*
X755613Y95636D01*
X755580Y95700D01*
X755543Y95737D01*
X755513Y95779D01*
X755456Y95822D01*
X755404Y95872D01*
X755342Y95907D01*
X755316Y95926D01*
X755294Y95933D01*
X755258Y95953D01*
X751773Y97396D01*
X748271Y100898D01*
X746376Y105474D01*
X746376Y110426D01*
X748271Y115002D01*
X751773Y118504D01*
X755258Y119947D01*
X755318Y119985D01*
X755384Y120014D01*
X755422Y120049D01*
X755467Y120076D01*
X755512Y120132D01*
X755565Y120180D01*
X755590Y120226D01*
X755623Y120266D01*
X755649Y120333D01*
X755684Y120396D01*
X755693Y120447D01*
X755712Y120495D01*
X755715Y120567D01*
X755727Y120638D01*
X755720Y120689D01*
X755722Y120741D01*
X755702Y120810D01*
X755692Y120881D01*
X755668Y120927D01*
X755653Y120977D01*
X755613Y121036D01*
X755580Y121100D01*
X755543Y121137D01*
X755513Y121179D01*
X755456Y121222D01*
X755404Y121272D01*
X755342Y121307D01*
X755316Y121326D01*
X755294Y121333D01*
X755258Y121353D01*
X751773Y122796D01*
X748271Y126298D01*
X746376Y130874D01*
X746376Y135826D01*
X748271Y140402D01*
X751773Y143904D01*
X755258Y145347D01*
X755318Y145385D01*
X755384Y145414D01*
X755422Y145449D01*
X755467Y145476D01*
X755512Y145532D01*
X755565Y145580D01*
X755590Y145626D01*
X755623Y145666D01*
X755649Y145733D01*
X755684Y145796D01*
X755693Y145847D01*
X755712Y145895D01*
X755715Y145967D01*
X755727Y146038D01*
X755720Y146089D01*
X755722Y146141D01*
X755702Y146210D01*
X755692Y146281D01*
X755668Y146327D01*
X755653Y146377D01*
X755613Y146436D01*
X755580Y146500D01*
X755543Y146537D01*
X755513Y146579D01*
X755456Y146622D01*
X755404Y146672D01*
X755342Y146707D01*
X755316Y146726D01*
X755294Y146733D01*
X755258Y146753D01*
X751773Y148196D01*
X748271Y151698D01*
X746376Y156274D01*
X746376Y161226D01*
X748271Y165802D01*
X751773Y169304D01*
X756067Y171082D01*
X756153Y171135D01*
X756242Y171184D01*
X756257Y171200D01*
X756276Y171212D01*
X756340Y171289D01*
X756409Y171364D01*
X756419Y171384D01*
X756433Y171401D01*
X756469Y171495D01*
X756511Y171588D01*
X756513Y171610D01*
X756521Y171631D01*
X756525Y171732D01*
X756535Y171833D01*
X756530Y171854D01*
X756531Y171876D01*
X756503Y171973D01*
X756480Y172072D01*
X756469Y172091D01*
X756463Y172113D01*
X756405Y172196D01*
X756352Y172282D01*
X756335Y172296D01*
X756322Y172315D01*
X756241Y172375D01*
X756164Y172440D01*
X756139Y172451D01*
X756125Y172461D01*
X756094Y172472D01*
X756011Y172509D01*
X754241Y173084D01*
X752567Y173937D01*
X751046Y175042D01*
X749717Y176371D01*
X748612Y177892D01*
X747759Y179566D01*
X747178Y181354D01*
X746977Y182627D01*
X758063Y182627D01*
X758083Y182630D01*
X758102Y182628D01*
X758204Y182650D01*
X758306Y182667D01*
X758323Y182676D01*
X758343Y182680D01*
X758432Y182733D01*
X758523Y182782D01*
X758537Y182796D01*
X758554Y182806D01*
X758621Y182885D01*
X758692Y182960D01*
X758701Y182978D01*
X758714Y182993D01*
X758752Y183089D01*
X758796Y183183D01*
X758798Y183203D01*
X758806Y183221D01*
X758824Y183388D01*
X758824Y184912D01*
X758821Y184932D01*
X758823Y184951D01*
X758801Y185053D01*
X758784Y185155D01*
X758775Y185172D01*
X758771Y185192D01*
X758718Y185281D01*
X758669Y185372D01*
X758655Y185386D01*
X758645Y185403D01*
X758566Y185470D01*
X758491Y185541D01*
X758473Y185550D01*
X758458Y185563D01*
X758362Y185602D01*
X758268Y185645D01*
X758248Y185647D01*
X758230Y185655D01*
X758063Y185673D01*
X746977Y185673D01*
X747178Y186946D01*
X747759Y188734D01*
X748612Y190408D01*
X749277Y191323D01*
X749282Y191333D01*
X749290Y191342D01*
X749337Y191442D01*
X749387Y191542D01*
X749389Y191554D01*
X749394Y191565D01*
X749406Y191675D01*
X749422Y191786D01*
X749420Y191798D01*
X749421Y191809D01*
X749397Y191918D01*
X749377Y192028D01*
X749371Y192038D01*
X749369Y192050D01*
X749312Y192146D01*
X749258Y192243D01*
X749249Y192251D01*
X749243Y192261D01*
X749158Y192333D01*
X749076Y192408D01*
X749065Y192413D01*
X749056Y192421D01*
X748952Y192463D01*
X748851Y192507D01*
X748839Y192508D01*
X748827Y192513D01*
X748661Y192531D01*
X617487Y192531D01*
X617416Y192520D01*
X617344Y192518D01*
X617295Y192500D01*
X617244Y192492D01*
X617181Y192458D01*
X617113Y192433D01*
X617073Y192401D01*
X617027Y192376D01*
X616977Y192324D01*
X616921Y192280D01*
X616893Y192236D01*
X616857Y192198D01*
X616827Y192133D01*
X616788Y192073D01*
X616776Y192022D01*
X616754Y191975D01*
X616746Y191904D01*
X616728Y191834D01*
X616732Y191782D01*
X616726Y191731D01*
X616742Y191660D01*
X616747Y191589D01*
X616768Y191541D01*
X616779Y191490D01*
X616816Y191429D01*
X616844Y191363D01*
X616888Y191307D01*
X616905Y191279D01*
X616923Y191264D01*
X616948Y191232D01*
X616979Y191202D01*
X618874Y186626D01*
X618874Y181674D01*
X616979Y177098D01*
X613477Y173596D01*
X609993Y172153D01*
X609932Y172115D01*
X609866Y172086D01*
X609828Y172051D01*
X609783Y172024D01*
X609738Y171968D01*
X609685Y171920D01*
X609660Y171874D01*
X609627Y171834D01*
X609601Y171767D01*
X609566Y171704D01*
X609557Y171653D01*
X609538Y171605D01*
X609535Y171533D01*
X609523Y171462D01*
X609530Y171411D01*
X609528Y171359D01*
X609548Y171290D01*
X609558Y171219D01*
X609582Y171173D01*
X609597Y171123D01*
X609637Y171064D01*
X609670Y171000D01*
X609707Y170963D01*
X609737Y170921D01*
X609794Y170878D01*
X609846Y170828D01*
X609908Y170793D01*
X609934Y170774D01*
X609956Y170767D01*
X609993Y170747D01*
X613477Y169304D01*
X616979Y165802D01*
X618874Y161226D01*
X618874Y156274D01*
X616979Y151698D01*
X613477Y148196D01*
X609993Y146753D01*
X609932Y146715D01*
X609866Y146686D01*
X609828Y146651D01*
X609783Y146624D01*
X609738Y146568D01*
X609685Y146520D01*
X609660Y146474D01*
X609627Y146434D01*
X609601Y146367D01*
X609566Y146304D01*
X609557Y146253D01*
X609538Y146205D01*
X609535Y146133D01*
X609523Y146062D01*
X609530Y146011D01*
X609528Y145959D01*
X609548Y145890D01*
X609558Y145819D01*
X609582Y145773D01*
X609597Y145723D01*
X609637Y145664D01*
X609670Y145600D01*
X609707Y145563D01*
X609737Y145521D01*
X609794Y145478D01*
X609846Y145428D01*
X609908Y145393D01*
X609934Y145374D01*
X609956Y145367D01*
X609993Y145347D01*
X613477Y143904D01*
X616979Y140402D01*
X618874Y135826D01*
X618874Y130874D01*
X616979Y126298D01*
X613477Y122796D01*
X609993Y121353D01*
X609932Y121315D01*
X609866Y121286D01*
X609828Y121251D01*
X609783Y121224D01*
X609738Y121168D01*
X609685Y121120D01*
X609660Y121074D01*
X609627Y121034D01*
X609601Y120967D01*
X609566Y120904D01*
X609557Y120853D01*
X609538Y120805D01*
X609535Y120733D01*
X609523Y120662D01*
X609530Y120611D01*
X609528Y120559D01*
X609548Y120490D01*
X609558Y120419D01*
X609582Y120373D01*
X609597Y120323D01*
X609637Y120264D01*
X609670Y120200D01*
X609707Y120163D01*
X609737Y120121D01*
X609794Y120078D01*
X609846Y120028D01*
X609908Y119993D01*
X609934Y119974D01*
X609956Y119967D01*
X609993Y119947D01*
X613477Y118504D01*
X616979Y115002D01*
X618874Y110426D01*
X618874Y105474D01*
X616979Y100898D01*
X613477Y97396D01*
X609992Y95953D01*
X609932Y95915D01*
X609866Y95886D01*
X609828Y95851D01*
X609783Y95824D01*
X609738Y95768D01*
X609685Y95720D01*
X609660Y95674D01*
X609627Y95634D01*
X609601Y95567D01*
X609566Y95504D01*
X609557Y95453D01*
X609538Y95405D01*
X609535Y95333D01*
X609523Y95262D01*
X609530Y95211D01*
X609528Y95159D01*
X609548Y95090D01*
X609558Y95019D01*
X609582Y94973D01*
X609597Y94923D01*
X609637Y94864D01*
X609670Y94800D01*
X609707Y94763D01*
X609737Y94721D01*
X609794Y94678D01*
X609846Y94628D01*
X609908Y94593D01*
X609934Y94574D01*
X609956Y94567D01*
X609992Y94547D01*
X613477Y93104D01*
X616979Y89602D01*
X618874Y85026D01*
X618874Y80074D01*
X616979Y75498D01*
X613477Y71996D01*
X609992Y70553D01*
X609932Y70515D01*
X609866Y70486D01*
X609828Y70451D01*
X609783Y70424D01*
X609738Y70368D01*
X609685Y70320D01*
X609660Y70274D01*
X609627Y70234D01*
X609601Y70167D01*
X609566Y70104D01*
X609557Y70053D01*
X609538Y70005D01*
X609535Y69933D01*
X609523Y69862D01*
X609530Y69811D01*
X609528Y69759D01*
X609548Y69690D01*
X609558Y69619D01*
X609582Y69573D01*
X609597Y69523D01*
X609637Y69464D01*
X609670Y69400D01*
X609707Y69363D01*
X609737Y69321D01*
X609794Y69278D01*
X609846Y69228D01*
X609908Y69193D01*
X609934Y69174D01*
X609956Y69167D01*
X609992Y69147D01*
X613477Y67704D01*
X616979Y64202D01*
X618874Y59626D01*
X618874Y54674D01*
X616979Y50098D01*
X613477Y46596D01*
X609992Y45153D01*
X609932Y45115D01*
X609866Y45086D01*
X609828Y45051D01*
X609783Y45024D01*
X609738Y44968D01*
X609685Y44920D01*
X609660Y44874D01*
X609627Y44834D01*
X609601Y44767D01*
X609566Y44704D01*
X609557Y44653D01*
X609538Y44605D01*
X609535Y44533D01*
X609523Y44462D01*
X609530Y44411D01*
X609528Y44359D01*
X609548Y44290D01*
X609558Y44219D01*
X609582Y44173D01*
X609597Y44123D01*
X609637Y44064D01*
X609670Y44000D01*
X609707Y43963D01*
X609737Y43921D01*
X609794Y43878D01*
X609846Y43828D01*
X609908Y43793D01*
X609934Y43774D01*
X609956Y43767D01*
X609992Y43747D01*
X613477Y42304D01*
X616979Y38802D01*
X618874Y34226D01*
X618874Y29274D01*
X616979Y24698D01*
X613477Y21196D01*
X608901Y19301D01*
X603949Y19301D01*
X599373Y21196D01*
X595871Y24698D01*
X593976Y29274D01*
X593976Y34226D01*
X595871Y38802D01*
X599373Y42304D01*
X602858Y43747D01*
X602919Y43785D01*
X602984Y43814D01*
X603022Y43849D01*
X603067Y43876D01*
X603112Y43932D01*
X603165Y43980D01*
X603190Y44026D01*
X603223Y44066D01*
X603249Y44133D01*
X603284Y44196D01*
X603293Y44247D01*
X603312Y44295D01*
X603315Y44367D01*
X603327Y44438D01*
X603320Y44489D01*
X603322Y44541D01*
X603302Y44610D01*
X603292Y44681D01*
X603268Y44727D01*
X603253Y44777D01*
X603213Y44836D01*
X603180Y44900D01*
X603143Y44937D01*
X603113Y44979D01*
X603056Y45022D01*
X603004Y45072D01*
X602942Y45107D01*
X602916Y45126D01*
X602894Y45133D01*
X602858Y45153D01*
X599373Y46596D01*
X595871Y50098D01*
X593976Y54674D01*
X593976Y59626D01*
X595871Y64202D01*
X599373Y67704D01*
X602858Y69147D01*
X602919Y69185D01*
X602984Y69214D01*
X603022Y69249D01*
X603067Y69276D01*
X603112Y69332D01*
X603165Y69380D01*
X603190Y69426D01*
X603223Y69466D01*
X603249Y69533D01*
X603284Y69596D01*
X603293Y69647D01*
X603312Y69695D01*
X603315Y69767D01*
X603327Y69838D01*
X603320Y69889D01*
X603322Y69941D01*
X603302Y70010D01*
X603292Y70081D01*
X603268Y70127D01*
X603253Y70177D01*
X603213Y70236D01*
X603180Y70300D01*
X603143Y70337D01*
X603113Y70379D01*
X603056Y70422D01*
X603004Y70472D01*
X602942Y70507D01*
X602916Y70526D01*
X602894Y70533D01*
X602858Y70553D01*
X599373Y71996D01*
X595871Y75498D01*
X593976Y80074D01*
X593976Y85026D01*
X595871Y89602D01*
X599373Y93104D01*
X602858Y94547D01*
X602919Y94585D01*
X602984Y94614D01*
X603022Y94649D01*
X603067Y94676D01*
X603112Y94732D01*
X603165Y94780D01*
X603190Y94826D01*
X603223Y94866D01*
X603249Y94933D01*
X603284Y94996D01*
X603293Y95047D01*
X603312Y95095D01*
X603315Y95167D01*
X603327Y95238D01*
X603320Y95289D01*
X603322Y95341D01*
X603302Y95410D01*
X603292Y95481D01*
X603268Y95527D01*
X603253Y95577D01*
X603213Y95636D01*
X603180Y95700D01*
X603143Y95737D01*
X603113Y95779D01*
X603056Y95822D01*
X603004Y95872D01*
X602942Y95907D01*
X602916Y95926D01*
X602894Y95933D01*
X602858Y95953D01*
X599373Y97396D01*
X595871Y100898D01*
X593976Y105474D01*
X593976Y110426D01*
X595871Y115002D01*
X599373Y118504D01*
X602857Y119947D01*
X602918Y119984D01*
X602984Y120014D01*
X603022Y120049D01*
X603067Y120076D01*
X603112Y120131D01*
X603165Y120180D01*
X603190Y120226D01*
X603223Y120266D01*
X603249Y120333D01*
X603284Y120396D01*
X603293Y120447D01*
X603312Y120495D01*
X603315Y120567D01*
X603327Y120638D01*
X603320Y120689D01*
X603322Y120741D01*
X603302Y120810D01*
X603292Y120881D01*
X603268Y120927D01*
X603253Y120977D01*
X603213Y121036D01*
X603180Y121100D01*
X603143Y121137D01*
X603113Y121179D01*
X603056Y121222D01*
X603004Y121272D01*
X602942Y121307D01*
X602916Y121326D01*
X602894Y121333D01*
X602857Y121353D01*
X599373Y122796D01*
X595871Y126298D01*
X593976Y130874D01*
X593976Y135826D01*
X595871Y140402D01*
X599373Y143904D01*
X602857Y145347D01*
X602918Y145384D01*
X602984Y145414D01*
X603022Y145449D01*
X603067Y145476D01*
X603112Y145531D01*
X603165Y145580D01*
X603190Y145626D01*
X603223Y145666D01*
X603249Y145733D01*
X603284Y145796D01*
X603293Y145847D01*
X603312Y145895D01*
X603315Y145967D01*
X603327Y146038D01*
X603320Y146089D01*
X603322Y146141D01*
X603302Y146210D01*
X603292Y146281D01*
X603268Y146327D01*
X603253Y146377D01*
X603213Y146436D01*
X603180Y146500D01*
X603143Y146537D01*
X603113Y146579D01*
X603056Y146622D01*
X603004Y146672D01*
X602942Y146707D01*
X602916Y146726D01*
X602894Y146733D01*
X602857Y146753D01*
X599373Y148196D01*
X595871Y151698D01*
X593976Y156274D01*
X593976Y161226D01*
X595871Y165802D01*
X599373Y169304D01*
X602857Y170747D01*
X602918Y170784D01*
X602984Y170814D01*
X603022Y170849D01*
X603067Y170876D01*
X603112Y170931D01*
X603165Y170980D01*
X603190Y171026D01*
X603223Y171066D01*
X603249Y171133D01*
X603284Y171196D01*
X603293Y171247D01*
X603312Y171295D01*
X603315Y171367D01*
X603327Y171438D01*
X603320Y171489D01*
X603322Y171541D01*
X603302Y171610D01*
X603292Y171681D01*
X603268Y171727D01*
X603253Y171777D01*
X603213Y171836D01*
X603180Y171900D01*
X603143Y171937D01*
X603113Y171979D01*
X603056Y172022D01*
X603004Y172072D01*
X602942Y172107D01*
X602916Y172126D01*
X602894Y172133D01*
X602857Y172153D01*
X599373Y173596D01*
X595871Y177098D01*
X593976Y181674D01*
X593976Y186626D01*
X595871Y191202D01*
X595902Y191232D01*
X595943Y191290D01*
X595993Y191342D01*
X596015Y191389D01*
X596045Y191431D01*
X596066Y191500D01*
X596096Y191565D01*
X596102Y191617D01*
X596117Y191666D01*
X596116Y191738D01*
X596124Y191809D01*
X596112Y191860D01*
X596111Y191912D01*
X596087Y191980D01*
X596071Y192050D01*
X596045Y192095D01*
X596027Y192143D01*
X595982Y192199D01*
X595945Y192261D01*
X595906Y192295D01*
X595873Y192335D01*
X595813Y192374D01*
X595758Y192421D01*
X595710Y192440D01*
X595666Y192468D01*
X595597Y192486D01*
X595530Y192513D01*
X595459Y192521D01*
X595428Y192529D01*
X595404Y192527D01*
X595363Y192531D01*
X582562Y192531D01*
X582491Y192520D01*
X582419Y192518D01*
X582370Y192500D01*
X582319Y192492D01*
X582256Y192458D01*
X582188Y192433D01*
X582148Y192401D01*
X582102Y192376D01*
X582052Y192324D01*
X581996Y192280D01*
X581968Y192236D01*
X581932Y192198D01*
X581902Y192133D01*
X581863Y192073D01*
X581851Y192022D01*
X581829Y191975D01*
X581821Y191904D01*
X581803Y191834D01*
X581807Y191782D01*
X581801Y191731D01*
X581817Y191660D01*
X581822Y191589D01*
X581843Y191541D01*
X581854Y191490D01*
X581891Y191429D01*
X581919Y191363D01*
X581963Y191307D01*
X581980Y191279D01*
X581998Y191264D01*
X582023Y191232D01*
X582054Y191202D01*
X583949Y186626D01*
X583949Y181674D01*
X582054Y177098D01*
X578552Y173596D01*
X574258Y171818D01*
X574172Y171765D01*
X574083Y171716D01*
X574068Y171700D01*
X574049Y171688D01*
X573985Y171611D01*
X573916Y171536D01*
X573907Y171516D01*
X573892Y171499D01*
X573856Y171405D01*
X573814Y171312D01*
X573812Y171290D01*
X573804Y171269D01*
X573800Y171168D01*
X573790Y171067D01*
X573795Y171046D01*
X573794Y171024D01*
X573822Y170927D01*
X573845Y170828D01*
X573856Y170809D01*
X573862Y170787D01*
X573920Y170704D01*
X573973Y170618D01*
X573990Y170604D01*
X574003Y170585D01*
X574084Y170525D01*
X574161Y170460D01*
X574187Y170449D01*
X574200Y170439D01*
X574231Y170428D01*
X574314Y170391D01*
X576084Y169816D01*
X577758Y168963D01*
X579279Y167858D01*
X580608Y166529D01*
X581713Y165008D01*
X582566Y163334D01*
X583147Y161546D01*
X583348Y160273D01*
X572262Y160273D01*
X572242Y160270D01*
X572223Y160272D01*
X572121Y160250D01*
X572019Y160233D01*
X572002Y160224D01*
X571982Y160220D01*
X571893Y160167D01*
X571802Y160118D01*
X571788Y160104D01*
X571771Y160094D01*
X571704Y160015D01*
X571633Y159940D01*
X571624Y159922D01*
X571611Y159907D01*
X571573Y159811D01*
X571529Y159717D01*
X571527Y159697D01*
X571519Y159679D01*
X571501Y159512D01*
X571501Y157988D01*
X571504Y157968D01*
X571502Y157949D01*
X571524Y157847D01*
X571541Y157745D01*
X571550Y157728D01*
X571554Y157708D01*
X571607Y157619D01*
X571656Y157528D01*
X571670Y157514D01*
X571680Y157497D01*
X571759Y157430D01*
X571834Y157359D01*
X571852Y157350D01*
X571867Y157337D01*
X571963Y157298D01*
X572057Y157255D01*
X572077Y157253D01*
X572095Y157245D01*
X572262Y157227D01*
X583348Y157227D01*
X583147Y155954D01*
X582566Y154166D01*
X581713Y152492D01*
X580608Y150971D01*
X579279Y149642D01*
X577758Y148537D01*
X576084Y147684D01*
X574314Y147109D01*
X574224Y147063D01*
X574132Y147022D01*
X574115Y147007D01*
X574096Y146996D01*
X574025Y146924D01*
X573951Y146855D01*
X573940Y146836D01*
X573925Y146820D01*
X573881Y146728D01*
X573832Y146640D01*
X573828Y146618D01*
X573819Y146598D01*
X573806Y146497D01*
X573788Y146398D01*
X573792Y146376D01*
X573789Y146354D01*
X573809Y146255D01*
X573824Y146154D01*
X573834Y146134D01*
X573839Y146113D01*
X573890Y146026D01*
X573936Y145935D01*
X573952Y145919D01*
X573963Y145900D01*
X574039Y145834D01*
X574111Y145763D01*
X574135Y145749D01*
X574148Y145739D01*
X574178Y145726D01*
X574258Y145682D01*
X578552Y143904D01*
X582054Y140402D01*
X583949Y135826D01*
X583949Y130874D01*
X582054Y126298D01*
X578552Y122796D01*
X575067Y121353D01*
X575006Y121315D01*
X574941Y121286D01*
X574903Y121251D01*
X574858Y121224D01*
X574813Y121168D01*
X574760Y121120D01*
X574735Y121074D01*
X574702Y121034D01*
X574676Y120967D01*
X574641Y120904D01*
X574632Y120853D01*
X574613Y120805D01*
X574610Y120733D01*
X574598Y120662D01*
X574605Y120611D01*
X574603Y120559D01*
X574623Y120490D01*
X574633Y120419D01*
X574657Y120373D01*
X574672Y120323D01*
X574712Y120264D01*
X574745Y120200D01*
X574782Y120163D01*
X574812Y120121D01*
X574869Y120078D01*
X574921Y120028D01*
X574983Y119993D01*
X575009Y119974D01*
X575031Y119967D01*
X575067Y119947D01*
X578552Y118504D01*
X582054Y115002D01*
X583949Y110426D01*
X583949Y105474D01*
X582054Y100898D01*
X578552Y97396D01*
X575067Y95953D01*
X575006Y95915D01*
X574941Y95886D01*
X574903Y95851D01*
X574858Y95824D01*
X574813Y95768D01*
X574760Y95720D01*
X574735Y95674D01*
X574702Y95634D01*
X574676Y95567D01*
X574641Y95504D01*
X574632Y95453D01*
X574613Y95405D01*
X574610Y95333D01*
X574598Y95262D01*
X574605Y95211D01*
X574603Y95159D01*
X574623Y95090D01*
X574633Y95019D01*
X574657Y94973D01*
X574672Y94923D01*
X574712Y94864D01*
X574745Y94800D01*
X574782Y94763D01*
X574812Y94721D01*
X574869Y94678D01*
X574921Y94628D01*
X574983Y94593D01*
X575009Y94574D01*
X575031Y94567D01*
X575067Y94547D01*
X578552Y93104D01*
X582054Y89602D01*
X583949Y85026D01*
X583949Y80074D01*
X582054Y75498D01*
X578552Y71996D01*
X575067Y70553D01*
X575006Y70515D01*
X574941Y70486D01*
X574903Y70451D01*
X574858Y70424D01*
X574813Y70368D01*
X574760Y70320D01*
X574735Y70274D01*
X574702Y70234D01*
X574676Y70167D01*
X574641Y70104D01*
X574632Y70053D01*
X574613Y70005D01*
X574610Y69933D01*
X574598Y69862D01*
X574605Y69811D01*
X574603Y69759D01*
X574623Y69690D01*
X574633Y69619D01*
X574657Y69573D01*
X574672Y69523D01*
X574712Y69464D01*
X574745Y69400D01*
X574782Y69363D01*
X574812Y69321D01*
X574869Y69278D01*
X574921Y69228D01*
X574983Y69193D01*
X575009Y69174D01*
X575031Y69167D01*
X575067Y69147D01*
X578552Y67704D01*
X582054Y64202D01*
X583949Y59626D01*
X583949Y54674D01*
X582054Y50098D01*
X578552Y46596D01*
X575067Y45153D01*
X575006Y45115D01*
X574941Y45086D01*
X574903Y45051D01*
X574858Y45024D01*
X574813Y44968D01*
X574760Y44920D01*
X574735Y44874D01*
X574702Y44834D01*
X574676Y44767D01*
X574641Y44704D01*
X574632Y44653D01*
X574613Y44605D01*
X574610Y44533D01*
X574598Y44462D01*
X574605Y44411D01*
X574603Y44359D01*
X574623Y44290D01*
X574633Y44219D01*
X574657Y44173D01*
X574672Y44123D01*
X574712Y44064D01*
X574745Y44000D01*
X574782Y43963D01*
X574812Y43921D01*
X574869Y43878D01*
X574921Y43828D01*
X574983Y43793D01*
X575009Y43774D01*
X575031Y43767D01*
X575067Y43747D01*
X578552Y42304D01*
X582054Y38802D01*
X583949Y34226D01*
X583949Y29274D01*
X582054Y24698D01*
X578552Y21196D01*
X573976Y19301D01*
X569024Y19301D01*
X564448Y21196D01*
X560946Y24698D01*
X559051Y29274D01*
X559051Y34226D01*
X560946Y38802D01*
X564448Y42304D01*
X567933Y43747D01*
X567993Y43785D01*
X568059Y43814D01*
X568097Y43849D01*
X568142Y43876D01*
X568187Y43932D01*
X568240Y43980D01*
X568265Y44026D01*
X568298Y44066D01*
X568324Y44133D01*
X568359Y44196D01*
X568368Y44247D01*
X568387Y44295D01*
X568390Y44367D01*
X568402Y44438D01*
X568395Y44489D01*
X568397Y44541D01*
X568377Y44610D01*
X568367Y44681D01*
X568343Y44727D01*
X568328Y44777D01*
X568288Y44836D01*
X568255Y44900D01*
X568218Y44937D01*
X568188Y44979D01*
X568131Y45022D01*
X568079Y45072D01*
X568017Y45107D01*
X567991Y45126D01*
X567969Y45133D01*
X567933Y45153D01*
X564448Y46596D01*
X560946Y50098D01*
X559051Y54674D01*
X559051Y59626D01*
X560946Y64202D01*
X564448Y67704D01*
X567933Y69147D01*
X567993Y69185D01*
X568059Y69214D01*
X568097Y69249D01*
X568142Y69276D01*
X568187Y69332D01*
X568240Y69380D01*
X568265Y69426D01*
X568298Y69466D01*
X568324Y69533D01*
X568359Y69596D01*
X568368Y69647D01*
X568387Y69695D01*
X568390Y69767D01*
X568402Y69838D01*
X568395Y69889D01*
X568397Y69941D01*
X568377Y70010D01*
X568367Y70081D01*
X568343Y70127D01*
X568328Y70177D01*
X568288Y70236D01*
X568255Y70300D01*
X568218Y70337D01*
X568188Y70379D01*
X568131Y70422D01*
X568079Y70472D01*
X568017Y70507D01*
X567991Y70526D01*
X567969Y70533D01*
X567933Y70553D01*
X564448Y71996D01*
X560946Y75498D01*
X559051Y80074D01*
X559051Y85026D01*
X560946Y89602D01*
X564448Y93104D01*
X567933Y94547D01*
X567993Y94585D01*
X568059Y94614D01*
X568097Y94649D01*
X568142Y94676D01*
X568187Y94732D01*
X568240Y94780D01*
X568265Y94826D01*
X568298Y94866D01*
X568324Y94933D01*
X568359Y94996D01*
X568368Y95047D01*
X568387Y95095D01*
X568390Y95167D01*
X568402Y95238D01*
X568395Y95289D01*
X568397Y95341D01*
X568377Y95410D01*
X568367Y95481D01*
X568343Y95527D01*
X568328Y95577D01*
X568288Y95636D01*
X568255Y95700D01*
X568218Y95737D01*
X568188Y95779D01*
X568131Y95822D01*
X568079Y95872D01*
X568017Y95907D01*
X567991Y95926D01*
X567969Y95933D01*
X567933Y95953D01*
X564448Y97396D01*
X560946Y100898D01*
X559051Y105474D01*
X559051Y110426D01*
X560946Y115002D01*
X564448Y118504D01*
X567933Y119947D01*
X567993Y119985D01*
X568059Y120014D01*
X568097Y120049D01*
X568142Y120076D01*
X568187Y120132D01*
X568240Y120180D01*
X568265Y120226D01*
X568298Y120266D01*
X568324Y120333D01*
X568359Y120396D01*
X568368Y120447D01*
X568387Y120495D01*
X568390Y120567D01*
X568402Y120638D01*
X568395Y120689D01*
X568397Y120741D01*
X568377Y120810D01*
X568367Y120881D01*
X568343Y120927D01*
X568328Y120977D01*
X568288Y121036D01*
X568255Y121100D01*
X568218Y121137D01*
X568188Y121179D01*
X568131Y121222D01*
X568079Y121272D01*
X568017Y121307D01*
X567991Y121326D01*
X567969Y121333D01*
X567933Y121353D01*
X564448Y122796D01*
X560946Y126298D01*
X559051Y130874D01*
X559051Y135826D01*
X560946Y140402D01*
X564448Y143904D01*
X568742Y145682D01*
X568828Y145735D01*
X568917Y145784D01*
X568932Y145800D01*
X568951Y145812D01*
X569015Y145889D01*
X569084Y145964D01*
X569094Y145984D01*
X569108Y146001D01*
X569144Y146095D01*
X569186Y146188D01*
X569188Y146210D01*
X569196Y146231D01*
X569200Y146332D01*
X569210Y146433D01*
X569205Y146454D01*
X569206Y146476D01*
X569178Y146573D01*
X569155Y146672D01*
X569144Y146691D01*
X569138Y146713D01*
X569080Y146796D01*
X569027Y146882D01*
X569010Y146896D01*
X568997Y146915D01*
X568916Y146975D01*
X568839Y147040D01*
X568814Y147051D01*
X568800Y147061D01*
X568769Y147072D01*
X568686Y147109D01*
X566916Y147684D01*
X565242Y148537D01*
X563721Y149642D01*
X562392Y150971D01*
X561287Y152492D01*
X560434Y154166D01*
X559853Y155954D01*
X559652Y157227D01*
X570738Y157227D01*
X570758Y157230D01*
X570777Y157228D01*
X570879Y157250D01*
X570981Y157267D01*
X570998Y157276D01*
X571018Y157280D01*
X571107Y157333D01*
X571198Y157382D01*
X571212Y157396D01*
X571229Y157406D01*
X571296Y157485D01*
X571367Y157560D01*
X571376Y157578D01*
X571389Y157593D01*
X571427Y157689D01*
X571471Y157783D01*
X571473Y157803D01*
X571481Y157821D01*
X571499Y157988D01*
X571499Y159512D01*
X571496Y159532D01*
X571498Y159551D01*
X571476Y159653D01*
X571459Y159755D01*
X571450Y159772D01*
X571446Y159792D01*
X571393Y159881D01*
X571344Y159972D01*
X571330Y159986D01*
X571320Y160003D01*
X571241Y160070D01*
X571166Y160141D01*
X571148Y160150D01*
X571133Y160163D01*
X571037Y160202D01*
X570943Y160245D01*
X570923Y160247D01*
X570905Y160255D01*
X570738Y160273D01*
X559652Y160273D01*
X559853Y161546D01*
X560434Y163334D01*
X561287Y165008D01*
X562392Y166529D01*
X563721Y167858D01*
X565242Y168963D01*
X566916Y169816D01*
X568686Y170391D01*
X568776Y170437D01*
X568868Y170478D01*
X568885Y170493D01*
X568904Y170504D01*
X568975Y170576D01*
X569049Y170645D01*
X569060Y170664D01*
X569075Y170680D01*
X569119Y170771D01*
X569168Y170860D01*
X569172Y170882D01*
X569181Y170902D01*
X569194Y171003D01*
X569212Y171102D01*
X569208Y171124D01*
X569211Y171146D01*
X569191Y171245D01*
X569176Y171346D01*
X569166Y171366D01*
X569161Y171387D01*
X569110Y171475D01*
X569064Y171565D01*
X569048Y171581D01*
X569037Y171600D01*
X568961Y171666D01*
X568889Y171737D01*
X568865Y171751D01*
X568852Y171761D01*
X568822Y171774D01*
X568742Y171818D01*
X564448Y173596D01*
X560946Y177098D01*
X559051Y181674D01*
X559051Y186626D01*
X560946Y191202D01*
X560977Y191232D01*
X561018Y191290D01*
X561068Y191342D01*
X561090Y191389D01*
X561120Y191431D01*
X561141Y191500D01*
X561171Y191565D01*
X561177Y191617D01*
X561192Y191666D01*
X561191Y191738D01*
X561199Y191809D01*
X561187Y191860D01*
X561186Y191912D01*
X561162Y191980D01*
X561146Y192050D01*
X561120Y192095D01*
X561102Y192143D01*
X561057Y192199D01*
X561020Y192261D01*
X560981Y192295D01*
X560948Y192335D01*
X560888Y192374D01*
X560833Y192421D01*
X560785Y192440D01*
X560741Y192468D01*
X560672Y192486D01*
X560605Y192513D01*
X560534Y192521D01*
X560503Y192529D01*
X560479Y192527D01*
X560438Y192531D01*
X430162Y192531D01*
X430091Y192520D01*
X430019Y192518D01*
X429970Y192500D01*
X429919Y192492D01*
X429856Y192458D01*
X429788Y192433D01*
X429748Y192401D01*
X429702Y192376D01*
X429652Y192324D01*
X429596Y192280D01*
X429568Y192236D01*
X429532Y192198D01*
X429502Y192133D01*
X429463Y192073D01*
X429451Y192022D01*
X429429Y191975D01*
X429421Y191904D01*
X429403Y191834D01*
X429407Y191782D01*
X429401Y191731D01*
X429417Y191660D01*
X429422Y191589D01*
X429443Y191541D01*
X429454Y191490D01*
X429491Y191429D01*
X429519Y191363D01*
X429563Y191307D01*
X429580Y191279D01*
X429598Y191264D01*
X429623Y191232D01*
X429654Y191202D01*
X431549Y186626D01*
X431549Y181674D01*
X429654Y177098D01*
X426152Y173596D01*
X422667Y172153D01*
X422607Y172115D01*
X422541Y172086D01*
X422503Y172051D01*
X422458Y172024D01*
X422413Y171968D01*
X422360Y171920D01*
X422335Y171874D01*
X422302Y171834D01*
X422276Y171767D01*
X422241Y171704D01*
X422232Y171653D01*
X422213Y171605D01*
X422210Y171533D01*
X422198Y171462D01*
X422205Y171411D01*
X422203Y171359D01*
X422223Y171290D01*
X422233Y171219D01*
X422257Y171173D01*
X422272Y171123D01*
X422312Y171064D01*
X422345Y171000D01*
X422382Y170963D01*
X422412Y170921D01*
X422469Y170878D01*
X422521Y170828D01*
X422583Y170793D01*
X422609Y170774D01*
X422631Y170767D01*
X422667Y170747D01*
X426152Y169304D01*
X429654Y165802D01*
X431549Y161226D01*
X431549Y156274D01*
X429654Y151698D01*
X426152Y148196D01*
X422667Y146753D01*
X422607Y146715D01*
X422541Y146686D01*
X422503Y146651D01*
X422458Y146624D01*
X422413Y146568D01*
X422360Y146520D01*
X422335Y146474D01*
X422302Y146434D01*
X422276Y146367D01*
X422241Y146304D01*
X422232Y146253D01*
X422213Y146205D01*
X422210Y146133D01*
X422198Y146062D01*
X422205Y146011D01*
X422203Y145959D01*
X422223Y145890D01*
X422233Y145819D01*
X422257Y145773D01*
X422272Y145723D01*
X422312Y145664D01*
X422345Y145600D01*
X422382Y145563D01*
X422412Y145521D01*
X422469Y145478D01*
X422521Y145428D01*
X422583Y145393D01*
X422609Y145374D01*
X422631Y145367D01*
X422667Y145347D01*
X426152Y143904D01*
X429654Y140402D01*
X431549Y135826D01*
X431549Y130874D01*
X429654Y126298D01*
X426152Y122796D01*
X422667Y121353D01*
X422607Y121315D01*
X422541Y121286D01*
X422503Y121251D01*
X422458Y121224D01*
X422413Y121168D01*
X422360Y121120D01*
X422335Y121074D01*
X422302Y121034D01*
X422276Y120967D01*
X422241Y120904D01*
X422232Y120853D01*
X422213Y120805D01*
X422210Y120733D01*
X422198Y120662D01*
X422205Y120611D01*
X422203Y120559D01*
X422223Y120490D01*
X422233Y120419D01*
X422257Y120373D01*
X422272Y120323D01*
X422312Y120264D01*
X422345Y120200D01*
X422382Y120163D01*
X422412Y120121D01*
X422469Y120078D01*
X422521Y120028D01*
X422583Y119993D01*
X422609Y119974D01*
X422631Y119967D01*
X422667Y119947D01*
X426152Y118504D01*
X429654Y115002D01*
X431549Y110426D01*
X431549Y105474D01*
X429654Y100898D01*
X426152Y97396D01*
X422667Y95953D01*
X422607Y95915D01*
X422541Y95886D01*
X422503Y95851D01*
X422458Y95824D01*
X422413Y95768D01*
X422360Y95720D01*
X422335Y95674D01*
X422302Y95634D01*
X422276Y95567D01*
X422241Y95504D01*
X422232Y95453D01*
X422213Y95405D01*
X422210Y95333D01*
X422198Y95262D01*
X422205Y95211D01*
X422203Y95159D01*
X422223Y95090D01*
X422233Y95019D01*
X422257Y94973D01*
X422272Y94923D01*
X422312Y94864D01*
X422345Y94800D01*
X422382Y94763D01*
X422412Y94721D01*
X422469Y94678D01*
X422521Y94628D01*
X422583Y94593D01*
X422609Y94574D01*
X422631Y94567D01*
X422667Y94547D01*
X426152Y93104D01*
X429654Y89602D01*
X431549Y85026D01*
X431549Y80074D01*
X429654Y75498D01*
X426152Y71996D01*
X422667Y70553D01*
X422607Y70515D01*
X422541Y70486D01*
X422503Y70451D01*
X422458Y70424D01*
X422413Y70368D01*
X422360Y70320D01*
X422335Y70274D01*
X422302Y70234D01*
X422276Y70167D01*
X422241Y70104D01*
X422232Y70053D01*
X422213Y70005D01*
X422210Y69933D01*
X422198Y69862D01*
X422205Y69811D01*
X422203Y69759D01*
X422223Y69690D01*
X422233Y69619D01*
X422257Y69573D01*
X422272Y69523D01*
X422312Y69464D01*
X422345Y69400D01*
X422382Y69363D01*
X422412Y69321D01*
X422469Y69278D01*
X422521Y69228D01*
X422583Y69193D01*
X422609Y69174D01*
X422631Y69167D01*
X422667Y69147D01*
X426152Y67704D01*
X429654Y64202D01*
X431549Y59626D01*
X431549Y54674D01*
X429654Y50098D01*
X426152Y46596D01*
X422667Y45153D01*
X422607Y45115D01*
X422541Y45086D01*
X422503Y45051D01*
X422458Y45024D01*
X422413Y44968D01*
X422360Y44920D01*
X422335Y44874D01*
X422302Y44834D01*
X422276Y44767D01*
X422241Y44704D01*
X422232Y44653D01*
X422213Y44605D01*
X422210Y44533D01*
X422198Y44462D01*
X422205Y44411D01*
X422203Y44359D01*
X422223Y44290D01*
X422233Y44219D01*
X422257Y44173D01*
X422272Y44123D01*
X422312Y44064D01*
X422345Y44000D01*
X422382Y43963D01*
X422412Y43921D01*
X422469Y43878D01*
X422521Y43828D01*
X422583Y43793D01*
X422609Y43774D01*
X422631Y43767D01*
X422667Y43747D01*
X426152Y42304D01*
X429654Y38802D01*
X431549Y34226D01*
X431549Y29274D01*
X429654Y24698D01*
X426152Y21196D01*
X421576Y19301D01*
X416624Y19301D01*
X412048Y21196D01*
X408546Y24698D01*
X406651Y29274D01*
X406651Y34226D01*
X408546Y38802D01*
X412048Y42304D01*
X415533Y43747D01*
X415594Y43785D01*
X415659Y43814D01*
X415697Y43849D01*
X415742Y43876D01*
X415787Y43932D01*
X415840Y43980D01*
X415865Y44026D01*
X415898Y44066D01*
X415924Y44133D01*
X415959Y44196D01*
X415968Y44247D01*
X415987Y44295D01*
X415990Y44367D01*
X416002Y44438D01*
X415995Y44489D01*
X415997Y44541D01*
X415977Y44610D01*
X415967Y44681D01*
X415943Y44727D01*
X415928Y44777D01*
X415888Y44836D01*
X415855Y44900D01*
X415818Y44937D01*
X415788Y44979D01*
X415731Y45022D01*
X415679Y45072D01*
X415617Y45107D01*
X415591Y45126D01*
X415569Y45133D01*
X415533Y45153D01*
X412048Y46596D01*
X408546Y50098D01*
X406651Y54674D01*
X406651Y59626D01*
X408546Y64202D01*
X412048Y67704D01*
X415533Y69147D01*
X415594Y69185D01*
X415659Y69214D01*
X415697Y69249D01*
X415742Y69276D01*
X415787Y69332D01*
X415840Y69380D01*
X415865Y69426D01*
X415898Y69466D01*
X415924Y69533D01*
X415959Y69596D01*
X415968Y69647D01*
X415987Y69695D01*
X415990Y69767D01*
X416002Y69838D01*
X415995Y69889D01*
X415997Y69941D01*
X415977Y70010D01*
X415967Y70081D01*
X415943Y70127D01*
X415928Y70177D01*
X415888Y70236D01*
X415855Y70300D01*
X415818Y70337D01*
X415788Y70379D01*
X415731Y70422D01*
X415679Y70472D01*
X415617Y70507D01*
X415591Y70526D01*
X415569Y70533D01*
X415533Y70553D01*
X412048Y71996D01*
X408546Y75498D01*
X406651Y80074D01*
X406651Y85026D01*
X408546Y89602D01*
X412048Y93104D01*
X415533Y94547D01*
X415594Y94585D01*
X415659Y94614D01*
X415697Y94649D01*
X415742Y94676D01*
X415787Y94732D01*
X415840Y94780D01*
X415865Y94826D01*
X415898Y94866D01*
X415924Y94933D01*
X415959Y94996D01*
X415968Y95047D01*
X415987Y95095D01*
X415990Y95167D01*
X416002Y95238D01*
X415995Y95289D01*
X415997Y95341D01*
X415977Y95410D01*
X415967Y95481D01*
X415943Y95527D01*
X415928Y95577D01*
X415888Y95636D01*
X415855Y95700D01*
X415818Y95737D01*
X415788Y95779D01*
X415731Y95822D01*
X415679Y95872D01*
X415617Y95907D01*
X415591Y95926D01*
X415569Y95933D01*
X415533Y95953D01*
X412048Y97396D01*
X408546Y100898D01*
X406651Y105474D01*
X406651Y110426D01*
X408546Y115002D01*
X412048Y118504D01*
X415533Y119947D01*
X415594Y119985D01*
X415659Y120014D01*
X415697Y120049D01*
X415742Y120076D01*
X415787Y120132D01*
X415840Y120180D01*
X415865Y120226D01*
X415898Y120266D01*
X415924Y120333D01*
X415959Y120396D01*
X415968Y120447D01*
X415987Y120495D01*
X415990Y120567D01*
X416002Y120638D01*
X415995Y120689D01*
X415997Y120741D01*
X415977Y120810D01*
X415967Y120881D01*
X415943Y120927D01*
X415928Y120977D01*
X415888Y121036D01*
X415855Y121100D01*
X415818Y121137D01*
X415788Y121179D01*
X415731Y121222D01*
X415679Y121272D01*
X415617Y121307D01*
X415591Y121326D01*
X415569Y121333D01*
X415533Y121353D01*
X412048Y122796D01*
X408546Y126298D01*
X406651Y130874D01*
X406651Y135826D01*
X408546Y140402D01*
X412048Y143904D01*
X415533Y145347D01*
X415594Y145385D01*
X415659Y145414D01*
X415697Y145449D01*
X415742Y145476D01*
X415787Y145532D01*
X415840Y145580D01*
X415865Y145626D01*
X415898Y145666D01*
X415924Y145733D01*
X415959Y145796D01*
X415968Y145847D01*
X415987Y145895D01*
X415990Y145967D01*
X416002Y146038D01*
X415995Y146089D01*
X415997Y146141D01*
X415977Y146210D01*
X415967Y146281D01*
X415943Y146327D01*
X415928Y146377D01*
X415888Y146436D01*
X415855Y146500D01*
X415818Y146537D01*
X415788Y146579D01*
X415731Y146622D01*
X415679Y146672D01*
X415617Y146707D01*
X415591Y146726D01*
X415569Y146733D01*
X415533Y146753D01*
X412048Y148196D01*
X408546Y151698D01*
X406651Y156274D01*
X406651Y161226D01*
X408546Y165802D01*
X412048Y169304D01*
X415533Y170747D01*
X415594Y170785D01*
X415659Y170814D01*
X415697Y170849D01*
X415742Y170876D01*
X415787Y170932D01*
X415840Y170980D01*
X415865Y171026D01*
X415898Y171066D01*
X415924Y171133D01*
X415959Y171196D01*
X415968Y171247D01*
X415987Y171295D01*
X415990Y171367D01*
X416002Y171438D01*
X415995Y171489D01*
X415997Y171541D01*
X415977Y171610D01*
X415967Y171681D01*
X415943Y171727D01*
X415928Y171777D01*
X415888Y171836D01*
X415855Y171900D01*
X415818Y171937D01*
X415788Y171979D01*
X415731Y172022D01*
X415679Y172072D01*
X415617Y172107D01*
X415591Y172126D01*
X415569Y172133D01*
X415533Y172153D01*
X412048Y173596D01*
X408546Y177098D01*
X406651Y181674D01*
X406651Y186626D01*
X408546Y191202D01*
X408577Y191232D01*
X408618Y191290D01*
X408668Y191342D01*
X408690Y191389D01*
X408720Y191431D01*
X408741Y191500D01*
X408771Y191565D01*
X408777Y191617D01*
X408792Y191666D01*
X408791Y191738D01*
X408799Y191809D01*
X408787Y191860D01*
X408786Y191912D01*
X408762Y191980D01*
X408746Y192050D01*
X408720Y192095D01*
X408702Y192143D01*
X408657Y192199D01*
X408620Y192261D01*
X408581Y192295D01*
X408548Y192335D01*
X408488Y192374D01*
X408433Y192421D01*
X408385Y192440D01*
X408341Y192468D01*
X408272Y192486D01*
X408205Y192513D01*
X408134Y192521D01*
X408103Y192529D01*
X408079Y192527D01*
X408038Y192531D01*
X394339Y192531D01*
X394327Y192529D01*
X394316Y192531D01*
X394207Y192510D01*
X394096Y192492D01*
X394086Y192486D01*
X394074Y192484D01*
X393977Y192428D01*
X393879Y192376D01*
X393871Y192368D01*
X393860Y192362D01*
X393786Y192279D01*
X393710Y192198D01*
X393705Y192187D01*
X393697Y192178D01*
X393653Y192076D01*
X393606Y191975D01*
X393605Y191963D01*
X393600Y191952D01*
X393591Y191841D01*
X393579Y191731D01*
X393582Y191719D01*
X393581Y191707D01*
X393608Y191599D01*
X393631Y191490D01*
X393637Y191480D01*
X393640Y191468D01*
X393723Y191323D01*
X394388Y190408D01*
X395241Y188734D01*
X395822Y186946D01*
X396023Y185673D01*
X384937Y185673D01*
X384917Y185670D01*
X384898Y185672D01*
X384796Y185650D01*
X384694Y185633D01*
X384677Y185624D01*
X384657Y185620D01*
X384568Y185567D01*
X384477Y185518D01*
X384463Y185504D01*
X384446Y185494D01*
X384379Y185415D01*
X384308Y185340D01*
X384299Y185322D01*
X384286Y185307D01*
X384248Y185211D01*
X384204Y185117D01*
X384202Y185097D01*
X384194Y185079D01*
X384176Y184912D01*
X384176Y184149D01*
X384174Y184149D01*
X384174Y184912D01*
X384171Y184932D01*
X384173Y184951D01*
X384151Y185053D01*
X384134Y185155D01*
X384125Y185172D01*
X384121Y185192D01*
X384068Y185281D01*
X384019Y185372D01*
X384005Y185386D01*
X383995Y185403D01*
X383916Y185470D01*
X383841Y185541D01*
X383823Y185550D01*
X383808Y185563D01*
X383712Y185602D01*
X383618Y185645D01*
X383598Y185647D01*
X383580Y185655D01*
X383413Y185673D01*
X372327Y185673D01*
X372528Y186946D01*
X373109Y188734D01*
X373962Y190408D01*
X374627Y191323D01*
X374632Y191333D01*
X374640Y191342D01*
X374687Y191442D01*
X374737Y191542D01*
X374739Y191554D01*
X374744Y191565D01*
X374756Y191675D01*
X374772Y191786D01*
X374770Y191798D01*
X374771Y191809D01*
X374747Y191918D01*
X374727Y192028D01*
X374721Y192038D01*
X374719Y192050D01*
X374662Y192146D01*
X374608Y192243D01*
X374599Y192251D01*
X374593Y192261D01*
X374508Y192333D01*
X374426Y192408D01*
X374415Y192413D01*
X374406Y192421D01*
X374302Y192463D01*
X374201Y192507D01*
X374189Y192508D01*
X374177Y192513D01*
X374011Y192531D01*
X370404Y192531D01*
X370314Y192517D01*
X370223Y192509D01*
X370193Y192497D01*
X370161Y192492D01*
X370081Y192449D01*
X369997Y192413D01*
X369965Y192387D01*
X369944Y192376D01*
X369922Y192353D01*
X369866Y192308D01*
X360142Y182584D01*
X357389Y179831D01*
X312594Y179831D01*
X312504Y179817D01*
X312413Y179809D01*
X312383Y179797D01*
X312351Y179792D01*
X312270Y179749D01*
X312186Y179713D01*
X312154Y179687D01*
X312134Y179676D01*
X312111Y179653D01*
X312055Y179608D01*
X311429Y178981D01*
X309188Y178053D01*
X306762Y178053D01*
X304521Y178981D01*
X303895Y179608D01*
X303821Y179661D01*
X303751Y179721D01*
X303721Y179733D01*
X303695Y179752D01*
X303608Y179779D01*
X303523Y179813D01*
X303482Y179817D01*
X303460Y179824D01*
X303428Y179823D01*
X303356Y179831D01*
X243969Y179831D01*
X243854Y179812D01*
X243738Y179795D01*
X243733Y179793D01*
X243726Y179792D01*
X243624Y179737D01*
X243519Y179684D01*
X243515Y179679D01*
X243509Y179676D01*
X243429Y179592D01*
X243347Y179508D01*
X243343Y179502D01*
X243340Y179498D01*
X243332Y179481D01*
X243266Y179361D01*
X242329Y177098D01*
X242298Y177068D01*
X242257Y177010D01*
X242207Y176958D01*
X242185Y176911D01*
X242155Y176869D01*
X242134Y176800D01*
X242104Y176735D01*
X242098Y176683D01*
X242083Y176634D01*
X242084Y176562D01*
X242076Y176491D01*
X242088Y176440D01*
X242089Y176388D01*
X242113Y176320D01*
X242129Y176250D01*
X242155Y176205D01*
X242173Y176157D01*
X242218Y176101D01*
X242255Y176039D01*
X242294Y176005D01*
X242327Y175965D01*
X242387Y175926D01*
X242442Y175879D01*
X242490Y175860D01*
X242534Y175832D01*
X242603Y175814D01*
X242670Y175787D01*
X242741Y175779D01*
X242772Y175771D01*
X242796Y175773D01*
X242837Y175769D01*
X325639Y175769D01*
X353569Y147839D01*
X353569Y91004D01*
X353583Y90914D01*
X353591Y90823D01*
X353603Y90793D01*
X353608Y90761D01*
X353651Y90681D01*
X353687Y90597D01*
X353713Y90565D01*
X353724Y90544D01*
X353747Y90522D01*
X353792Y90466D01*
X357166Y87092D01*
X357240Y87039D01*
X357309Y86979D01*
X357339Y86967D01*
X357366Y86948D01*
X357453Y86921D01*
X357537Y86887D01*
X357578Y86883D01*
X357601Y86876D01*
X357633Y86877D01*
X357704Y86869D01*
X371981Y86869D01*
X372096Y86888D01*
X372212Y86905D01*
X372217Y86907D01*
X372224Y86908D01*
X372326Y86963D01*
X372431Y87016D01*
X372435Y87021D01*
X372441Y87024D01*
X372521Y87108D01*
X372603Y87192D01*
X372607Y87198D01*
X372610Y87202D01*
X372618Y87219D01*
X372684Y87339D01*
X373621Y89602D01*
X377123Y93104D01*
X380607Y94547D01*
X380668Y94585D01*
X380734Y94614D01*
X380772Y94649D01*
X380817Y94676D01*
X380862Y94732D01*
X380915Y94780D01*
X380940Y94826D01*
X380973Y94866D01*
X380999Y94933D01*
X381034Y94996D01*
X381043Y95047D01*
X381062Y95095D01*
X381065Y95167D01*
X381077Y95238D01*
X381070Y95289D01*
X381072Y95341D01*
X381052Y95410D01*
X381042Y95481D01*
X381018Y95527D01*
X381003Y95577D01*
X380963Y95636D01*
X380930Y95700D01*
X380893Y95737D01*
X380863Y95779D01*
X380806Y95822D01*
X380754Y95872D01*
X380692Y95907D01*
X380666Y95926D01*
X380644Y95933D01*
X380607Y95953D01*
X377123Y97396D01*
X373621Y100898D01*
X371726Y105474D01*
X371726Y110426D01*
X373621Y115002D01*
X377123Y118504D01*
X380607Y119947D01*
X380668Y119985D01*
X380734Y120014D01*
X380772Y120049D01*
X380817Y120076D01*
X380862Y120132D01*
X380915Y120180D01*
X380940Y120226D01*
X380973Y120266D01*
X380999Y120333D01*
X381034Y120396D01*
X381043Y120447D01*
X381062Y120495D01*
X381065Y120567D01*
X381077Y120638D01*
X381070Y120689D01*
X381072Y120741D01*
X381052Y120810D01*
X381042Y120881D01*
X381018Y120927D01*
X381003Y120977D01*
X380963Y121036D01*
X380930Y121100D01*
X380893Y121137D01*
X380863Y121179D01*
X380806Y121222D01*
X380754Y121272D01*
X380692Y121307D01*
X380666Y121326D01*
X380644Y121333D01*
X380607Y121353D01*
X377123Y122796D01*
X373621Y126298D01*
X371726Y130874D01*
X371726Y135826D01*
X373621Y140402D01*
X377123Y143904D01*
X381417Y145682D01*
X381503Y145735D01*
X381592Y145784D01*
X381607Y145800D01*
X381626Y145812D01*
X381690Y145889D01*
X381759Y145964D01*
X381768Y145984D01*
X381783Y146001D01*
X381819Y146095D01*
X381861Y146188D01*
X381863Y146210D01*
X381871Y146231D01*
X381875Y146332D01*
X381885Y146433D01*
X381880Y146454D01*
X381881Y146476D01*
X381853Y146573D01*
X381830Y146672D01*
X381819Y146691D01*
X381813Y146713D01*
X381755Y146796D01*
X381702Y146882D01*
X381685Y146896D01*
X381672Y146915D01*
X381591Y146975D01*
X381514Y147040D01*
X381488Y147051D01*
X381475Y147061D01*
X381444Y147072D01*
X381361Y147109D01*
X379591Y147684D01*
X377917Y148537D01*
X376396Y149642D01*
X375067Y150971D01*
X373962Y152492D01*
X373109Y154166D01*
X372528Y155954D01*
X372327Y157227D01*
X383413Y157227D01*
X383433Y157230D01*
X383452Y157228D01*
X383554Y157250D01*
X383656Y157267D01*
X383673Y157276D01*
X383693Y157280D01*
X383782Y157333D01*
X383873Y157382D01*
X383887Y157396D01*
X383904Y157406D01*
X383971Y157485D01*
X384042Y157560D01*
X384051Y157578D01*
X384064Y157593D01*
X384102Y157689D01*
X384146Y157783D01*
X384148Y157803D01*
X384156Y157821D01*
X384174Y157988D01*
X384174Y158751D01*
X384176Y158751D01*
X384176Y157988D01*
X384179Y157968D01*
X384177Y157949D01*
X384199Y157847D01*
X384216Y157745D01*
X384225Y157728D01*
X384229Y157708D01*
X384282Y157619D01*
X384331Y157528D01*
X384345Y157514D01*
X384355Y157497D01*
X384434Y157430D01*
X384509Y157359D01*
X384527Y157350D01*
X384542Y157337D01*
X384638Y157298D01*
X384732Y157255D01*
X384752Y157253D01*
X384770Y157245D01*
X384937Y157227D01*
X396023Y157227D01*
X395822Y155954D01*
X395241Y154166D01*
X394388Y152492D01*
X393283Y150971D01*
X391954Y149642D01*
X390433Y148537D01*
X388759Y147684D01*
X386989Y147109D01*
X386899Y147063D01*
X386807Y147022D01*
X386790Y147007D01*
X386771Y146996D01*
X386700Y146924D01*
X386626Y146855D01*
X386615Y146836D01*
X386600Y146820D01*
X386556Y146729D01*
X386507Y146640D01*
X386503Y146618D01*
X386494Y146598D01*
X386481Y146497D01*
X386463Y146398D01*
X386467Y146376D01*
X386464Y146354D01*
X386484Y146255D01*
X386499Y146154D01*
X386509Y146134D01*
X386514Y146113D01*
X386565Y146025D01*
X386611Y145935D01*
X386627Y145919D01*
X386638Y145900D01*
X386714Y145834D01*
X386786Y145763D01*
X386810Y145749D01*
X386823Y145739D01*
X386853Y145726D01*
X386933Y145682D01*
X391227Y143904D01*
X394729Y140402D01*
X396624Y135826D01*
X396624Y130874D01*
X394729Y126298D01*
X391227Y122796D01*
X387743Y121353D01*
X387682Y121316D01*
X387616Y121286D01*
X387578Y121251D01*
X387533Y121224D01*
X387488Y121169D01*
X387435Y121120D01*
X387410Y121074D01*
X387377Y121034D01*
X387351Y120967D01*
X387316Y120904D01*
X387307Y120853D01*
X387288Y120805D01*
X387285Y120733D01*
X387273Y120662D01*
X387280Y120611D01*
X387278Y120559D01*
X387298Y120490D01*
X387308Y120419D01*
X387332Y120373D01*
X387347Y120323D01*
X387387Y120264D01*
X387420Y120200D01*
X387457Y120163D01*
X387487Y120121D01*
X387544Y120078D01*
X387596Y120028D01*
X387658Y119993D01*
X387684Y119974D01*
X387706Y119967D01*
X387743Y119947D01*
X391227Y118504D01*
X394729Y115002D01*
X396624Y110426D01*
X396624Y105474D01*
X394729Y100898D01*
X391227Y97396D01*
X387743Y95953D01*
X387682Y95916D01*
X387616Y95886D01*
X387578Y95851D01*
X387533Y95824D01*
X387488Y95769D01*
X387435Y95720D01*
X387410Y95674D01*
X387377Y95634D01*
X387351Y95567D01*
X387316Y95504D01*
X387307Y95453D01*
X387288Y95405D01*
X387285Y95333D01*
X387273Y95262D01*
X387280Y95211D01*
X387278Y95159D01*
X387298Y95090D01*
X387308Y95019D01*
X387332Y94973D01*
X387347Y94923D01*
X387387Y94864D01*
X387420Y94800D01*
X387457Y94763D01*
X387487Y94721D01*
X387544Y94678D01*
X387596Y94628D01*
X387658Y94593D01*
X387684Y94574D01*
X387706Y94567D01*
X387743Y94547D01*
X391227Y93104D01*
X394729Y89602D01*
X396624Y85026D01*
X396624Y80074D01*
X394729Y75498D01*
X391227Y71996D01*
X387743Y70553D01*
X387682Y70516D01*
X387616Y70486D01*
X387578Y70451D01*
X387533Y70424D01*
X387488Y70369D01*
X387435Y70320D01*
X387410Y70274D01*
X387377Y70234D01*
X387351Y70167D01*
X387316Y70104D01*
X387307Y70053D01*
X387288Y70005D01*
X387285Y69933D01*
X387273Y69862D01*
X387280Y69811D01*
X387278Y69759D01*
X387298Y69690D01*
X387308Y69619D01*
X387332Y69573D01*
X387347Y69523D01*
X387387Y69464D01*
X387420Y69400D01*
X387457Y69363D01*
X387487Y69321D01*
X387544Y69278D01*
X387596Y69228D01*
X387658Y69193D01*
X387684Y69174D01*
X387706Y69167D01*
X387743Y69147D01*
X391227Y67704D01*
X394729Y64202D01*
X396624Y59626D01*
X396624Y54674D01*
X394729Y50098D01*
X391227Y46596D01*
X387743Y45153D01*
X387682Y45115D01*
X387616Y45086D01*
X387578Y45051D01*
X387533Y45024D01*
X387488Y44968D01*
X387435Y44920D01*
X387410Y44874D01*
X387377Y44834D01*
X387351Y44767D01*
X387316Y44704D01*
X387307Y44653D01*
X387288Y44605D01*
X387285Y44533D01*
X387273Y44462D01*
X387280Y44411D01*
X387278Y44359D01*
X387298Y44290D01*
X387308Y44219D01*
X387332Y44173D01*
X387347Y44123D01*
X387387Y44064D01*
X387420Y44000D01*
X387457Y43963D01*
X387487Y43921D01*
X387544Y43878D01*
X387596Y43828D01*
X387658Y43793D01*
X387684Y43774D01*
X387706Y43767D01*
X387743Y43747D01*
X391227Y42304D01*
X394729Y38802D01*
X396624Y34226D01*
X396624Y29274D01*
X394729Y24698D01*
X391227Y21196D01*
X386651Y19301D01*
X381699Y19301D01*
X377123Y21196D01*
X374287Y24033D01*
X374213Y24086D01*
X374143Y24146D01*
X374113Y24158D01*
X374087Y24177D01*
X374000Y24204D01*
X373915Y24238D01*
X373874Y24242D01*
X373852Y24249D01*
X373820Y24248D01*
X373748Y24256D01*
X322061Y24256D01*
X310006Y36311D01*
X310006Y64571D01*
X309992Y64661D01*
X309984Y64752D01*
X309972Y64782D01*
X309967Y64814D01*
X309924Y64894D01*
X309888Y64978D01*
X309862Y65010D01*
X309851Y65031D01*
X309828Y65053D01*
X309783Y65109D01*
X305012Y69880D01*
X304938Y69933D01*
X304869Y69993D01*
X304839Y70005D01*
X304812Y70024D01*
X304725Y70051D01*
X304641Y70085D01*
X304600Y70089D01*
X304577Y70096D01*
X304545Y70095D01*
X304474Y70103D01*
X303587Y70103D01*
X301346Y71031D01*
X299631Y72746D01*
X298703Y74987D01*
X298703Y77413D01*
X299631Y79654D01*
X301346Y81369D01*
X303587Y82297D01*
X306013Y82297D01*
X308254Y81369D01*
X310002Y79620D01*
X310036Y79557D01*
X310054Y79539D01*
X310068Y79517D01*
X310143Y79454D01*
X310214Y79387D01*
X310238Y79376D01*
X310258Y79360D01*
X310349Y79325D01*
X310437Y79284D01*
X310463Y79281D01*
X310487Y79272D01*
X310585Y79267D01*
X310681Y79257D01*
X310707Y79262D01*
X310733Y79261D01*
X310827Y79288D01*
X310922Y79309D01*
X310944Y79322D01*
X310969Y79329D01*
X311049Y79385D01*
X311133Y79435D01*
X311150Y79455D01*
X311171Y79470D01*
X311229Y79548D01*
X311293Y79622D01*
X311303Y79646D01*
X311318Y79667D01*
X311348Y79759D01*
X311385Y79850D01*
X311388Y79882D01*
X311394Y79901D01*
X311394Y79934D01*
X311403Y80017D01*
X311403Y80588D01*
X312331Y82829D01*
X314046Y84544D01*
X316287Y85472D01*
X318713Y85472D01*
X320954Y84544D01*
X322669Y82829D01*
X323597Y80588D01*
X323597Y79701D01*
X323611Y79611D01*
X323619Y79520D01*
X323631Y79490D01*
X323636Y79458D01*
X323679Y79378D01*
X323715Y79294D01*
X323741Y79262D01*
X323752Y79241D01*
X323775Y79219D01*
X323820Y79163D01*
X324994Y77989D01*
X324994Y65604D01*
X325008Y65514D01*
X325016Y65423D01*
X325028Y65393D01*
X325033Y65361D01*
X325076Y65281D01*
X325112Y65197D01*
X325138Y65165D01*
X325149Y65144D01*
X325172Y65122D01*
X325217Y65066D01*
X328591Y61692D01*
X328665Y61639D01*
X328734Y61579D01*
X328764Y61567D01*
X328791Y61548D01*
X328878Y61521D01*
X328962Y61487D01*
X329003Y61483D01*
X329026Y61476D01*
X329058Y61477D01*
X329129Y61469D01*
X371981Y61469D01*
X372096Y61488D01*
X372212Y61505D01*
X372217Y61507D01*
X372224Y61508D01*
X372326Y61563D01*
X372431Y61616D01*
X372435Y61621D01*
X372441Y61624D01*
X372521Y61708D01*
X372603Y61792D01*
X372607Y61798D01*
X372610Y61802D01*
X372618Y61819D01*
X372684Y61939D01*
X373621Y64202D01*
X377123Y67704D01*
X380607Y69147D01*
X380668Y69185D01*
X380734Y69214D01*
X380772Y69249D01*
X380817Y69276D01*
X380862Y69332D01*
X380915Y69380D01*
X380940Y69426D01*
X380973Y69466D01*
X380999Y69533D01*
X381034Y69596D01*
X381043Y69647D01*
X381062Y69695D01*
X381065Y69767D01*
X381077Y69838D01*
X381070Y69889D01*
X381072Y69941D01*
X381052Y70010D01*
X381042Y70081D01*
X381018Y70127D01*
X381003Y70177D01*
X380963Y70236D01*
X380930Y70300D01*
X380893Y70337D01*
X380863Y70379D01*
X380806Y70422D01*
X380754Y70472D01*
X380692Y70507D01*
X380666Y70526D01*
X380644Y70533D01*
X380607Y70553D01*
X377123Y71996D01*
X373621Y75498D01*
X372684Y77761D01*
X372622Y77861D01*
X372563Y77961D01*
X372558Y77965D01*
X372555Y77970D01*
X372464Y78045D01*
X372376Y78121D01*
X372370Y78123D01*
X372365Y78127D01*
X372257Y78169D01*
X372148Y78213D01*
X372140Y78214D01*
X372135Y78215D01*
X372117Y78216D01*
X371981Y78231D01*
X353811Y78231D01*
X344931Y87111D01*
X344931Y143946D01*
X344917Y144036D01*
X344909Y144127D01*
X344897Y144157D01*
X344892Y144189D01*
X344849Y144269D01*
X344813Y144353D01*
X344787Y144385D01*
X344776Y144406D01*
X344753Y144428D01*
X344708Y144484D01*
X322284Y166908D01*
X322210Y166961D01*
X322141Y167021D01*
X322111Y167033D01*
X322084Y167052D01*
X321997Y167079D01*
X321913Y167113D01*
X321872Y167117D01*
X321849Y167124D01*
X321817Y167123D01*
X321746Y167131D01*
X242837Y167131D01*
X242766Y167120D01*
X242694Y167118D01*
X242645Y167100D01*
X242594Y167092D01*
X242531Y167058D01*
X242463Y167033D01*
X242423Y167001D01*
X242377Y166976D01*
X242327Y166924D01*
X242271Y166880D01*
X242243Y166836D01*
X242207Y166798D01*
X242177Y166733D01*
X242138Y166673D01*
X242126Y166622D01*
X242104Y166575D01*
X242096Y166504D01*
X242078Y166434D01*
X242082Y166382D01*
X242076Y166331D01*
X242092Y166260D01*
X242097Y166189D01*
X242118Y166141D01*
X242129Y166090D01*
X242166Y166029D01*
X242194Y165963D01*
X242238Y165907D01*
X242255Y165879D01*
X242273Y165864D01*
X242298Y165832D01*
X242329Y165802D01*
X244224Y161226D01*
X244224Y156274D01*
X242329Y151698D01*
X240092Y149462D01*
X240081Y149446D01*
X240065Y149433D01*
X240009Y149346D01*
X239949Y149262D01*
X239943Y149243D01*
X239932Y149226D01*
X239907Y149126D01*
X239876Y149027D01*
X239877Y149007D01*
X239872Y148988D01*
X239880Y148885D01*
X239883Y148781D01*
X239889Y148763D01*
X239891Y148743D01*
X239931Y148648D01*
X239967Y148550D01*
X239980Y148535D01*
X239987Y148516D01*
X240092Y148385D01*
X241061Y147417D01*
X241135Y147364D01*
X241204Y147304D01*
X241234Y147292D01*
X241261Y147273D01*
X241348Y147246D01*
X241432Y147212D01*
X241473Y147208D01*
X241496Y147201D01*
X241528Y147202D01*
X241599Y147194D01*
X274781Y147194D01*
X274871Y147208D01*
X274962Y147216D01*
X274992Y147228D01*
X275024Y147233D01*
X275105Y147276D01*
X275189Y147312D01*
X275221Y147338D01*
X275241Y147349D01*
X275264Y147372D01*
X275320Y147417D01*
X275946Y148044D01*
X278187Y148972D01*
X280613Y148972D01*
X282854Y148044D01*
X284569Y146329D01*
X285497Y144088D01*
X285497Y141662D01*
X284569Y139421D01*
X282854Y137706D01*
X280613Y136778D01*
X278187Y136778D01*
X275946Y137706D01*
X275320Y138333D01*
X275246Y138386D01*
X275176Y138446D01*
X275146Y138458D01*
X275120Y138477D01*
X275033Y138504D01*
X274948Y138538D01*
X274907Y138542D01*
X274885Y138549D01*
X274853Y138548D01*
X274781Y138556D01*
X244232Y138556D01*
X244187Y138549D01*
X244141Y138551D01*
X244066Y138529D01*
X243989Y138517D01*
X243949Y138495D01*
X243905Y138482D01*
X243841Y138438D01*
X243772Y138401D01*
X243740Y138368D01*
X243703Y138342D01*
X243656Y138280D01*
X243603Y138223D01*
X243583Y138181D01*
X243556Y138145D01*
X243532Y138071D01*
X243499Y138000D01*
X243494Y137954D01*
X243480Y137911D01*
X243481Y137833D01*
X243472Y137756D01*
X243482Y137711D01*
X243482Y137665D01*
X243520Y137533D01*
X243524Y137515D01*
X243526Y137513D01*
X243526Y137510D01*
X243528Y137508D01*
X243529Y137504D01*
X244224Y135826D01*
X244224Y130874D01*
X242329Y126298D01*
X238827Y122796D01*
X235342Y121353D01*
X235282Y121315D01*
X235216Y121286D01*
X235178Y121251D01*
X235133Y121224D01*
X235088Y121168D01*
X235035Y121120D01*
X235010Y121074D01*
X234977Y121034D01*
X234951Y120967D01*
X234916Y120904D01*
X234907Y120853D01*
X234888Y120805D01*
X234885Y120733D01*
X234873Y120662D01*
X234880Y120611D01*
X234878Y120559D01*
X234898Y120490D01*
X234908Y120419D01*
X234932Y120373D01*
X234947Y120323D01*
X234987Y120264D01*
X235020Y120200D01*
X235057Y120163D01*
X235087Y120121D01*
X235144Y120078D01*
X235196Y120028D01*
X235258Y119993D01*
X235284Y119974D01*
X235306Y119967D01*
X235342Y119947D01*
X238827Y118504D01*
X242329Y115002D01*
X244224Y110426D01*
X244224Y105474D01*
X242329Y100898D01*
X238827Y97396D01*
X235342Y95953D01*
X235282Y95915D01*
X235216Y95886D01*
X235178Y95851D01*
X235133Y95824D01*
X235088Y95768D01*
X235035Y95720D01*
X235010Y95674D01*
X234977Y95634D01*
X234951Y95567D01*
X234916Y95504D01*
X234907Y95453D01*
X234888Y95405D01*
X234885Y95333D01*
X234873Y95262D01*
X234880Y95211D01*
X234878Y95159D01*
X234898Y95090D01*
X234908Y95019D01*
X234932Y94973D01*
X234947Y94923D01*
X234987Y94864D01*
X235020Y94800D01*
X235057Y94763D01*
X235087Y94721D01*
X235144Y94678D01*
X235196Y94628D01*
X235258Y94593D01*
X235284Y94574D01*
X235306Y94567D01*
X235342Y94547D01*
X238827Y93104D01*
X242329Y89602D01*
X244224Y85026D01*
X244224Y80074D01*
X242329Y75498D01*
X238827Y71996D01*
X235342Y70553D01*
X235282Y70515D01*
X235216Y70486D01*
X235178Y70451D01*
X235133Y70424D01*
X235088Y70368D01*
X235035Y70320D01*
X235010Y70274D01*
X234977Y70234D01*
X234951Y70167D01*
X234916Y70104D01*
X234907Y70053D01*
X234888Y70005D01*
X234885Y69933D01*
X234873Y69862D01*
X234880Y69811D01*
X234878Y69759D01*
X234898Y69690D01*
X234908Y69619D01*
X234932Y69573D01*
X234947Y69523D01*
X234987Y69464D01*
X235020Y69400D01*
X235057Y69363D01*
X235087Y69321D01*
X235144Y69278D01*
X235196Y69228D01*
X235258Y69193D01*
X235284Y69174D01*
X235306Y69167D01*
X235342Y69147D01*
X238827Y67704D01*
X242329Y64202D01*
X244224Y59626D01*
X244224Y54674D01*
X242329Y50098D01*
X238827Y46596D01*
X235342Y45153D01*
X235282Y45115D01*
X235216Y45086D01*
X235178Y45051D01*
X235133Y45024D01*
X235088Y44968D01*
X235035Y44920D01*
X235010Y44874D01*
X234977Y44834D01*
X234951Y44767D01*
X234916Y44704D01*
X234907Y44653D01*
X234888Y44605D01*
X234885Y44533D01*
X234873Y44462D01*
X234880Y44411D01*
X234878Y44359D01*
X234898Y44290D01*
X234908Y44219D01*
X234932Y44173D01*
X234947Y44123D01*
X234987Y44064D01*
X235020Y44000D01*
X235057Y43963D01*
X235087Y43921D01*
X235144Y43878D01*
X235196Y43828D01*
X235258Y43793D01*
X235284Y43774D01*
X235306Y43767D01*
X235342Y43747D01*
X238827Y42304D01*
X242329Y38802D01*
X244224Y34226D01*
X244224Y29274D01*
X242329Y24698D01*
X238827Y21196D01*
X234251Y19301D01*
X229299Y19301D01*
G37*
%LPD*%
%LPC*%
G36*
X943674Y19301D02*
X943674Y19301D01*
X939098Y21196D01*
X935596Y24698D01*
X933701Y29274D01*
X933701Y34226D01*
X935596Y38802D01*
X939098Y42304D01*
X942583Y43747D01*
X942643Y43785D01*
X942709Y43814D01*
X942747Y43849D01*
X942792Y43876D01*
X942837Y43932D01*
X942890Y43980D01*
X942915Y44026D01*
X942948Y44066D01*
X942974Y44133D01*
X943009Y44196D01*
X943018Y44247D01*
X943037Y44295D01*
X943040Y44367D01*
X943052Y44438D01*
X943045Y44489D01*
X943047Y44541D01*
X943027Y44610D01*
X943017Y44681D01*
X942993Y44727D01*
X942978Y44777D01*
X942938Y44836D01*
X942905Y44900D01*
X942868Y44937D01*
X942838Y44979D01*
X942781Y45022D01*
X942729Y45072D01*
X942667Y45107D01*
X942641Y45126D01*
X942619Y45133D01*
X942583Y45153D01*
X939098Y46596D01*
X935596Y50098D01*
X933701Y54674D01*
X933701Y59626D01*
X935596Y64202D01*
X939098Y67704D01*
X942583Y69147D01*
X942643Y69185D01*
X942709Y69214D01*
X942747Y69249D01*
X942792Y69276D01*
X942837Y69332D01*
X942890Y69380D01*
X942915Y69426D01*
X942948Y69466D01*
X942974Y69533D01*
X943009Y69596D01*
X943018Y69647D01*
X943037Y69695D01*
X943040Y69767D01*
X943052Y69838D01*
X943045Y69889D01*
X943047Y69941D01*
X943027Y70010D01*
X943017Y70081D01*
X942993Y70127D01*
X942978Y70177D01*
X942938Y70236D01*
X942905Y70300D01*
X942868Y70337D01*
X942838Y70379D01*
X942781Y70422D01*
X942729Y70472D01*
X942667Y70507D01*
X942641Y70526D01*
X942619Y70533D01*
X942583Y70553D01*
X939098Y71996D01*
X935596Y75498D01*
X933701Y80074D01*
X933701Y85026D01*
X935596Y89602D01*
X939098Y93104D01*
X942583Y94547D01*
X942643Y94585D01*
X942709Y94614D01*
X942747Y94649D01*
X942792Y94676D01*
X942837Y94732D01*
X942890Y94780D01*
X942915Y94826D01*
X942948Y94866D01*
X942974Y94933D01*
X943009Y94996D01*
X943018Y95047D01*
X943037Y95095D01*
X943040Y95167D01*
X943052Y95238D01*
X943045Y95289D01*
X943047Y95341D01*
X943027Y95410D01*
X943017Y95481D01*
X942993Y95527D01*
X942978Y95577D01*
X942938Y95636D01*
X942905Y95700D01*
X942868Y95737D01*
X942838Y95779D01*
X942781Y95822D01*
X942729Y95872D01*
X942667Y95907D01*
X942641Y95926D01*
X942619Y95933D01*
X942583Y95953D01*
X939098Y97396D01*
X935596Y100898D01*
X933701Y105474D01*
X933701Y110426D01*
X935596Y115002D01*
X939098Y118504D01*
X942583Y119947D01*
X942643Y119985D01*
X942709Y120014D01*
X942747Y120049D01*
X942792Y120076D01*
X942837Y120132D01*
X942890Y120180D01*
X942915Y120226D01*
X942948Y120266D01*
X942974Y120333D01*
X943009Y120396D01*
X943018Y120447D01*
X943037Y120495D01*
X943040Y120567D01*
X943052Y120638D01*
X943045Y120689D01*
X943047Y120741D01*
X943027Y120810D01*
X943017Y120881D01*
X942993Y120927D01*
X942978Y120977D01*
X942938Y121036D01*
X942905Y121100D01*
X942868Y121137D01*
X942838Y121179D01*
X942781Y121222D01*
X942729Y121272D01*
X942667Y121307D01*
X942641Y121326D01*
X942619Y121333D01*
X942583Y121353D01*
X939098Y122796D01*
X935596Y126298D01*
X933701Y130874D01*
X933701Y135826D01*
X935596Y140402D01*
X939098Y143904D01*
X942583Y145347D01*
X942643Y145385D01*
X942709Y145414D01*
X942747Y145449D01*
X942792Y145476D01*
X942837Y145532D01*
X942890Y145580D01*
X942915Y145626D01*
X942948Y145666D01*
X942974Y145733D01*
X943009Y145796D01*
X943018Y145847D01*
X943037Y145895D01*
X943040Y145967D01*
X943052Y146038D01*
X943045Y146089D01*
X943047Y146141D01*
X943027Y146210D01*
X943017Y146281D01*
X942993Y146327D01*
X942978Y146377D01*
X942938Y146436D01*
X942905Y146500D01*
X942868Y146537D01*
X942838Y146579D01*
X942781Y146622D01*
X942729Y146672D01*
X942667Y146707D01*
X942641Y146726D01*
X942619Y146733D01*
X942583Y146753D01*
X939098Y148196D01*
X935596Y151698D01*
X933701Y156274D01*
X933701Y161226D01*
X935596Y165802D01*
X939098Y169304D01*
X942583Y170747D01*
X942643Y170785D01*
X942709Y170814D01*
X942747Y170849D01*
X942792Y170876D01*
X942837Y170932D01*
X942890Y170980D01*
X942915Y171026D01*
X942948Y171066D01*
X942974Y171133D01*
X943009Y171196D01*
X943018Y171247D01*
X943037Y171295D01*
X943040Y171367D01*
X943052Y171438D01*
X943045Y171489D01*
X943047Y171541D01*
X943027Y171610D01*
X943017Y171681D01*
X942993Y171727D01*
X942978Y171777D01*
X942938Y171836D01*
X942905Y171900D01*
X942868Y171937D01*
X942838Y171979D01*
X942781Y172022D01*
X942729Y172072D01*
X942667Y172107D01*
X942641Y172126D01*
X942619Y172133D01*
X942583Y172153D01*
X939098Y173596D01*
X935596Y177098D01*
X933701Y181674D01*
X933701Y186626D01*
X935596Y191202D01*
X939098Y194704D01*
X942583Y196147D01*
X942643Y196185D01*
X942709Y196214D01*
X942747Y196249D01*
X942792Y196276D01*
X942837Y196332D01*
X942890Y196380D01*
X942915Y196426D01*
X942948Y196466D01*
X942974Y196533D01*
X943009Y196596D01*
X943018Y196647D01*
X943037Y196695D01*
X943040Y196767D01*
X943052Y196838D01*
X943045Y196889D01*
X943047Y196941D01*
X943027Y197010D01*
X943017Y197081D01*
X942993Y197127D01*
X942978Y197177D01*
X942938Y197236D01*
X942905Y197300D01*
X942868Y197337D01*
X942838Y197379D01*
X942781Y197422D01*
X942729Y197472D01*
X942667Y197507D01*
X942641Y197526D01*
X942619Y197533D01*
X942583Y197553D01*
X939098Y198996D01*
X935596Y202498D01*
X933701Y207074D01*
X933701Y212026D01*
X935596Y216602D01*
X939098Y220104D01*
X942583Y221547D01*
X942643Y221585D01*
X942709Y221614D01*
X942747Y221649D01*
X942792Y221676D01*
X942837Y221732D01*
X942890Y221780D01*
X942915Y221826D01*
X942948Y221866D01*
X942974Y221933D01*
X943009Y221996D01*
X943018Y222047D01*
X943037Y222095D01*
X943040Y222167D01*
X943052Y222238D01*
X943045Y222289D01*
X943047Y222341D01*
X943027Y222410D01*
X943017Y222481D01*
X942993Y222527D01*
X942978Y222577D01*
X942938Y222636D01*
X942905Y222700D01*
X942868Y222737D01*
X942838Y222779D01*
X942781Y222822D01*
X942729Y222872D01*
X942667Y222907D01*
X942641Y222926D01*
X942619Y222933D01*
X942583Y222953D01*
X939098Y224396D01*
X935596Y227898D01*
X933701Y232474D01*
X933701Y237426D01*
X935596Y242002D01*
X939098Y245504D01*
X942582Y246947D01*
X942643Y246984D01*
X942709Y247014D01*
X942747Y247049D01*
X942792Y247076D01*
X942837Y247131D01*
X942890Y247180D01*
X942915Y247226D01*
X942948Y247266D01*
X942974Y247333D01*
X943009Y247396D01*
X943018Y247447D01*
X943037Y247495D01*
X943040Y247567D01*
X943052Y247638D01*
X943045Y247689D01*
X943047Y247741D01*
X943027Y247810D01*
X943017Y247881D01*
X942993Y247927D01*
X942978Y247977D01*
X942938Y248036D01*
X942905Y248100D01*
X942868Y248137D01*
X942838Y248179D01*
X942781Y248222D01*
X942729Y248272D01*
X942667Y248307D01*
X942641Y248326D01*
X942619Y248333D01*
X942582Y248353D01*
X939098Y249796D01*
X935596Y253298D01*
X933701Y257874D01*
X933701Y262826D01*
X935596Y267402D01*
X939098Y270904D01*
X943392Y272682D01*
X943478Y272735D01*
X943567Y272784D01*
X943582Y272800D01*
X943601Y272812D01*
X943665Y272889D01*
X943734Y272964D01*
X943743Y272984D01*
X943758Y273001D01*
X943794Y273095D01*
X943836Y273188D01*
X943838Y273210D01*
X943846Y273231D01*
X943850Y273332D01*
X943860Y273433D01*
X943855Y273454D01*
X943856Y273476D01*
X943828Y273573D01*
X943805Y273672D01*
X943794Y273691D01*
X943788Y273713D01*
X943730Y273796D01*
X943677Y273882D01*
X943660Y273896D01*
X943647Y273915D01*
X943566Y273975D01*
X943489Y274040D01*
X943463Y274051D01*
X943450Y274061D01*
X943419Y274072D01*
X943336Y274109D01*
X941566Y274684D01*
X939892Y275537D01*
X938371Y276642D01*
X937042Y277971D01*
X935937Y279492D01*
X935084Y281166D01*
X934503Y282954D01*
X934302Y284227D01*
X945388Y284227D01*
X945408Y284230D01*
X945427Y284228D01*
X945529Y284250D01*
X945631Y284267D01*
X945648Y284276D01*
X945668Y284280D01*
X945757Y284333D01*
X945848Y284382D01*
X945862Y284396D01*
X945879Y284406D01*
X945946Y284485D01*
X946017Y284560D01*
X946026Y284578D01*
X946039Y284593D01*
X946077Y284689D01*
X946121Y284783D01*
X946123Y284803D01*
X946131Y284821D01*
X946149Y284988D01*
X946149Y286512D01*
X946146Y286532D01*
X946148Y286551D01*
X946126Y286653D01*
X946109Y286755D01*
X946100Y286772D01*
X946096Y286792D01*
X946043Y286881D01*
X945994Y286972D01*
X945980Y286986D01*
X945970Y287003D01*
X945891Y287070D01*
X945816Y287141D01*
X945798Y287150D01*
X945783Y287163D01*
X945687Y287202D01*
X945593Y287245D01*
X945573Y287247D01*
X945555Y287255D01*
X945388Y287273D01*
X934302Y287273D01*
X934503Y288546D01*
X935084Y290334D01*
X935937Y292008D01*
X937042Y293529D01*
X938371Y294858D01*
X939892Y295963D01*
X941566Y296816D01*
X943336Y297391D01*
X943426Y297437D01*
X943518Y297478D01*
X943535Y297493D01*
X943554Y297504D01*
X943625Y297576D01*
X943699Y297645D01*
X943710Y297664D01*
X943725Y297680D01*
X943769Y297771D01*
X943818Y297860D01*
X943822Y297882D01*
X943831Y297902D01*
X943844Y298003D01*
X943862Y298102D01*
X943858Y298124D01*
X943861Y298146D01*
X943841Y298245D01*
X943826Y298346D01*
X943816Y298366D01*
X943811Y298387D01*
X943760Y298475D01*
X943714Y298565D01*
X943698Y298581D01*
X943687Y298600D01*
X943611Y298666D01*
X943539Y298737D01*
X943515Y298751D01*
X943502Y298761D01*
X943472Y298774D01*
X943392Y298818D01*
X939098Y300596D01*
X935596Y304098D01*
X933701Y308674D01*
X933701Y313626D01*
X935596Y318202D01*
X939098Y321704D01*
X943674Y323599D01*
X948626Y323599D01*
X953202Y321704D01*
X956704Y318202D01*
X958599Y313626D01*
X958599Y308674D01*
X956704Y304098D01*
X953202Y300596D01*
X948908Y298818D01*
X948822Y298765D01*
X948733Y298716D01*
X948718Y298700D01*
X948699Y298688D01*
X948635Y298611D01*
X948566Y298536D01*
X948557Y298516D01*
X948542Y298499D01*
X948506Y298405D01*
X948464Y298312D01*
X948462Y298290D01*
X948454Y298269D01*
X948450Y298168D01*
X948440Y298067D01*
X948445Y298046D01*
X948444Y298024D01*
X948472Y297927D01*
X948495Y297828D01*
X948506Y297809D01*
X948512Y297787D01*
X948570Y297704D01*
X948623Y297618D01*
X948640Y297604D01*
X948653Y297585D01*
X948734Y297525D01*
X948811Y297460D01*
X948837Y297449D01*
X948850Y297439D01*
X948881Y297428D01*
X948964Y297391D01*
X950734Y296816D01*
X952408Y295963D01*
X953929Y294858D01*
X955258Y293529D01*
X956363Y292008D01*
X957216Y290334D01*
X957797Y288546D01*
X957998Y287273D01*
X946912Y287273D01*
X946892Y287270D01*
X946873Y287272D01*
X946771Y287250D01*
X946669Y287233D01*
X946652Y287224D01*
X946632Y287220D01*
X946543Y287167D01*
X946452Y287118D01*
X946438Y287104D01*
X946421Y287094D01*
X946354Y287015D01*
X946283Y286940D01*
X946274Y286922D01*
X946261Y286907D01*
X946223Y286811D01*
X946179Y286717D01*
X946177Y286697D01*
X946169Y286679D01*
X946151Y286512D01*
X946151Y284988D01*
X946154Y284968D01*
X946152Y284949D01*
X946174Y284847D01*
X946191Y284745D01*
X946200Y284728D01*
X946204Y284708D01*
X946257Y284619D01*
X946306Y284528D01*
X946320Y284514D01*
X946330Y284497D01*
X946409Y284430D01*
X946484Y284359D01*
X946502Y284350D01*
X946517Y284337D01*
X946613Y284298D01*
X946707Y284255D01*
X946727Y284253D01*
X946745Y284245D01*
X946912Y284227D01*
X957998Y284227D01*
X957797Y282954D01*
X957216Y281166D01*
X956363Y279492D01*
X955258Y277971D01*
X953929Y276642D01*
X952408Y275537D01*
X950734Y274684D01*
X948964Y274109D01*
X948874Y274063D01*
X948782Y274022D01*
X948765Y274007D01*
X948746Y273996D01*
X948675Y273924D01*
X948601Y273855D01*
X948590Y273836D01*
X948575Y273820D01*
X948531Y273729D01*
X948482Y273640D01*
X948478Y273618D01*
X948469Y273598D01*
X948456Y273497D01*
X948438Y273398D01*
X948442Y273376D01*
X948439Y273354D01*
X948459Y273255D01*
X948474Y273154D01*
X948484Y273134D01*
X948489Y273113D01*
X948540Y273025D01*
X948586Y272935D01*
X948602Y272919D01*
X948613Y272900D01*
X948689Y272834D01*
X948761Y272763D01*
X948785Y272749D01*
X948798Y272739D01*
X948828Y272726D01*
X948908Y272682D01*
X953202Y270904D01*
X956704Y267402D01*
X958599Y262826D01*
X958599Y257874D01*
X956704Y253298D01*
X953202Y249796D01*
X949718Y248353D01*
X949657Y248315D01*
X949591Y248286D01*
X949553Y248251D01*
X949508Y248224D01*
X949463Y248168D01*
X949410Y248120D01*
X949385Y248074D01*
X949352Y248034D01*
X949326Y247967D01*
X949291Y247904D01*
X949282Y247853D01*
X949263Y247805D01*
X949260Y247733D01*
X949248Y247662D01*
X949255Y247611D01*
X949253Y247559D01*
X949273Y247490D01*
X949283Y247419D01*
X949307Y247373D01*
X949322Y247323D01*
X949362Y247264D01*
X949395Y247200D01*
X949432Y247163D01*
X949462Y247121D01*
X949519Y247078D01*
X949571Y247028D01*
X949633Y246993D01*
X949659Y246974D01*
X949681Y246967D01*
X949718Y246947D01*
X953202Y245504D01*
X956704Y242002D01*
X958599Y237426D01*
X958599Y232474D01*
X956704Y227898D01*
X953202Y224396D01*
X949717Y222953D01*
X949656Y222915D01*
X949591Y222886D01*
X949553Y222851D01*
X949508Y222824D01*
X949463Y222768D01*
X949410Y222720D01*
X949385Y222674D01*
X949352Y222634D01*
X949326Y222567D01*
X949291Y222504D01*
X949282Y222453D01*
X949263Y222405D01*
X949260Y222333D01*
X949248Y222262D01*
X949255Y222211D01*
X949253Y222159D01*
X949273Y222090D01*
X949283Y222019D01*
X949307Y221973D01*
X949322Y221923D01*
X949362Y221864D01*
X949395Y221800D01*
X949432Y221763D01*
X949462Y221721D01*
X949519Y221678D01*
X949571Y221628D01*
X949633Y221593D01*
X949659Y221574D01*
X949681Y221567D01*
X949717Y221547D01*
X953202Y220104D01*
X956704Y216602D01*
X958599Y212026D01*
X958599Y207074D01*
X956704Y202498D01*
X953202Y198996D01*
X949717Y197553D01*
X949656Y197515D01*
X949591Y197486D01*
X949553Y197451D01*
X949508Y197424D01*
X949463Y197368D01*
X949410Y197320D01*
X949385Y197274D01*
X949352Y197234D01*
X949326Y197167D01*
X949291Y197104D01*
X949282Y197053D01*
X949263Y197005D01*
X949260Y196933D01*
X949248Y196862D01*
X949255Y196811D01*
X949253Y196759D01*
X949273Y196690D01*
X949283Y196619D01*
X949307Y196573D01*
X949322Y196523D01*
X949362Y196464D01*
X949395Y196400D01*
X949432Y196363D01*
X949462Y196321D01*
X949519Y196278D01*
X949571Y196228D01*
X949633Y196193D01*
X949659Y196174D01*
X949681Y196167D01*
X949717Y196147D01*
X953202Y194704D01*
X956704Y191202D01*
X958599Y186626D01*
X958599Y181674D01*
X956704Y177098D01*
X953202Y173596D01*
X949717Y172153D01*
X949656Y172115D01*
X949591Y172086D01*
X949553Y172051D01*
X949508Y172024D01*
X949463Y171968D01*
X949410Y171920D01*
X949385Y171874D01*
X949352Y171834D01*
X949326Y171767D01*
X949291Y171704D01*
X949282Y171653D01*
X949263Y171605D01*
X949260Y171533D01*
X949248Y171462D01*
X949255Y171411D01*
X949253Y171359D01*
X949273Y171290D01*
X949283Y171219D01*
X949307Y171173D01*
X949322Y171123D01*
X949362Y171064D01*
X949395Y171000D01*
X949432Y170963D01*
X949462Y170921D01*
X949519Y170878D01*
X949571Y170828D01*
X949633Y170793D01*
X949659Y170774D01*
X949681Y170767D01*
X949717Y170747D01*
X953202Y169304D01*
X956704Y165802D01*
X958599Y161226D01*
X958599Y156274D01*
X956704Y151698D01*
X953202Y148196D01*
X949717Y146753D01*
X949656Y146715D01*
X949591Y146686D01*
X949553Y146651D01*
X949508Y146624D01*
X949463Y146568D01*
X949410Y146520D01*
X949385Y146474D01*
X949352Y146434D01*
X949326Y146367D01*
X949291Y146304D01*
X949282Y146253D01*
X949263Y146205D01*
X949260Y146133D01*
X949248Y146062D01*
X949255Y146011D01*
X949253Y145959D01*
X949273Y145890D01*
X949283Y145819D01*
X949307Y145773D01*
X949322Y145723D01*
X949362Y145664D01*
X949395Y145600D01*
X949432Y145563D01*
X949462Y145521D01*
X949519Y145478D01*
X949571Y145428D01*
X949633Y145393D01*
X949659Y145374D01*
X949681Y145367D01*
X949717Y145347D01*
X953202Y143904D01*
X956704Y140402D01*
X958599Y135826D01*
X958599Y130874D01*
X956704Y126298D01*
X953202Y122796D01*
X949717Y121353D01*
X949656Y121315D01*
X949591Y121286D01*
X949553Y121251D01*
X949508Y121224D01*
X949463Y121168D01*
X949410Y121120D01*
X949385Y121074D01*
X949352Y121034D01*
X949326Y120967D01*
X949291Y120904D01*
X949282Y120853D01*
X949263Y120805D01*
X949260Y120733D01*
X949248Y120662D01*
X949255Y120611D01*
X949253Y120559D01*
X949273Y120490D01*
X949283Y120419D01*
X949307Y120373D01*
X949322Y120323D01*
X949362Y120264D01*
X949395Y120200D01*
X949432Y120163D01*
X949462Y120121D01*
X949519Y120078D01*
X949571Y120028D01*
X949633Y119993D01*
X949659Y119974D01*
X949681Y119967D01*
X949717Y119947D01*
X953202Y118504D01*
X956704Y115002D01*
X958599Y110426D01*
X958599Y105474D01*
X956704Y100898D01*
X953202Y97396D01*
X949717Y95953D01*
X949656Y95915D01*
X949591Y95886D01*
X949553Y95851D01*
X949508Y95824D01*
X949463Y95768D01*
X949410Y95720D01*
X949385Y95674D01*
X949352Y95634D01*
X949326Y95567D01*
X949291Y95504D01*
X949282Y95453D01*
X949263Y95405D01*
X949260Y95333D01*
X949248Y95262D01*
X949255Y95211D01*
X949253Y95159D01*
X949273Y95090D01*
X949283Y95019D01*
X949307Y94973D01*
X949322Y94923D01*
X949362Y94864D01*
X949395Y94800D01*
X949432Y94763D01*
X949462Y94721D01*
X949519Y94678D01*
X949571Y94628D01*
X949633Y94593D01*
X949659Y94574D01*
X949681Y94567D01*
X949717Y94547D01*
X953202Y93104D01*
X956704Y89602D01*
X958599Y85026D01*
X958599Y80074D01*
X956704Y75498D01*
X953202Y71996D01*
X949717Y70553D01*
X949656Y70515D01*
X949591Y70486D01*
X949553Y70451D01*
X949508Y70424D01*
X949463Y70368D01*
X949410Y70320D01*
X949385Y70274D01*
X949352Y70234D01*
X949326Y70167D01*
X949291Y70104D01*
X949282Y70053D01*
X949263Y70005D01*
X949260Y69933D01*
X949248Y69862D01*
X949255Y69811D01*
X949253Y69759D01*
X949273Y69690D01*
X949283Y69619D01*
X949307Y69573D01*
X949322Y69523D01*
X949362Y69464D01*
X949395Y69400D01*
X949432Y69363D01*
X949462Y69321D01*
X949519Y69278D01*
X949571Y69228D01*
X949633Y69193D01*
X949659Y69174D01*
X949681Y69167D01*
X949717Y69147D01*
X953202Y67704D01*
X956704Y64202D01*
X958599Y59626D01*
X958599Y54674D01*
X956704Y50098D01*
X953202Y46596D01*
X949717Y45153D01*
X949656Y45115D01*
X949591Y45086D01*
X949553Y45051D01*
X949508Y45024D01*
X949463Y44968D01*
X949410Y44920D01*
X949385Y44874D01*
X949352Y44834D01*
X949326Y44767D01*
X949291Y44704D01*
X949282Y44653D01*
X949263Y44605D01*
X949260Y44533D01*
X949248Y44462D01*
X949255Y44411D01*
X949253Y44359D01*
X949273Y44290D01*
X949283Y44219D01*
X949307Y44173D01*
X949322Y44123D01*
X949362Y44064D01*
X949395Y44000D01*
X949432Y43963D01*
X949462Y43921D01*
X949519Y43878D01*
X949571Y43828D01*
X949633Y43793D01*
X949659Y43774D01*
X949681Y43767D01*
X949717Y43747D01*
X953202Y42304D01*
X956704Y38802D01*
X958599Y34226D01*
X958599Y29274D01*
X956704Y24698D01*
X953202Y21196D01*
X948626Y19301D01*
X943674Y19301D01*
G37*
%LPD*%
%LPC*%
G36*
X74987Y168528D02*
X74987Y168528D01*
X72746Y169456D01*
X71031Y171171D01*
X70103Y173412D01*
X70103Y175838D01*
X71031Y178079D01*
X71658Y178705D01*
X71711Y178779D01*
X71771Y178849D01*
X71783Y178879D01*
X71802Y178905D01*
X71829Y178992D01*
X71863Y179077D01*
X71867Y179118D01*
X71874Y179140D01*
X71873Y179172D01*
X71881Y179244D01*
X71881Y182764D01*
X89819Y200702D01*
X89872Y200776D01*
X89932Y200845D01*
X89944Y200875D01*
X89963Y200902D01*
X89990Y200989D01*
X90024Y201073D01*
X90028Y201114D01*
X90035Y201137D01*
X90034Y201169D01*
X90042Y201240D01*
X90042Y213022D01*
X113441Y236421D01*
X113494Y236495D01*
X113554Y236565D01*
X113566Y236595D01*
X113585Y236621D01*
X113612Y236708D01*
X113646Y236793D01*
X113650Y236834D01*
X113657Y236856D01*
X113656Y236888D01*
X113664Y236960D01*
X113664Y239159D01*
X120124Y245619D01*
X123484Y245619D01*
X123504Y245622D01*
X123523Y245620D01*
X123625Y245642D01*
X123727Y245658D01*
X123744Y245668D01*
X123764Y245672D01*
X123853Y245725D01*
X123944Y245774D01*
X123958Y245788D01*
X123975Y245798D01*
X124042Y245877D01*
X124114Y245952D01*
X124122Y245970D01*
X124135Y245985D01*
X124174Y246081D01*
X124217Y246175D01*
X124219Y246195D01*
X124227Y246213D01*
X124245Y246380D01*
X124245Y248863D01*
X125173Y251104D01*
X126888Y252819D01*
X129129Y253747D01*
X131555Y253747D01*
X133796Y252819D01*
X135511Y251104D01*
X136439Y248863D01*
X136439Y246437D01*
X135511Y244196D01*
X134884Y243570D01*
X134831Y243496D01*
X134771Y243426D01*
X134759Y243396D01*
X134740Y243370D01*
X134713Y243283D01*
X134679Y243198D01*
X134675Y243157D01*
X134668Y243135D01*
X134669Y243103D01*
X134661Y243031D01*
X134661Y242853D01*
X131908Y240100D01*
X129710Y237902D01*
X129641Y237807D01*
X129572Y237714D01*
X129570Y237708D01*
X129566Y237703D01*
X129532Y237591D01*
X129496Y237480D01*
X129496Y237473D01*
X129494Y237467D01*
X129497Y237351D01*
X129498Y237234D01*
X129500Y237227D01*
X129500Y237222D01*
X129507Y237204D01*
X129545Y237073D01*
X129922Y236163D01*
X129922Y233737D01*
X128994Y231496D01*
X127279Y229781D01*
X125038Y228853D01*
X124151Y228853D01*
X124061Y228839D01*
X123970Y228831D01*
X123940Y228819D01*
X123908Y228814D01*
X123828Y228771D01*
X123744Y228735D01*
X123712Y228709D01*
X123691Y228698D01*
X123669Y228675D01*
X123613Y228630D01*
X102967Y207984D01*
X102914Y207910D01*
X102854Y207841D01*
X102842Y207811D01*
X102823Y207784D01*
X102796Y207697D01*
X102762Y207613D01*
X102758Y207572D01*
X102751Y207549D01*
X102752Y207517D01*
X102744Y207446D01*
X102744Y179244D01*
X102758Y179154D01*
X102766Y179063D01*
X102778Y179033D01*
X102783Y179001D01*
X102826Y178920D01*
X102862Y178836D01*
X102888Y178804D01*
X102899Y178784D01*
X102922Y178761D01*
X102967Y178705D01*
X103594Y178079D01*
X104522Y175838D01*
X104522Y173412D01*
X103594Y171171D01*
X101879Y169456D01*
X99638Y168528D01*
X97212Y168528D01*
X94971Y169456D01*
X93256Y171171D01*
X92328Y173412D01*
X92328Y175838D01*
X93256Y178079D01*
X93883Y178705D01*
X93936Y178779D01*
X93996Y178849D01*
X94008Y178879D01*
X94027Y178905D01*
X94054Y178992D01*
X94088Y179077D01*
X94092Y179118D01*
X94099Y179140D01*
X94098Y179172D01*
X94106Y179244D01*
X94106Y190936D01*
X94095Y191007D01*
X94093Y191078D01*
X94075Y191127D01*
X94067Y191179D01*
X94033Y191242D01*
X94008Y191309D01*
X93976Y191350D01*
X93951Y191396D01*
X93900Y191445D01*
X93855Y191501D01*
X93811Y191530D01*
X93773Y191565D01*
X93708Y191596D01*
X93648Y191634D01*
X93597Y191647D01*
X93550Y191669D01*
X93479Y191677D01*
X93409Y191694D01*
X93357Y191690D01*
X93306Y191696D01*
X93235Y191681D01*
X93164Y191675D01*
X93116Y191655D01*
X93065Y191644D01*
X93004Y191607D01*
X92938Y191579D01*
X92882Y191534D01*
X92854Y191518D01*
X92839Y191500D01*
X92807Y191474D01*
X80928Y179596D01*
X80916Y179579D01*
X80901Y179567D01*
X80845Y179480D01*
X80785Y179396D01*
X80779Y179377D01*
X80768Y179360D01*
X80743Y179260D01*
X80712Y179161D01*
X80713Y179141D01*
X80708Y179121D01*
X80716Y179018D01*
X80719Y178915D01*
X80725Y178896D01*
X80727Y178876D01*
X80767Y178781D01*
X80803Y178684D01*
X80816Y178668D01*
X80823Y178650D01*
X80928Y178519D01*
X81369Y178078D01*
X82297Y175838D01*
X82297Y173412D01*
X81369Y171171D01*
X79654Y169456D01*
X77413Y168528D01*
X74987Y168528D01*
G37*
%LPD*%
%LPC*%
G36*
X606424Y260349D02*
X606424Y260349D01*
X606424Y261112D01*
X606421Y261132D01*
X606423Y261151D01*
X606401Y261253D01*
X606384Y261355D01*
X606375Y261372D01*
X606371Y261392D01*
X606318Y261481D01*
X606269Y261572D01*
X606255Y261586D01*
X606245Y261603D01*
X606166Y261670D01*
X606091Y261741D01*
X606073Y261750D01*
X606058Y261763D01*
X605962Y261802D01*
X605868Y261845D01*
X605848Y261847D01*
X605830Y261855D01*
X605663Y261873D01*
X594577Y261873D01*
X594778Y263146D01*
X595359Y264934D01*
X596212Y266608D01*
X597317Y268129D01*
X598646Y269458D01*
X600167Y270563D01*
X601841Y271416D01*
X603611Y271991D01*
X603701Y272037D01*
X603793Y272078D01*
X603810Y272093D01*
X603829Y272104D01*
X603900Y272176D01*
X603974Y272245D01*
X603985Y272264D01*
X604000Y272280D01*
X604044Y272371D01*
X604093Y272460D01*
X604097Y272482D01*
X604106Y272502D01*
X604119Y272603D01*
X604137Y272702D01*
X604133Y272724D01*
X604136Y272746D01*
X604116Y272845D01*
X604101Y272946D01*
X604091Y272966D01*
X604086Y272987D01*
X604035Y273075D01*
X603989Y273165D01*
X603973Y273181D01*
X603962Y273200D01*
X603886Y273266D01*
X603814Y273337D01*
X603790Y273351D01*
X603777Y273361D01*
X603747Y273374D01*
X603667Y273418D01*
X599373Y275196D01*
X595871Y278698D01*
X593976Y283274D01*
X593976Y288226D01*
X595871Y292802D01*
X599373Y296304D01*
X602857Y297747D01*
X602918Y297784D01*
X602984Y297814D01*
X603022Y297849D01*
X603067Y297876D01*
X603112Y297931D01*
X603165Y297980D01*
X603190Y298026D01*
X603223Y298066D01*
X603249Y298133D01*
X603284Y298196D01*
X603293Y298247D01*
X603312Y298295D01*
X603315Y298367D01*
X603327Y298438D01*
X603320Y298489D01*
X603322Y298541D01*
X603302Y298610D01*
X603292Y298681D01*
X603268Y298727D01*
X603253Y298777D01*
X603213Y298836D01*
X603180Y298900D01*
X603143Y298937D01*
X603113Y298979D01*
X603056Y299022D01*
X603004Y299072D01*
X602942Y299107D01*
X602916Y299126D01*
X602894Y299133D01*
X602857Y299153D01*
X599373Y300596D01*
X595871Y304098D01*
X593976Y308674D01*
X593976Y313626D01*
X595871Y318202D01*
X599373Y321704D01*
X603949Y323599D01*
X608901Y323599D01*
X613477Y321704D01*
X616979Y318202D01*
X618874Y313626D01*
X618874Y308674D01*
X616979Y304098D01*
X613477Y300596D01*
X609993Y299153D01*
X609932Y299115D01*
X609866Y299086D01*
X609828Y299051D01*
X609783Y299024D01*
X609738Y298968D01*
X609685Y298920D01*
X609660Y298874D01*
X609627Y298834D01*
X609601Y298767D01*
X609566Y298704D01*
X609557Y298653D01*
X609538Y298605D01*
X609535Y298533D01*
X609523Y298462D01*
X609530Y298411D01*
X609528Y298359D01*
X609548Y298290D01*
X609558Y298219D01*
X609582Y298173D01*
X609597Y298123D01*
X609637Y298064D01*
X609670Y298000D01*
X609707Y297963D01*
X609737Y297921D01*
X609794Y297878D01*
X609846Y297828D01*
X609908Y297793D01*
X609934Y297774D01*
X609956Y297767D01*
X609993Y297747D01*
X613477Y296304D01*
X616979Y292802D01*
X618874Y288226D01*
X618874Y283274D01*
X616979Y278698D01*
X613477Y275196D01*
X609183Y273418D01*
X609097Y273365D01*
X609008Y273316D01*
X608993Y273300D01*
X608974Y273288D01*
X608910Y273211D01*
X608841Y273136D01*
X608832Y273116D01*
X608817Y273099D01*
X608781Y273005D01*
X608739Y272912D01*
X608737Y272890D01*
X608729Y272869D01*
X608725Y272768D01*
X608715Y272667D01*
X608720Y272646D01*
X608719Y272624D01*
X608747Y272527D01*
X608770Y272428D01*
X608781Y272409D01*
X608787Y272387D01*
X608845Y272304D01*
X608898Y272218D01*
X608915Y272204D01*
X608928Y272185D01*
X609009Y272125D01*
X609086Y272060D01*
X609112Y272049D01*
X609125Y272039D01*
X609156Y272028D01*
X609239Y271991D01*
X611009Y271416D01*
X612683Y270563D01*
X614204Y269458D01*
X615533Y268129D01*
X616638Y266608D01*
X617491Y264934D01*
X618072Y263146D01*
X618273Y261873D01*
X607187Y261873D01*
X607167Y261870D01*
X607148Y261872D01*
X607046Y261850D01*
X606944Y261833D01*
X606927Y261824D01*
X606907Y261820D01*
X606818Y261767D01*
X606727Y261718D01*
X606713Y261704D01*
X606696Y261694D01*
X606629Y261615D01*
X606558Y261540D01*
X606549Y261522D01*
X606536Y261507D01*
X606498Y261411D01*
X606454Y261317D01*
X606452Y261297D01*
X606444Y261279D01*
X606426Y261112D01*
X606426Y260349D01*
X606424Y260349D01*
G37*
%LPD*%
%LPC*%
G36*
X419099Y260349D02*
X419099Y260349D01*
X419099Y261112D01*
X419096Y261132D01*
X419098Y261151D01*
X419076Y261253D01*
X419059Y261355D01*
X419050Y261372D01*
X419046Y261392D01*
X418993Y261481D01*
X418944Y261572D01*
X418930Y261586D01*
X418920Y261603D01*
X418841Y261670D01*
X418766Y261741D01*
X418748Y261750D01*
X418733Y261763D01*
X418637Y261802D01*
X418543Y261845D01*
X418523Y261847D01*
X418505Y261855D01*
X418338Y261873D01*
X407252Y261873D01*
X407453Y263146D01*
X408034Y264934D01*
X408887Y266608D01*
X409992Y268129D01*
X411321Y269458D01*
X412842Y270563D01*
X414516Y271416D01*
X416286Y271991D01*
X416376Y272037D01*
X416468Y272078D01*
X416485Y272093D01*
X416504Y272104D01*
X416575Y272176D01*
X416649Y272245D01*
X416660Y272264D01*
X416675Y272280D01*
X416719Y272371D01*
X416768Y272460D01*
X416772Y272482D01*
X416781Y272502D01*
X416794Y272603D01*
X416812Y272702D01*
X416808Y272724D01*
X416811Y272746D01*
X416791Y272845D01*
X416776Y272946D01*
X416766Y272966D01*
X416761Y272987D01*
X416710Y273075D01*
X416664Y273165D01*
X416648Y273181D01*
X416637Y273200D01*
X416561Y273266D01*
X416489Y273337D01*
X416465Y273351D01*
X416452Y273361D01*
X416422Y273374D01*
X416342Y273418D01*
X412048Y275196D01*
X408546Y278698D01*
X406651Y283274D01*
X406651Y288226D01*
X408546Y292802D01*
X412048Y296304D01*
X415532Y297747D01*
X415593Y297784D01*
X415659Y297814D01*
X415697Y297849D01*
X415742Y297876D01*
X415787Y297931D01*
X415840Y297980D01*
X415865Y298026D01*
X415898Y298066D01*
X415924Y298133D01*
X415959Y298196D01*
X415968Y298247D01*
X415987Y298295D01*
X415990Y298367D01*
X416002Y298438D01*
X415995Y298489D01*
X415997Y298541D01*
X415977Y298610D01*
X415967Y298681D01*
X415943Y298727D01*
X415928Y298777D01*
X415888Y298836D01*
X415855Y298900D01*
X415818Y298937D01*
X415788Y298979D01*
X415731Y299022D01*
X415679Y299072D01*
X415617Y299107D01*
X415591Y299126D01*
X415569Y299133D01*
X415532Y299153D01*
X412048Y300596D01*
X408546Y304098D01*
X406651Y308674D01*
X406651Y313626D01*
X408546Y318202D01*
X412048Y321704D01*
X416624Y323599D01*
X421576Y323599D01*
X426152Y321704D01*
X429654Y318202D01*
X431549Y313626D01*
X431549Y308674D01*
X429654Y304098D01*
X426152Y300596D01*
X422668Y299153D01*
X422607Y299115D01*
X422541Y299086D01*
X422503Y299051D01*
X422458Y299024D01*
X422413Y298968D01*
X422360Y298920D01*
X422335Y298874D01*
X422302Y298834D01*
X422276Y298767D01*
X422241Y298704D01*
X422232Y298653D01*
X422213Y298605D01*
X422210Y298533D01*
X422198Y298462D01*
X422205Y298411D01*
X422203Y298359D01*
X422223Y298290D01*
X422233Y298219D01*
X422257Y298173D01*
X422272Y298123D01*
X422312Y298064D01*
X422345Y298000D01*
X422382Y297963D01*
X422412Y297921D01*
X422469Y297878D01*
X422521Y297828D01*
X422583Y297793D01*
X422609Y297774D01*
X422631Y297767D01*
X422668Y297747D01*
X426152Y296304D01*
X429654Y292802D01*
X431549Y288226D01*
X431549Y283274D01*
X429654Y278698D01*
X426152Y275196D01*
X421858Y273418D01*
X421772Y273365D01*
X421683Y273316D01*
X421668Y273300D01*
X421649Y273288D01*
X421585Y273211D01*
X421516Y273136D01*
X421507Y273116D01*
X421492Y273099D01*
X421456Y273005D01*
X421414Y272912D01*
X421412Y272890D01*
X421404Y272869D01*
X421400Y272768D01*
X421390Y272667D01*
X421395Y272646D01*
X421394Y272624D01*
X421422Y272527D01*
X421445Y272428D01*
X421456Y272409D01*
X421462Y272387D01*
X421520Y272304D01*
X421573Y272218D01*
X421590Y272204D01*
X421603Y272185D01*
X421684Y272125D01*
X421761Y272060D01*
X421787Y272049D01*
X421800Y272039D01*
X421831Y272028D01*
X421914Y271991D01*
X423684Y271416D01*
X425358Y270563D01*
X426879Y269458D01*
X428208Y268129D01*
X429313Y266608D01*
X430166Y264934D01*
X430747Y263146D01*
X430948Y261873D01*
X419862Y261873D01*
X419842Y261870D01*
X419823Y261872D01*
X419721Y261850D01*
X419619Y261833D01*
X419602Y261824D01*
X419582Y261820D01*
X419493Y261767D01*
X419402Y261718D01*
X419388Y261704D01*
X419371Y261694D01*
X419304Y261615D01*
X419233Y261540D01*
X419224Y261522D01*
X419211Y261507D01*
X419173Y261411D01*
X419129Y261317D01*
X419127Y261297D01*
X419119Y261279D01*
X419101Y261112D01*
X419101Y260349D01*
X419099Y260349D01*
G37*
%LPD*%
%LPC*%
G36*
X793749Y260349D02*
X793749Y260349D01*
X793749Y261112D01*
X793746Y261132D01*
X793748Y261151D01*
X793726Y261253D01*
X793709Y261355D01*
X793700Y261372D01*
X793696Y261392D01*
X793643Y261481D01*
X793594Y261572D01*
X793580Y261586D01*
X793570Y261603D01*
X793491Y261670D01*
X793416Y261741D01*
X793398Y261750D01*
X793383Y261763D01*
X793287Y261802D01*
X793193Y261845D01*
X793173Y261847D01*
X793155Y261855D01*
X792988Y261873D01*
X781902Y261873D01*
X782103Y263146D01*
X782684Y264934D01*
X783537Y266608D01*
X784642Y268129D01*
X785971Y269458D01*
X787492Y270563D01*
X789166Y271416D01*
X790936Y271991D01*
X791026Y272037D01*
X791118Y272078D01*
X791135Y272093D01*
X791154Y272104D01*
X791225Y272176D01*
X791299Y272245D01*
X791310Y272264D01*
X791325Y272280D01*
X791369Y272371D01*
X791418Y272460D01*
X791422Y272482D01*
X791431Y272502D01*
X791444Y272603D01*
X791462Y272702D01*
X791458Y272724D01*
X791461Y272746D01*
X791441Y272845D01*
X791426Y272946D01*
X791416Y272966D01*
X791411Y272987D01*
X791360Y273075D01*
X791314Y273165D01*
X791298Y273181D01*
X791287Y273200D01*
X791211Y273266D01*
X791139Y273337D01*
X791115Y273351D01*
X791102Y273361D01*
X791072Y273374D01*
X790992Y273418D01*
X786698Y275196D01*
X783196Y278698D01*
X781301Y283274D01*
X781301Y288226D01*
X783196Y292802D01*
X786698Y296304D01*
X790182Y297747D01*
X790243Y297784D01*
X790309Y297814D01*
X790347Y297849D01*
X790392Y297876D01*
X790437Y297931D01*
X790490Y297980D01*
X790515Y298026D01*
X790548Y298066D01*
X790574Y298133D01*
X790609Y298196D01*
X790618Y298247D01*
X790637Y298295D01*
X790640Y298367D01*
X790652Y298438D01*
X790645Y298489D01*
X790647Y298541D01*
X790627Y298610D01*
X790617Y298681D01*
X790593Y298727D01*
X790578Y298777D01*
X790538Y298836D01*
X790505Y298900D01*
X790468Y298937D01*
X790438Y298979D01*
X790381Y299022D01*
X790329Y299072D01*
X790267Y299107D01*
X790241Y299126D01*
X790219Y299133D01*
X790182Y299153D01*
X786698Y300596D01*
X783196Y304098D01*
X781301Y308674D01*
X781301Y313626D01*
X783196Y318202D01*
X786698Y321704D01*
X791274Y323599D01*
X796226Y323599D01*
X800802Y321704D01*
X804304Y318202D01*
X806199Y313626D01*
X806199Y308674D01*
X804304Y304098D01*
X800802Y300596D01*
X797318Y299153D01*
X797257Y299115D01*
X797191Y299086D01*
X797153Y299051D01*
X797108Y299024D01*
X797063Y298968D01*
X797010Y298920D01*
X796985Y298874D01*
X796952Y298834D01*
X796926Y298767D01*
X796891Y298704D01*
X796882Y298653D01*
X796863Y298605D01*
X796860Y298533D01*
X796848Y298462D01*
X796855Y298411D01*
X796853Y298359D01*
X796873Y298290D01*
X796883Y298219D01*
X796907Y298173D01*
X796922Y298123D01*
X796962Y298064D01*
X796995Y298000D01*
X797032Y297963D01*
X797062Y297921D01*
X797119Y297878D01*
X797171Y297828D01*
X797233Y297793D01*
X797259Y297774D01*
X797281Y297767D01*
X797318Y297747D01*
X800802Y296304D01*
X804304Y292802D01*
X806199Y288226D01*
X806199Y283274D01*
X804304Y278698D01*
X800802Y275196D01*
X796508Y273418D01*
X796422Y273365D01*
X796333Y273316D01*
X796318Y273300D01*
X796299Y273288D01*
X796235Y273211D01*
X796166Y273136D01*
X796157Y273116D01*
X796142Y273099D01*
X796106Y273005D01*
X796064Y272912D01*
X796062Y272890D01*
X796054Y272869D01*
X796050Y272768D01*
X796040Y272667D01*
X796045Y272646D01*
X796044Y272624D01*
X796072Y272527D01*
X796095Y272428D01*
X796106Y272409D01*
X796112Y272387D01*
X796170Y272304D01*
X796223Y272218D01*
X796240Y272204D01*
X796253Y272185D01*
X796334Y272125D01*
X796411Y272060D01*
X796437Y272049D01*
X796450Y272039D01*
X796481Y272028D01*
X796564Y271991D01*
X798334Y271416D01*
X800008Y270563D01*
X801529Y269458D01*
X802858Y268129D01*
X803963Y266608D01*
X804816Y264934D01*
X805397Y263146D01*
X805598Y261873D01*
X794512Y261873D01*
X794492Y261870D01*
X794473Y261872D01*
X794371Y261850D01*
X794269Y261833D01*
X794252Y261824D01*
X794232Y261820D01*
X794143Y261767D01*
X794052Y261718D01*
X794038Y261704D01*
X794021Y261694D01*
X793954Y261615D01*
X793883Y261540D01*
X793874Y261522D01*
X793861Y261507D01*
X793823Y261411D01*
X793779Y261317D01*
X793777Y261297D01*
X793769Y261279D01*
X793751Y261112D01*
X793751Y260349D01*
X793749Y260349D01*
G37*
%LPD*%
%LPC*%
G36*
X152907Y74548D02*
X152907Y74548D01*
X152907Y92168D01*
X155134Y91875D01*
X157562Y91224D01*
X159884Y90262D01*
X162061Y89005D01*
X164056Y87474D01*
X165833Y85697D01*
X167364Y83702D01*
X168621Y81525D01*
X169583Y79203D01*
X170234Y76775D01*
X170527Y74548D01*
X152907Y74548D01*
G37*
%LPD*%
%LPC*%
G36*
X21589Y74548D02*
X21589Y74548D01*
X21589Y92168D01*
X23816Y91875D01*
X26244Y91224D01*
X28566Y90262D01*
X30743Y89005D01*
X32738Y87474D01*
X34515Y85697D01*
X36046Y83702D01*
X37303Y81525D01*
X38265Y79203D01*
X38916Y76775D01*
X39209Y74548D01*
X21589Y74548D01*
G37*
%LPD*%
%LPC*%
G36*
X132241Y74548D02*
X132241Y74548D01*
X132534Y76775D01*
X133185Y79203D01*
X134147Y81525D01*
X135404Y83702D01*
X136935Y85697D01*
X138712Y87474D01*
X140707Y89005D01*
X142884Y90262D01*
X145206Y91224D01*
X147634Y91875D01*
X149861Y92168D01*
X149861Y74548D01*
X132241Y74548D01*
G37*
%LPD*%
%LPC*%
G36*
X21589Y71502D02*
X21589Y71502D01*
X39209Y71502D01*
X38916Y69275D01*
X38265Y66847D01*
X37303Y64525D01*
X36046Y62348D01*
X34515Y60353D01*
X32738Y58576D01*
X30743Y57045D01*
X28566Y55788D01*
X26244Y54826D01*
X23816Y54175D01*
X21589Y53882D01*
X21589Y71502D01*
G37*
%LPD*%
%LPC*%
G36*
X152907Y71502D02*
X152907Y71502D01*
X170527Y71502D01*
X170234Y69275D01*
X169583Y66847D01*
X168621Y64525D01*
X167364Y62348D01*
X165833Y60353D01*
X164056Y58576D01*
X162061Y57045D01*
X159884Y55788D01*
X157562Y54826D01*
X155134Y54175D01*
X152907Y53882D01*
X152907Y71502D01*
G37*
%LPD*%
%LPC*%
G36*
X147634Y54175D02*
X147634Y54175D01*
X145206Y54826D01*
X142884Y55788D01*
X140707Y57045D01*
X138712Y58576D01*
X136935Y60353D01*
X135404Y62348D01*
X134147Y64525D01*
X133185Y66847D01*
X132534Y69275D01*
X132241Y71502D01*
X149861Y71502D01*
X149861Y53882D01*
X147634Y54175D01*
G37*
%LPD*%
%LPC*%
G36*
X607948Y236473D02*
X607948Y236473D01*
X607948Y246798D01*
X609221Y246597D01*
X611009Y246016D01*
X612683Y245163D01*
X614204Y244058D01*
X615533Y242729D01*
X616638Y241208D01*
X617491Y239534D01*
X618072Y237746D01*
X618273Y236473D01*
X607948Y236473D01*
G37*
%LPD*%
%LPC*%
G36*
X233298Y236473D02*
X233298Y236473D01*
X233298Y246798D01*
X234571Y246597D01*
X236359Y246016D01*
X238033Y245163D01*
X239554Y244058D01*
X240883Y242729D01*
X241988Y241208D01*
X242841Y239534D01*
X243422Y237746D01*
X243623Y236473D01*
X233298Y236473D01*
G37*
%LPD*%
%LPC*%
G36*
X795273Y236473D02*
X795273Y236473D01*
X795273Y246798D01*
X796546Y246597D01*
X798334Y246016D01*
X800008Y245163D01*
X801529Y244058D01*
X802858Y242729D01*
X803963Y241208D01*
X804816Y239534D01*
X805397Y237746D01*
X805598Y236473D01*
X795273Y236473D01*
G37*
%LPD*%
%LPC*%
G36*
X420623Y236473D02*
X420623Y236473D01*
X420623Y246798D01*
X421896Y246597D01*
X423684Y246016D01*
X425358Y245163D01*
X426879Y244058D01*
X428208Y242729D01*
X429313Y241208D01*
X430166Y239534D01*
X430747Y237746D01*
X430948Y236473D01*
X420623Y236473D01*
G37*
%LPD*%
%LPC*%
G36*
X385698Y160273D02*
X385698Y160273D01*
X385698Y170598D01*
X386971Y170397D01*
X388759Y169816D01*
X390433Y168963D01*
X391954Y167858D01*
X393283Y166529D01*
X394388Y165008D01*
X395241Y163334D01*
X395822Y161546D01*
X396023Y160273D01*
X385698Y160273D01*
G37*
%LPD*%
%LPC*%
G36*
X385698Y182627D02*
X385698Y182627D01*
X396023Y182627D01*
X395822Y181354D01*
X395241Y179566D01*
X394388Y177892D01*
X393283Y176371D01*
X391954Y175042D01*
X390433Y173937D01*
X388759Y173084D01*
X386971Y172503D01*
X385698Y172302D01*
X385698Y182627D01*
G37*
%LPD*%
%LPC*%
G36*
X594577Y236473D02*
X594577Y236473D01*
X594778Y237746D01*
X595359Y239534D01*
X596212Y241208D01*
X597317Y242729D01*
X598646Y244058D01*
X600167Y245163D01*
X601841Y246016D01*
X603629Y246597D01*
X604902Y246798D01*
X604902Y236473D01*
X594577Y236473D01*
G37*
%LPD*%
%LPC*%
G36*
X781902Y236473D02*
X781902Y236473D01*
X782103Y237746D01*
X782684Y239534D01*
X783537Y241208D01*
X784642Y242729D01*
X785971Y244058D01*
X787492Y245163D01*
X789166Y246016D01*
X790954Y246597D01*
X792227Y246798D01*
X792227Y236473D01*
X781902Y236473D01*
G37*
%LPD*%
%LPC*%
G36*
X219927Y236473D02*
X219927Y236473D01*
X220128Y237746D01*
X220709Y239534D01*
X221562Y241208D01*
X222667Y242729D01*
X223996Y244058D01*
X225517Y245163D01*
X227191Y246016D01*
X228979Y246597D01*
X230252Y246798D01*
X230252Y236473D01*
X219927Y236473D01*
G37*
%LPD*%
%LPC*%
G36*
X407252Y236473D02*
X407252Y236473D01*
X407453Y237746D01*
X408034Y239534D01*
X408887Y241208D01*
X409992Y242729D01*
X411321Y244058D01*
X412842Y245163D01*
X414516Y246016D01*
X416304Y246597D01*
X417577Y246798D01*
X417577Y236473D01*
X407252Y236473D01*
G37*
%LPD*%
%LPC*%
G36*
X233298Y258827D02*
X233298Y258827D01*
X243623Y258827D01*
X243422Y257554D01*
X242841Y255766D01*
X241988Y254092D01*
X240883Y252571D01*
X239554Y251242D01*
X238033Y250137D01*
X236359Y249284D01*
X234571Y248703D01*
X233298Y248502D01*
X233298Y258827D01*
G37*
%LPD*%
%LPC*%
G36*
X420623Y258827D02*
X420623Y258827D01*
X430948Y258827D01*
X430747Y257554D01*
X430166Y255766D01*
X429313Y254092D01*
X428208Y252571D01*
X426879Y251242D01*
X425358Y250137D01*
X423684Y249284D01*
X421896Y248703D01*
X420623Y248502D01*
X420623Y258827D01*
G37*
%LPD*%
%LPC*%
G36*
X795273Y258827D02*
X795273Y258827D01*
X805598Y258827D01*
X805397Y257554D01*
X804816Y255766D01*
X803963Y254092D01*
X802858Y252571D01*
X801529Y251242D01*
X800008Y250137D01*
X798334Y249284D01*
X796546Y248703D01*
X795273Y248502D01*
X795273Y258827D01*
G37*
%LPD*%
%LPC*%
G36*
X607948Y258827D02*
X607948Y258827D01*
X618273Y258827D01*
X618072Y257554D01*
X617491Y255766D01*
X616638Y254092D01*
X615533Y252571D01*
X614204Y251242D01*
X612683Y250137D01*
X611009Y249284D01*
X609221Y248703D01*
X607948Y248502D01*
X607948Y258827D01*
G37*
%LPD*%
%LPC*%
G36*
X372327Y160273D02*
X372327Y160273D01*
X372528Y161546D01*
X373109Y163334D01*
X373962Y165008D01*
X375067Y166529D01*
X376396Y167858D01*
X377917Y168963D01*
X379591Y169816D01*
X381379Y170397D01*
X382652Y170598D01*
X382652Y160273D01*
X372327Y160273D01*
G37*
%LPD*%
%LPC*%
G36*
X381379Y172503D02*
X381379Y172503D01*
X379591Y173084D01*
X377917Y173937D01*
X376396Y175042D01*
X375067Y176371D01*
X373962Y177892D01*
X373109Y179566D01*
X372528Y181354D01*
X372327Y182627D01*
X382652Y182627D01*
X382652Y172302D01*
X381379Y172503D01*
G37*
%LPD*%
%LPC*%
G36*
X416304Y248703D02*
X416304Y248703D01*
X414516Y249284D01*
X412842Y250137D01*
X411321Y251242D01*
X409992Y252571D01*
X408887Y254092D01*
X408034Y255766D01*
X407453Y257554D01*
X407252Y258827D01*
X417577Y258827D01*
X417577Y248502D01*
X416304Y248703D01*
G37*
%LPD*%
%LPC*%
G36*
X603629Y248703D02*
X603629Y248703D01*
X601841Y249284D01*
X600167Y250137D01*
X598646Y251242D01*
X597317Y252571D01*
X596212Y254092D01*
X595359Y255766D01*
X594778Y257554D01*
X594577Y258827D01*
X604902Y258827D01*
X604902Y248502D01*
X603629Y248703D01*
G37*
%LPD*%
%LPC*%
G36*
X790954Y248703D02*
X790954Y248703D01*
X789166Y249284D01*
X787492Y250137D01*
X785971Y251242D01*
X784642Y252571D01*
X783537Y254092D01*
X782684Y255766D01*
X782103Y257554D01*
X781902Y258827D01*
X792227Y258827D01*
X792227Y248502D01*
X790954Y248703D01*
G37*
%LPD*%
%LPC*%
G36*
X228979Y248703D02*
X228979Y248703D01*
X227191Y249284D01*
X225517Y250137D01*
X223996Y251242D01*
X222667Y252571D01*
X221562Y254092D01*
X220709Y255766D01*
X220128Y257554D01*
X219927Y258827D01*
X230252Y258827D01*
X230252Y248502D01*
X228979Y248703D01*
G37*
%LPD*%
%LPC*%
G36*
X151383Y73024D02*
X151383Y73024D01*
X151383Y73026D01*
X151385Y73026D01*
X151385Y73024D01*
X151383Y73024D01*
G37*
%LPD*%
D10*
X151384Y73025D03*
X20066Y73025D03*
D11*
X384175Y311150D03*
X384175Y285750D03*
X384175Y260350D03*
X384175Y234950D03*
X384175Y209550D03*
X384175Y184150D03*
X384175Y158750D03*
X384175Y133350D03*
X384175Y107950D03*
X384175Y82550D03*
X384175Y57150D03*
X384175Y31750D03*
X231775Y31750D03*
X231775Y57150D03*
X231775Y82550D03*
X231775Y107950D03*
X231775Y133350D03*
X231775Y158750D03*
X231775Y184150D03*
X231775Y209550D03*
X231775Y234950D03*
X231775Y260350D03*
X231775Y285750D03*
X231775Y311150D03*
X571500Y311150D03*
X571500Y285750D03*
X571500Y260350D03*
X571500Y234950D03*
X571500Y209550D03*
X571500Y184150D03*
X571500Y158750D03*
X571500Y133350D03*
X571500Y107950D03*
X571500Y82550D03*
X571500Y57150D03*
X571500Y31750D03*
X419100Y31750D03*
X419100Y57150D03*
X419100Y82550D03*
X419100Y107950D03*
X419100Y133350D03*
X419100Y158750D03*
X419100Y184150D03*
X419100Y209550D03*
X419100Y234950D03*
X419100Y260350D03*
X419100Y285750D03*
X419100Y311150D03*
X758825Y311150D03*
X758825Y285750D03*
X758825Y260350D03*
X758825Y234950D03*
X758825Y209550D03*
X758825Y184150D03*
X758825Y158750D03*
X758825Y133350D03*
X758825Y107950D03*
X758825Y82550D03*
X758825Y57150D03*
X758825Y31750D03*
X606425Y31750D03*
X606425Y57150D03*
X606425Y82550D03*
X606425Y107950D03*
X606425Y133350D03*
X606425Y158750D03*
X606425Y184150D03*
X606425Y209550D03*
X606425Y234950D03*
X606425Y260350D03*
X606425Y285750D03*
X606425Y311150D03*
X946150Y311150D03*
X946150Y285750D03*
X946150Y260350D03*
X946150Y234950D03*
X946150Y209550D03*
X946150Y184150D03*
X946150Y158750D03*
X946150Y133350D03*
X946150Y107950D03*
X946150Y82550D03*
X946150Y57150D03*
X946150Y31750D03*
X793750Y31750D03*
X793750Y57150D03*
X793750Y82550D03*
X793750Y107950D03*
X793750Y133350D03*
X793750Y158750D03*
X793750Y184150D03*
X793750Y209550D03*
X793750Y234950D03*
X793750Y260350D03*
X793750Y285750D03*
X793750Y311150D03*
D12*
X279400Y142875D03*
X196850Y155575D03*
D13*
X239495Y142875D02*
X279400Y142875D01*
X239495Y142875D02*
X236826Y145544D01*
X206881Y145544D02*
X196850Y155575D01*
X206881Y145544D02*
X236826Y145544D01*
D12*
X120650Y215900D03*
X136525Y254000D03*
X50800Y215900D03*
X50800Y238125D03*
X53975Y282575D03*
X101600Y330200D03*
X168275Y117475D03*
X146050Y117475D03*
X120650Y104775D03*
X120650Y114300D03*
X120650Y123825D03*
X120650Y136525D03*
X269875Y44450D03*
X200025Y279400D03*
X196850Y187325D03*
X206375Y187325D03*
X196850Y136525D03*
X76200Y174625D03*
D13*
X94361Y199136D02*
X94361Y211233D01*
X117983Y234855D02*
X117983Y237370D01*
X117983Y234855D02*
X94361Y211233D01*
D12*
X130342Y247650D03*
D13*
X127000Y241300D02*
X121913Y241300D01*
X127000Y241300D02*
X130342Y244642D01*
X130342Y247650D01*
X121913Y241300D02*
X117983Y237370D01*
X76200Y180975D02*
X76200Y174625D01*
X76200Y180975D02*
X94361Y199136D01*
D12*
X98425Y174625D03*
D13*
X98425Y209550D01*
X123825Y234950D01*
D12*
X123825Y234950D03*
X304800Y76200D03*
D13*
X314325Y66675D01*
X314325Y38100D01*
X323850Y28575D01*
X381000Y28575D02*
X384175Y31750D01*
X381000Y28575D02*
X323850Y28575D01*
D12*
X200025Y298450D03*
D13*
X323850Y298450D01*
X361950Y260350D01*
X384175Y260350D01*
X307975Y209550D02*
X231775Y209550D01*
X307975Y209550D02*
X355600Y209550D01*
X368300Y222250D01*
X419100Y222250D01*
X606425Y222250D01*
X781050Y222250D01*
X793750Y209550D01*
X606425Y209550D02*
X606425Y222250D01*
X419100Y222250D02*
X419100Y209550D01*
D12*
X307975Y209550D03*
D13*
X307975Y184150D02*
X231775Y184150D01*
X307975Y184150D02*
X355600Y184150D01*
X368300Y196850D01*
X419100Y196850D01*
X606425Y196850D01*
X781050Y196850D01*
X793750Y184150D01*
X606425Y184150D02*
X606425Y196850D01*
X419100Y196850D02*
X419100Y184150D01*
D12*
X307975Y184150D03*
X142875Y241300D03*
D13*
X202692Y111633D02*
X231775Y82550D01*
X202692Y111633D02*
X202692Y116720D01*
X142875Y176537D02*
X142875Y241300D01*
X142875Y176537D02*
X202692Y116720D01*
D12*
X317500Y79375D03*
D13*
X320675Y76200D01*
X320675Y63500D01*
X327025Y57150D01*
X384175Y57150D01*
X209550Y209550D02*
X209550Y224162D01*
X209550Y209550D02*
X222250Y196850D01*
X269875Y196850D01*
D12*
X269875Y196850D03*
X198548Y233473D03*
D13*
X207859Y224162D01*
X209550Y224162D01*
D12*
X193675Y246608D03*
D13*
X323850Y171450D02*
X349250Y146050D01*
X349250Y88900D02*
X355600Y82550D01*
X384175Y82550D01*
X349250Y88900D02*
X349250Y146050D01*
X215900Y197453D02*
X205486Y207867D01*
X215900Y174625D02*
X219075Y171450D01*
X323850Y171450D01*
X215900Y174625D02*
X215900Y197453D01*
X192480Y230960D02*
X192480Y235987D01*
X192480Y230960D02*
X196035Y227405D01*
X198869Y227405D01*
X193675Y237182D02*
X193675Y246608D01*
X193675Y237182D02*
X192480Y235987D01*
X205486Y220788D02*
X205486Y207867D01*
X205486Y220788D02*
X198869Y227405D01*
M02*
