M48
;GenerationSoftware,Autodesk,EAGLE,9.6.2*%
;CreationDate,2021-01-09T08:11:47Z*%
FMAT,2
ICI,OFF
METRIC,TZ,000.000
T3C0.305
T2C1.000
T1C2.311
%
G90
M71
T1
X15138Y7302
X2007Y7302
T2
X60642Y13335
X60642Y15875
X60642Y18415
X60642Y20955
X60642Y23495
X60642Y26035
X60642Y28575
X60642Y31115
X94615Y31115
X94615Y28575
X94615Y26035
X94615Y23495
X94615Y20955
X94615Y18415
X94615Y15875
X57150Y13335
X94615Y10795
X94615Y8255
X94615Y5715
X94615Y3175
X79375Y3175
X79375Y5715
X79375Y8255
X79375Y10795
X79375Y13335
X79375Y15875
X79375Y18415
X79375Y20955
X79375Y23495
X79375Y26035
X79375Y28575
X79375Y31115
X38418Y31115
X38418Y28575
X38418Y26035
X38418Y23495
X38418Y20955
X38418Y18415
X38418Y15875
X38418Y13335
X38418Y10795
X38418Y8255
X38418Y5715
X38418Y3175
X23177Y3175
X23177Y5715
X23177Y8255
X23177Y10795
X23177Y13335
X23177Y15875
X23177Y18415
X23177Y20955
X23177Y23495
X23177Y26035
X23177Y28575
X23177Y31115
X57150Y31115
X57150Y28575
X57150Y26035
X57150Y23495
X57150Y20955
X57150Y18415
X57150Y15875
X94615Y13335
X57150Y10795
X57150Y8255
X57150Y5715
X57150Y3175
X41910Y3175
X41910Y5715
X41910Y8255
X41910Y10795
X41910Y13335
X41910Y15875
X41910Y18415
X41910Y20955
X41910Y23495
X41910Y26035
X41910Y28575
X41910Y31115
X75883Y31115
X75883Y28575
X75883Y26035
X75883Y23495
X75883Y20955
X75883Y18415
X75883Y15875
X75883Y13335
X75883Y10795
X75883Y8255
X75883Y5715
X75883Y3175
X60642Y3175
X60642Y5715
X60642Y8255
X60642Y10795
T3
X19685Y15557
X12065Y21590
X13652Y25400
X5080Y21590
X5080Y23812
X5398Y28257
X10160Y33020
X16828Y11747
X14605Y11747
X12065Y10478
X12065Y11430
X12065Y12382
X12065Y13652
X26987Y4445
X20003Y27940
X20638Y18733
X19685Y13652
X7620Y17463
X13034Y24765
X9843Y17463
X12382Y23495
X30480Y7620
X20003Y29845
X30797Y20955
X30797Y18415
X14287Y24130
X31750Y7937
X26987Y19685
X19855Y23347
X19368Y24661
X19685Y18733
X27940Y14287
M30