G04 EAGLE Gerber RS-274X export*
G75*
%MOMM*%
%FSLAX34Y34*%
%LPD*%
%INSolderpaste Top*%
%IPPOS*%
%AMOC8*
5,1,8,0,0,1.08239X$1,22.5*%
G01*
%ADD10R,1.300000X1.500000*%
%ADD11R,1.500000X1.300000*%
%ADD12R,2.000000X5.500000*%
%ADD13R,0.280000X2.032000*%
%ADD14R,2.032000X0.280000*%
%ADD15R,0.900000X3.000000*%
%ADD16R,2.600000X1.600000*%
%ADD17R,1.200000X0.600000*%
%ADD18R,1.778000X1.778000*%
%ADD19R,1.778000X1.779000*%
%ADD20R,0.508000X0.977900*%
%ADD21R,1.400000X1.400000*%


D10*
X168300Y279400D03*
X187300Y279400D03*
X85700Y279400D03*
X66700Y279400D03*
D11*
X120650Y168250D03*
X120650Y149250D03*
X66675Y257150D03*
X66675Y238150D03*
X66675Y196875D03*
X66675Y215875D03*
D12*
X28575Y187450D03*
X28575Y282450D03*
D11*
X76200Y168250D03*
X76200Y149250D03*
X98425Y168250D03*
X98425Y149250D03*
D13*
X109500Y199992D03*
X114500Y199992D03*
X119500Y199992D03*
X124500Y199992D03*
X129500Y199992D03*
X134500Y199992D03*
X139500Y199992D03*
X144500Y199992D03*
D14*
X161958Y217450D03*
X161958Y222450D03*
X161958Y227450D03*
X161958Y232450D03*
X161958Y237450D03*
X161958Y242450D03*
X161958Y247450D03*
X161958Y252450D03*
D13*
X144500Y269908D03*
X139500Y269908D03*
X134500Y269908D03*
X129500Y269908D03*
X124500Y269908D03*
X119500Y269908D03*
X114500Y269908D03*
X109500Y269908D03*
D14*
X92042Y252450D03*
X92042Y247450D03*
X92042Y242450D03*
X92042Y237450D03*
X92042Y232450D03*
X92042Y227450D03*
X92042Y222450D03*
X92042Y217450D03*
D15*
X75725Y115145D03*
X50725Y115145D03*
X95725Y115145D03*
X120725Y115145D03*
D11*
X146050Y149200D03*
X146050Y130200D03*
X168275Y149200D03*
X168275Y130200D03*
D16*
X166150Y187325D03*
X202150Y187325D03*
D17*
X279975Y133350D03*
X279975Y120650D03*
X279975Y107950D03*
X279975Y95250D03*
X279975Y82550D03*
X279975Y69850D03*
X279975Y57150D03*
X279975Y44450D03*
X335975Y44450D03*
X335975Y57150D03*
X335975Y69850D03*
X335975Y82550D03*
X335975Y95250D03*
X335975Y107950D03*
X335975Y120650D03*
X335975Y133350D03*
D10*
X320700Y184150D03*
X339700Y184150D03*
X320700Y209550D03*
X339700Y209550D03*
D18*
X65600Y300500D03*
X137600Y300500D03*
D19*
X137600Y334500D03*
D18*
X65600Y334500D03*
D20*
X187350Y126048D03*
X196850Y126048D03*
X206350Y126048D03*
X206350Y153353D03*
X187350Y153353D03*
D21*
X514300Y320675D03*
X476300Y320675D03*
X704800Y320675D03*
X666800Y320675D03*
X888950Y320675D03*
X850950Y320675D03*
M02*
