G04 EAGLE Gerber RS-274X export*
G75*
%MOMM*%
%FSLAX34Y34*%
%LPD*%
%INSoldermask Bottom*%
%IPPOS*%
%AMOC8*
5,1,8,0,0,1.08239X$1,22.5*%
G01*
%ADD10C,3.429000*%
%ADD11C,1.981600*%


D10*
X151384Y73025D03*
X20066Y73025D03*
D11*
X384175Y311150D03*
X384175Y285750D03*
X384175Y260350D03*
X384175Y234950D03*
X384175Y209550D03*
X384175Y184150D03*
X384175Y158750D03*
X384175Y133350D03*
X384175Y107950D03*
X384175Y82550D03*
X384175Y57150D03*
X384175Y31750D03*
X231775Y31750D03*
X231775Y57150D03*
X231775Y82550D03*
X231775Y107950D03*
X231775Y133350D03*
X231775Y158750D03*
X231775Y184150D03*
X231775Y209550D03*
X231775Y234950D03*
X231775Y260350D03*
X231775Y285750D03*
X231775Y311150D03*
X571500Y311150D03*
X571500Y285750D03*
X571500Y260350D03*
X571500Y234950D03*
X571500Y209550D03*
X571500Y184150D03*
X571500Y158750D03*
X571500Y133350D03*
X571500Y107950D03*
X571500Y82550D03*
X571500Y57150D03*
X571500Y31750D03*
X419100Y31750D03*
X419100Y57150D03*
X419100Y82550D03*
X419100Y107950D03*
X419100Y133350D03*
X419100Y158750D03*
X419100Y184150D03*
X419100Y209550D03*
X419100Y234950D03*
X419100Y260350D03*
X419100Y285750D03*
X419100Y311150D03*
X758825Y311150D03*
X758825Y285750D03*
X758825Y260350D03*
X758825Y234950D03*
X758825Y209550D03*
X758825Y184150D03*
X758825Y158750D03*
X758825Y133350D03*
X758825Y107950D03*
X758825Y82550D03*
X758825Y57150D03*
X758825Y31750D03*
X606425Y31750D03*
X606425Y57150D03*
X606425Y82550D03*
X606425Y107950D03*
X606425Y133350D03*
X606425Y158750D03*
X606425Y184150D03*
X606425Y209550D03*
X606425Y234950D03*
X606425Y260350D03*
X606425Y285750D03*
X606425Y311150D03*
X946150Y311150D03*
X946150Y285750D03*
X946150Y260350D03*
X946150Y234950D03*
X946150Y209550D03*
X946150Y184150D03*
X946150Y158750D03*
X946150Y133350D03*
X946150Y107950D03*
X946150Y82550D03*
X946150Y57150D03*
X946150Y31750D03*
X793750Y31750D03*
X793750Y57150D03*
X793750Y82550D03*
X793750Y107950D03*
X793750Y133350D03*
X793750Y158750D03*
X793750Y184150D03*
X793750Y209550D03*
X793750Y234950D03*
X793750Y260350D03*
X793750Y285750D03*
X793750Y311150D03*
M02*
