G04 EAGLE Gerber RS-274X export*
G75*
%MOMM*%
%FSLAX34Y34*%
%LPD*%
%INSoldermask Top*%
%IPPOS*%
%AMOC8*
5,1,8,0,0,1.08239X$1,22.5*%
G01*
%ADD10R,1.401600X1.601600*%
%ADD11R,1.601600X1.401600*%
%ADD12R,2.101600X5.601600*%
%ADD13R,0.381600X2.133600*%
%ADD14R,2.133600X0.381600*%
%ADD15C,3.429000*%
%ADD16R,1.001600X3.101600*%
%ADD17R,2.701600X1.701600*%
%ADD18C,1.981600*%
%ADD19R,1.301600X0.701600*%
%ADD20R,1.879600X1.879600*%
%ADD21R,1.879600X1.880600*%
%ADD22R,0.609600X1.079500*%
%ADD23R,1.501600X1.501600*%
%ADD24C,1.101600*%


D10*
X168300Y279400D03*
X187300Y279400D03*
X85700Y279400D03*
X66700Y279400D03*
D11*
X120650Y168250D03*
X120650Y149250D03*
X66675Y257150D03*
X66675Y238150D03*
X66675Y196875D03*
X66675Y215875D03*
D12*
X28575Y187450D03*
X28575Y282450D03*
D11*
X76200Y168250D03*
X76200Y149250D03*
X98425Y168250D03*
X98425Y149250D03*
D13*
X109500Y199992D03*
X114500Y199992D03*
X119500Y199992D03*
X124500Y199992D03*
X129500Y199992D03*
X134500Y199992D03*
X139500Y199992D03*
X144500Y199992D03*
D14*
X161958Y217450D03*
X161958Y222450D03*
X161958Y227450D03*
X161958Y232450D03*
X161958Y237450D03*
X161958Y242450D03*
X161958Y247450D03*
X161958Y252450D03*
D13*
X144500Y269908D03*
X139500Y269908D03*
X134500Y269908D03*
X129500Y269908D03*
X124500Y269908D03*
X119500Y269908D03*
X114500Y269908D03*
X109500Y269908D03*
D14*
X92042Y252450D03*
X92042Y247450D03*
X92042Y242450D03*
X92042Y237450D03*
X92042Y232450D03*
X92042Y227450D03*
X92042Y222450D03*
X92042Y217450D03*
D15*
X151384Y73025D03*
X20066Y73025D03*
D16*
X75725Y115145D03*
X50725Y115145D03*
X95725Y115145D03*
X120725Y115145D03*
D11*
X146050Y149200D03*
X146050Y130200D03*
X168275Y149200D03*
X168275Y130200D03*
D17*
X166150Y187325D03*
X202150Y187325D03*
D18*
X384175Y311150D03*
X384175Y285750D03*
X384175Y260350D03*
X384175Y234950D03*
X384175Y209550D03*
X384175Y184150D03*
X384175Y158750D03*
X384175Y133350D03*
X384175Y107950D03*
X384175Y82550D03*
X384175Y57150D03*
X384175Y31750D03*
X231775Y31750D03*
X231775Y57150D03*
X231775Y82550D03*
X231775Y107950D03*
X231775Y133350D03*
X231775Y158750D03*
X231775Y184150D03*
X231775Y209550D03*
X231775Y234950D03*
X231775Y260350D03*
X231775Y285750D03*
X231775Y311150D03*
X571500Y311150D03*
X571500Y285750D03*
X571500Y260350D03*
X571500Y234950D03*
X571500Y209550D03*
X571500Y184150D03*
X571500Y158750D03*
X571500Y133350D03*
X571500Y107950D03*
X571500Y82550D03*
X571500Y57150D03*
X571500Y31750D03*
X419100Y31750D03*
X419100Y57150D03*
X419100Y82550D03*
X419100Y107950D03*
X419100Y133350D03*
X419100Y158750D03*
X419100Y184150D03*
X419100Y209550D03*
X419100Y234950D03*
X419100Y260350D03*
X419100Y285750D03*
X419100Y311150D03*
D19*
X279975Y133350D03*
X279975Y120650D03*
X279975Y107950D03*
X279975Y95250D03*
X279975Y82550D03*
X279975Y69850D03*
X279975Y57150D03*
X279975Y44450D03*
X335975Y44450D03*
X335975Y57150D03*
X335975Y69850D03*
X335975Y82550D03*
X335975Y95250D03*
X335975Y107950D03*
X335975Y120650D03*
X335975Y133350D03*
D18*
X758825Y311150D03*
X758825Y285750D03*
X758825Y260350D03*
X758825Y234950D03*
X758825Y209550D03*
X758825Y184150D03*
X758825Y158750D03*
X758825Y133350D03*
X758825Y107950D03*
X758825Y82550D03*
X758825Y57150D03*
X758825Y31750D03*
X606425Y31750D03*
X606425Y57150D03*
X606425Y82550D03*
X606425Y107950D03*
X606425Y133350D03*
X606425Y158750D03*
X606425Y184150D03*
X606425Y209550D03*
X606425Y234950D03*
X606425Y260350D03*
X606425Y285750D03*
X606425Y311150D03*
X946150Y311150D03*
X946150Y285750D03*
X946150Y260350D03*
X946150Y234950D03*
X946150Y209550D03*
X946150Y184150D03*
X946150Y158750D03*
X946150Y133350D03*
X946150Y107950D03*
X946150Y82550D03*
X946150Y57150D03*
X946150Y31750D03*
X793750Y31750D03*
X793750Y57150D03*
X793750Y82550D03*
X793750Y107950D03*
X793750Y133350D03*
X793750Y158750D03*
X793750Y184150D03*
X793750Y209550D03*
X793750Y234950D03*
X793750Y260350D03*
X793750Y285750D03*
X793750Y311150D03*
D10*
X320700Y184150D03*
X339700Y184150D03*
X320700Y209550D03*
X339700Y209550D03*
D20*
X65600Y300500D03*
X137600Y300500D03*
D21*
X137600Y334500D03*
D20*
X65600Y334500D03*
D22*
X187350Y126048D03*
X196850Y126048D03*
X206350Y126048D03*
X206350Y153353D03*
X187350Y153353D03*
D23*
X514300Y320675D03*
X476300Y320675D03*
X704800Y320675D03*
X666800Y320675D03*
X888950Y320675D03*
X850950Y320675D03*
D24*
X209550Y247650D03*
X209550Y222250D03*
X209550Y209550D03*
X209550Y234950D03*
M02*
